<?xml version="1.0" standalone="no"?>
<!DOCTYPE svg PUBLIC "-//W3C//DTD SVG 20010904//EN"
 "http://www.w3.org/TR/2001/REC-SVG-20010904/DTD/svg10.dtd">
<svg version="1.0" xmlns="http://www.w3.org/2000/svg"
 width="512.000000pt" height="512.000000pt" viewBox="0 0 512.000000 512.000000"
 preserveAspectRatio="xMidYMid meet">
<metadata>
Created by potrace 1.16, written by Peter Selinger 2001-2019
</metadata>
<g transform="translate(0.000000,512.000000) scale(0.100000,-0.100000)"
fill="#000000" stroke="none">
<path d="M435 4421 c-206 -60 -366 -224 -419 -428 -14 -54 -16 -219 -16 -1433
0 -1523 -4 -1422 67 -1564 48 -96 153 -201 249 -249 144 -72 -34 -67 2244 -67
2278 0 2100 -5 2244 67 96 48 201 153 249 249 71 142 67 41 67 1564 0 1523 4
1422 -67 1564 -48 96 -153 201 -249 249 -144 72 35 67 -2250 66 -1931 0 -2063
-2 -2119 -18z m3779 -573 c-142 -106 -572 -426 -954 -710 -382 -285 -697 -518
-700 -518 -3 0 -318 233 -700 518 -382 284 -812 604 -954 710 l-259 192 1913
0 1913 0 -259 -192z m-2701 -967 c570 -424 1042 -771 1047 -771 8 0 1984 1464
2123 1573 l37 29 -2 -1238 -3 -1239 -28 -47 c-18 -31 -44 -57 -75 -75 l-47
-28 -2005 0 -2005 0 -47 28 c-31 18 -57 44 -75 75 l-28 47 -3 1239 -2 1238 37
-29 c21 -17 505 -377 1076 -802z"/>
</g>
</svg>
