<svg id="svg" version="1.1" xmlns="http://www.w3.org/2000/svg" viewBox="0 0 415 121" style="display: block;"><path d="M0 0 C136.95 0 273.9 0 415 0 C415 39.93 415 79.86 415 121 C278.05 121 141.1 121 0 121 C0 81.07 0 41.14 0 0 Z " transform="translate(0,0)" style="fill: #FCFEFF;"/><path d="M0 0 C7.07749181 2.85188376 12.77978409 6.42342249 18 12 C21.22346134 10.51053855 23.95092264 8.65798578 26.8125 6.5625 C33.704089 1.72629719 39.38036483 -1.13629842 48 0 C51.65041314 1.29792467 53.34808759 3.14190458 55.3125 6.375 C59.19631967 14.92883765 57.22224072 25.2102443 55 34 C55.9075 34.020625 56.815 34.04125 57.75 34.0625 C65.77088919 35.22234345 74.16010862 40.83507708 79.0078125 47.24609375 C80.69857855 50.23488885 81.06196242 52.59206697 81 56 C79.16419828 61.87456549 74.96615048 65.61040523 70 69 C60.07537688 74 60.07537688 74 55 74 C55.2165625 74.87398437 55.2165625 74.87398437 55.4375 75.765625 C57.68916376 85.71047326 58.73414857 94.85749885 53.4765625 103.9921875 C51.26526246 106.99908756 49.62982774 108.09254306 46 109 C37.92468884 109.75605503 31.40348694 105.47595397 25 101 C24.30519531 100.24332031 23.61039062 99.48664063 22.89453125 98.70703125 C21.17771325 96.76810785 21.17771325 96.76810785 19.00390625 97.04296875 C16.62654984 98.17835339 14.92259013 99.5797204 12.9375 101.3125 C6.96243858 106.09648657 0.72884803 108.44984209 -6.8125 109.5625 C-10.95478967 108.83150771 -13.40127891 107.20508934 -16 104 C-20.75068893 95.29040363 -19.81412384 84.52415018 -18 75 C-18.76183594 74.72027344 -19.52367188 74.44054687 -20.30859375 74.15234375 C-28.84031797 70.83977667 -36.84234438 66.86734932 -42 59 C-42.99176564 55.17461824 -43.24599136 52.78717234 -42.0625 49 C-36.54057322 40.96810651 -29.18103209 36.9515318 -20 34 C-19.01 34 -18.02 34 -17 34 C-17.144375 33.31035156 -17.28875 32.62070312 -17.4375 31.91015625 C-19.23582291 22.8061465 -19.96734894 14.90204683 -17 6 C-12.42988862 -0.71235109 -7.80414671 -1.16352733 0 0 Z " transform="translate(43,7)" style="fill: #08D8FF;"/><path d="M0 0 C43.05664062 0 43.05664062 0 51.37109375 8.0625 C56.09356019 13.67963035 56.56575612 19.86921599 56.33984375 27.03515625 C55.58740964 33.59949521 53.35734856 38.25728131 48.25 42.5 C45.4755887 44.59829426 43.24236897 45.18814936 39.85058594 45.56835938 C38.57989258 45.71080078 37.30919922 45.85324219 36 46 C36.63615234 46.96413818 37.27230469 47.92827637 37.92773438 48.92163086 C40.27818195 52.48522084 42.62563454 56.05077505 44.97216797 59.61694336 C45.98990049 61.16273237 47.00845414 62.70798108 48.02783203 64.25268555 C49.48944757 66.46783563 50.94813863 68.68488601 52.40625 70.90234375 C52.86559937 71.5971434 53.32494873 72.29194305 53.79821777 73.00779724 C57 77.88612829 57 77.88612829 57 79 C52.61453097 80.23987083 49.34807725 80.48126849 45 79 C39.69627017 73.5070339 36.3589513 65.77227763 33.00439453 58.98583984 C31.07632188 55.12035009 29.29916728 51.82710837 26 49 C20.67652809 47.35496103 15.56282406 47.81457253 10 48 C10 58.23 10 68.46 10 79 C6.7 79 3.4 79 0 79 C0 52.93 0 26.86 0 0 Z " transform="translate(140,21)" style="fill: #07D8FF;"/><path d="M0 0 C0.70745361 0.00612305 1.41490723 0.01224609 2.14379883 0.01855469 C7.66613406 0.1840656 11.72642492 1.11549924 16.125 4.4375 C16.95128906 5.03046875 17.77757812 5.6234375 18.62890625 6.234375 C21.35345432 8.63914043 22.72712457 10.71113336 24.375 13.9375 C24.87515625 14.8759375 25.3753125 15.814375 25.890625 16.78125 C27.125 20.4375 27.125 20.4375 28.125 32.4375 C12.615 32.4375 -2.895 32.4375 -18.875 32.4375 C-15.05461433 43.46937326 -15.05461433 43.46937326 -6.875 50.4375 C-1.21405132 52.36268093 5.40813397 52.50778056 10.9609375 50.3203125 C12.67297375 49.43166025 14.36586596 48.50452639 16.03125 47.53125 C18.125 46.4375 18.125 46.4375 21.125 46.4375 C22.8125 48.9375 22.8125 48.9375 24.125 51.4375 C22.7562552 52.40474632 21.37964396 53.3608644 20 54.3125 C19.23429687 54.84617188 18.46859375 55.37984375 17.6796875 55.9296875 C9.85788579 60.5462249 0.16610517 60.89962256 -8.5703125 58.78515625 C-15.77602889 55.86018775 -21.98790759 50.97862551 -25.3125 43.875 C-26.64275473 40.38820896 -27.57585875 37.17676557 -27.875 33.4375 C-27.96136719 32.64859375 -28.04773438 31.8596875 -28.13671875 31.046875 C-28.65346111 23.00866052 -26.34672466 17.07876905 -21.875 10.4375 C-15.79876043 3.62584255 -9.26483098 -0.13590903 0 0 Z " transform="translate(233.875,41.5625)" style="fill: #05D8FF;"/><path d="M0 0 C4.98894272 2.55306632 7.8603013 5.88297589 9.953125 11.12890625 C10.4752163 14.649582 10.42110336 18.10356098 10.34375 21.65625 C10.33809021 22.64516739 10.33243042 23.63408478 10.32659912 24.65296936 C10.30432515 27.79128768 10.25414498 30.92843682 10.203125 34.06640625 C10.18304842 36.20245739 10.16479968 38.33852655 10.1484375 40.47460938 C10.10449011 45.69310285 10.0376687 50.91092099 9.953125 56.12890625 C7.313125 56.12890625 4.673125 56.12890625 1.953125 56.12890625 C1.623125 54.47890625 1.293125 52.82890625 0.953125 51.12890625 C0.086875 51.91265625 -0.779375 52.69640625 -1.671875 53.50390625 C-7.82501704 58.54348662 -14.34867662 58.80783698 -22.046875 58.12890625 C-27.79705673 57.0439663 -31.30184686 54.56437751 -34.859375 49.953125 C-37.93787195 45.22398659 -38.62172041 40.68574523 -38.046875 35.12890625 C-36.28999599 29.61630384 -33.60347289 26.2407162 -28.828125 23.0390625 C-23.11461992 20.11966188 -16.26947522 20.4604212 -10.046875 21.12890625 C-6.45830655 22.43301118 -3.27050192 24.09139939 -0.046875 26.12890625 C-0.046875 26.78890625 -0.046875 27.44890625 -0.046875 28.12890625 C0.613125 28.12890625 1.273125 28.12890625 1.953125 28.12890625 C1.75078993 25.72806472 1.51745592 23.33714292 1.265625 20.94140625 C1.18538086 19.93110352 1.18538086 19.93110352 1.10351562 18.90039062 C0.67678049 15.09688178 0.00243706 13.18915868 -2.44140625 10.203125 C-7.22910379 6.39162966 -12.1696131 6.62718877 -18.046875 7.12890625 C-22.94149074 8.76044483 -26.87233493 11.17618279 -31.046875 14.12890625 C-32.671875 11.87890625 -32.671875 11.87890625 -34.046875 9.12890625 C-32.89622362 5.67695212 -31.18600477 4.2575918 -28.109375 2.44140625 C-27.07490234 1.81685547 -27.07490234 1.81685547 -26.01953125 1.1796875 C-18.95614951 -2.58278713 -7.63363938 -2.18243793 0 0 Z " transform="translate(307.046875,42.87109375)" style="fill: #05D8FF;"/><path d="M0 0 C3.70697705 -0.26260373 7.41156358 -0.42156838 11.125 -0.5625 C12.17171875 -0.63791016 13.2184375 -0.71332031 14.296875 -0.79101562 C17.42758007 -0.88018128 19.97573707 -0.82983336 23 0 C25.77965215 2.64034357 27.33882753 5.57603298 29 9 C29.56589844 9.87011719 30.13179687 10.74023438 30.71484375 11.63671875 C31.11832031 12.31347656 31.52179688 12.99023438 31.9375 13.6875 C32.56978516 14.71423828 32.56978516 14.71423828 33.21484375 15.76171875 C34.33530204 18.95586105 33.92158564 20.74083018 33 24 C31.66636952 26.71371285 30.11121442 29.25600654 28.5 31.8125 C28.08363281 32.49248047 27.66726562 33.17246094 27.23828125 33.87304688 C24.20659497 38.79340503 24.20659497 38.79340503 23 40 C4.66278445 42.4687268 4.66278445 42.4687268 -1.83984375 38.0859375 C-3.63117389 35.46190287 -4.81878721 32.94482912 -6 30 C-7.01002675 28.38900734 -8.0302124 26.78431987 -9.0625 25.1875 C-10.34765625 23.10546875 -10.34765625 23.10546875 -11 21 C-9.75214515 16.2564988 -6.8004991 11.92833357 -4.375 7.6875 C-3.95476563 6.94693359 -3.53453125 6.20636719 -3.1015625 5.44335938 C-2.07051505 3.62730989 -1.03563954 1.81343467 0 0 Z " transform="translate(50,41)" style="fill: #F7FDFF;"/><path d="M0 0 C4.16625 -0.0825 8.3325 -0.165 12.625 -0.25 C13.92775879 -0.28641602 15.23051758 -0.32283203 16.57275391 -0.36035156 C23.02700277 -0.42230596 27.14424218 -0.43744085 32 4 C32.78375 4.680625 33.5675 5.36125 34.375 6.0625 C36.88687962 10.60320547 36.74446918 14.93016489 36 20 C34.00912717 23.98174566 31.83925564 26.72044197 28 29 C24.74838194 30.04221973 21.76136519 30.11575194 18.359375 30.09765625 C17.39483398 30.09515869 16.43029297 30.09266113 15.43652344 30.09008789 C13.61169434 30.07643188 13.61169434 30.07643188 11.75 30.0625 C7.8725 30.041875 3.995 30.02125 0 30 C0 20.1 0 10.2 0 0 Z " transform="translate(150,30)" style="fill: #FCFEFF;"/><path d="M0 0 C2.79978655 1.60469694 4.99148098 3.32522087 7.1875 5.6875 C6.13875002 8.30937494 5.53818687 9.48121361 3.0625 10.9375 C2.44375 11.185 1.825 11.4325 1.1875 11.6875 C0.71699219 11.33816406 0.24648438 10.98882812 -0.23828125 10.62890625 C-0.86089844 10.17386719 -1.48351562 9.71882813 -2.125 9.25 C-2.73988281 8.79753906 -3.35476563 8.34507813 -3.98828125 7.87890625 C-8.28419718 5.0732224 -12.86980237 5.12674014 -17.8125 5.6875 C-23.40704748 7.3429276 -26.73074983 10.17663279 -29.90234375 15.00390625 C-33.17748578 21.06221619 -32.8932076 29.69814509 -31.12890625 36.2109375 C-28.71719646 41.43464086 -24.98422457 45.10163771 -19.8125 47.6875 C-11.13295369 48.6130042 -11.13295369 48.6130042 -3.1875 45.8125 C-2.40375 45.11125 -1.62 44.41 -0.8125 43.6875 C0.1775 43.0275 1.1675 42.3675 2.1875 41.6875 C4.6625 43.6675 4.6625 43.6675 7.1875 45.6875 C6.79889184 48.05952385 6.49487569 49.38097107 4.76953125 51.1015625 C4.18558594 51.50117187 3.60164063 51.90078125 3 52.3125 C2.42894531 52.71726563 1.85789062 53.12203125 1.26953125 53.5390625 C-5.74148443 57.40630192 -13.00213027 57.50556519 -20.8125 56.6875 C-29.21621618 54.24257581 -34.7761863 48.86815394 -39.12890625 41.44140625 C-42.7821919 33.68931231 -43.16258358 25.05895552 -41.08203125 16.78125 C-37.90707345 8.17646642 -32.91330575 2.94127038 -24.8125 -1.3125 C-17.19502541 -3.8516582 -7.20980863 -3.55157733 0 0 Z " transform="translate(367.8125,44.3125)" style="fill: #06D8FF;"/><path d="M0 0 C2.97 0 5.94 0 9 0 C9 5.28 9 10.56 9 16 C12.63 16 16.26 16 20 16 C20 18.31 20 20.62 20 23 C16.37 23 12.74 23 9 23 C9.11806197 28.66014162 9.24229672 34.32010083 9.37231445 39.97998047 C9.41569001 41.90637504 9.45736314 43.83280871 9.49731445 45.75927734 C9.55495362 48.52453408 9.61866616 51.2895935 9.68359375 54.0546875 C9.70030624 54.9193161 9.71701874 55.7839447 9.73423767 56.67477417 C9.72159896 60.97395852 9.72159896 60.97395852 11 65 C16.08303686 65.11320856 16.08303686 65.11320856 21 64 C21.99 67.465 21.99 67.465 23 71 C17.77289231 74.30133117 13.02519885 74.90528864 7 74 C2.85290114 71.66725689 1.34408366 69.48459394 0 65 C-0.26679532 61.77231007 -0.23273204 58.5609727 -0.1953125 55.32421875 C-0.1924826 54.3990596 -0.18965271 53.47390045 -0.18673706 52.52070618 C-0.17557392 49.57617058 -0.15047637 46.63194312 -0.125 43.6875 C-0.11496521 41.68685336 -0.10584023 39.68620194 -0.09765625 37.68554688 C-0.07564722 32.7902465 -0.04114391 27.89517543 0 23 C-2.97 23 -5.94 23 -9 23 C-9 20.69 -9 18.38 -9 16 C-6.03 16 -3.06 16 0 16 C0 10.72 0 5.44 0 0 Z " transform="translate(390,27)" style="fill: #07D8FF;"/><path d="M0 0 C1.2375 0.86625 1.2375 0.86625 2.5 1.75 C3.28375 2.245 4.0675 2.74 4.875 3.25 C7.60547666 7.45073332 7.4534956 11.91799975 6.5 16.75 C3.99348079 20.49728786 -0.21185633 22.65303301 -4.5 23.75 C-9.41361984 24.17219403 -14.1824831 24.38848255 -18.5 21.75 C-21.596726 18.99735467 -23.19531915 17.39159943 -23.953125 13.30859375 C-24.13021658 9.06472054 -23.91524702 6.46185203 -21.75 2.75 C-15.63466563 -2.68585278 -7.51618729 -2.6843526 0 0 Z " transform="translate(302.5,71.25)" style="fill: #F8FDFF;"/><path d="M0 0 C4.38382153 2.56272273 7.31641861 5.47596271 9.578125 10.08984375 C10.073125 14.04984375 10.073125 14.04984375 10.578125 18.08984375 C-1.961875 18.08984375 -14.501875 18.08984375 -27.421875 18.08984375 C-25.16301424 7.92497033 -25.16301424 7.92497033 -22.046875 4.65234375 C-21.16902344 3.69521484 -21.16902344 3.69521484 -20.2734375 2.71875 C-14.7242428 -2.16313648 -6.82604208 -2.56527065 0 0 Z " transform="translate(242.421875,49.91015625)" style="fill: #F7FDFF;"/><path d="M0 0 C5.40396225 12.43472283 4.8307773 18.5747914 0 31 C-8.616778 28.94924281 -15.19140035 25.62723776 -21.625 19.5 C-23 17 -23 17 -23.1875 14.0625 C-20.36229996 6.77645779 -13.31564905 3.92556775 -6.55078125 0.8828125 C-4 0 -4 0 0 0 Z " transform="translate(28,46)" style="fill: #F9FEFF;"/><path d="M0 0 C8.64529779 0.12394692 15.51891573 5.72556253 21.5625 11.375 C19.41559422 17.23491191 16.77367048 21.77664019 11.5625 25.375 C6.05609387 26.9972466 0.26696548 27.17404724 -5.4375 27.375 C-7.14498313 22.91241461 -7.73430223 19.14712152 -7.75 14.375 C-7.76675781 13.199375 -7.78351562 12.02375 -7.80078125 10.8125 C-7.20766995 5.20026407 -5.87355804 0.64075179 0 0 Z " transform="translate(36.4375,11.625)" style="fill: #F8FDFF;"/><path d="M0 0 C2.96921753 2.69085339 3.91373551 5.64584816 4.16796875 9.63671875 C4.17441406 10.64347656 4.18085937 11.65023438 4.1875 12.6875 C4.20167969 13.68136719 4.21585938 14.67523438 4.23046875 15.69921875 C3.95282168 19.67568948 3.0531384 23.157918 2 27 C-12.7154335 26.78036666 -12.7154335 26.78036666 -18.1328125 22.55859375 C-24 15.47457797 -24 15.47457797 -24 10 C-17.58509364 3.37126343 -9.44054859 -1.7063467 0 0 Z " transform="translate(91,12)" style="fill: #F7FDFF;"/><path d="M0 0 C2.73047471 7.23412621 3.62145154 15.8371793 0.6875 23.1875 C-1 26 -1 26 -4 28 C-11.61569557 28.13599456 -17.1185926 24.63937105 -23 20 C-24.38367176 18.37488216 -25.73267921 16.71739733 -27 15 C-18.52255976 2.93791068 -18.52255976 2.93791068 -12.48046875 0.69140625 C-8.2735749 0.08232734 -4.23917646 0 0 0 Z " transform="translate(93,83)" style="fill: #F7FDFF;"/><path d="M0 0 C14.91747374 0.37293684 14.91747374 0.37293684 19.83984375 4.21875 C22.76040147 7.91703539 24.9609105 11.76421022 27 16 C20.82127214 21.99353439 14.52310626 26.99479616 5.625 27.5 C2 27 2 27 0.0625 25.1875 C-1.85915298 21.23115564 -2.16216083 18.10833641 -2.1875 13.75 C-2.20876953 12.10257813 -2.20876953 12.10257813 -2.23046875 10.421875 C-1.97526125 6.63269239 -1.15715797 3.60411257 0 0 Z " transform="translate(31,83)" style="fill: #F9FDFF;"/><path d="M0 0 C7.87160438 1.16138425 13.68482786 4.15297044 20 9 C22.34168764 12.51253146 22.49623677 13.86469356 22 18 C19.13167054 22.44379121 15.67667026 24.59646273 11 26.8125 C10.38382813 27.12380859 9.76765625 27.43511719 9.1328125 27.75585938 C5.7668824 29.39909778 3.82336798 30 0 30 C-0.87216409 27.96595642 -1.72203505 25.92234514 -2.5625 23.875 C-3.03816406 22.73804687 -3.51382813 21.60109375 -4.00390625 20.4296875 C-5.64905777 14.76520501 -3.96727758 10.49408909 -1.9375 5.125 C-1.57527344 4.15820312 -1.21304688 3.19140625 -0.83984375 2.1953125 C-0.56269531 1.47085938 -0.28554687 0.74640625 0 0 Z " transform="translate(96,46)" style="fill: #F9FEFF;"/><path d="M0 0 C3.53795636 2.53809913 5.24415028 4.70800938 6.0625 8.9375 C6.28892429 12.26467911 5.89757185 13.2048563 4.3125 16.375 C1.25571386 19.84486535 -0.33284104 20.78254448 -4.875 21.375 C-8.87153796 20.89541545 -10.90459308 19.53260567 -14 17 C-16.58536545 13.59201828 -16.43781946 10.1592849 -16 6 C-14.19800549 2.99667582 -12.6888808 1.4096048 -9.6875 -0.375 C-6.04992671 -1.22094728 -3.60960985 -0.96685978 0 0 Z " transform="translate(67,51)" style="fill: #03D8FF;"/><path d="M0 0 C4.03438972 3.45804833 5.78771567 7.25939073 8 12 C4.37 11.67 0.74 11.34 -3 11 C-2.53199289 6.94393835 -2.12046792 3.53411321 0 0 Z " transform="translate(36,68)" style="fill: #E8FAFF;"/><path d="M0 0 C-1.31860889 4.61513112 -3.21355437 8.09897612 -6 12 C-8.44839588 8.32740617 -10 5.45351799 -10 1 C-6.52674819 -0.1577506 -3.63932552 -0.06866652 0 0 Z " transform="translate(43,43)" style="fill: #F3FCFF;"/><path d="M0 0 C4.62 0 9.24 0 14 0 C11.66320139 3.83902629 10.13718891 6.20953589 6 8 C4.9970458 6.85675161 3.99770973 5.71032809 3 4.5625 C2.443125 3.92441406 1.88625 3.28632812 1.3125 2.62890625 C0 1 0 1 0 0 Z " transform="translate(55,86)" style="fill: #F4FDFF;"/><path d="M0 0 C0.66 0.33 1.32 0.66 2 1 C2.6328125 3.06640625 2.6328125 3.06640625 3.125 5.5625 C3.29257813 6.38878906 3.46015625 7.21507813 3.6328125 8.06640625 C3.75398438 8.70449219 3.87515625 9.34257813 4 10 C0.38026598 11.31626692 -2.09567131 12 -6 12 C-4.43358249 7.69235185 -2.31663844 3.93828536 0 0 Z " transform="translate(87,68)" style="fill: #E9FBFF;"/><path d="M0 0 C4.38635744 2.19317872 5.51256905 3.91350629 8 8 C3.38 8 -1.24 8 -6 8 C-4.02 5.36 -2.04 2.72 0 0 Z " transform="translate(61,28)" style="fill: #F3FCFF;"/><path d="M0 0 C3.3 0.33 6.6 0.66 10 1 C9.01 4.3 8.02 7.6 7 11 C4.0444623 8.24829249 1.88436685 5.58029701 0 2 C0 1.34 0 0.68 0 0 Z " transform="translate(81,43)" style="fill: #EEFCFF;"/></svg>