<svg id="svg" version="1.1" xmlns="http://www.w3.org/2000/svg" viewBox="0 0 1200 600" style="display: block;"><path d="M0 0 C396 0 792 0 1200 0 C1200 198 1200 396 1200 600 C804 600 408 600 0 600 C0 402 0 204 0 0 Z " transform="translate(0,0)" style="fill: #FEFEFE;"/><path d="M0 0 C4.08388994 3.57702007 8.05993256 7.26580996 12 11 C16.252667 7.32769696 18.69752631 2.7588224 21.4375 -2.0625 C21.92323486 -2.90852783 22.40896973 -3.75455566 22.90942383 -4.6262207 C26.30692991 -10.60946975 29.40511069 -16.62029976 32 -23 C34.56505042 -20.43494958 35.06330894 -18.21838981 36.171875 -14.76171875 C36.37482681 -14.1333461 36.57777863 -13.50497345 36.78688049 -12.8575592 C37.44798275 -10.80295909 38.09946324 -8.74546773 38.75 -6.6875 C39.2032763 -5.26657194 39.65664594 -3.84567366 40.11010742 -2.42480469 C43.63193213 8.65517321 46.94418675 19.78210256 50 31 C50.20931152 31.75506836 50.41862305 32.51013672 50.63427734 33.28808594 C56.98436191 56.22745756 61.82725089 79.4083298 65 103 C65.17724609 104.22630127 65.35449219 105.45260254 65.53710938 106.71606445 C66.12688853 111.49804717 66.16196964 116.24931256 66.16796875 121.0625 C66.17129715 122.01205566 66.17462555 122.96161133 66.17805481 123.93994141 C66.18309537 125.94351725 66.18546403 127.94710141 66.18530273 129.95068359 C66.1874736 132.96336331 66.20561713 135.97566689 66.22460938 138.98828125 C66.25732794 150.17606903 65.74790644 160.94225241 64 172 C63.87955322 172.84691406 63.75910645 173.69382812 63.63500977 174.56640625 C59.35155265 204.23094511 46.26630204 233.34900632 28 257 C27.02933594 258.30517578 27.02933594 258.30517578 26.0390625 259.63671875 C5.41957426 286.24645358 -21.37899787 304.74652765 -52 318 C-52.66338379 318.28858887 -53.32676758 318.57717773 -54.01025391 318.87451172 C-96.29667744 336.73548643 -147.66827359 334.90010815 -189.97802734 318.42382812 C-231.29063617 301.56404575 -231.29063617 301.56404575 -241 287 C-240.443125 287.04640625 -239.88625 287.0928125 -239.3125 287.140625 C-233.4085518 287.41986579 -228.71105208 286.78585675 -224 283 C-221.14952269 279.37065987 -219.78543835 275.53127337 -219.5 270.9375 C-220.11954806 266.05855902 -221.06475679 263.93940536 -224 260 C-228.51525044 256.58603016 -232.95650403 256.64742434 -238.4140625 256.6015625 C-241.4026088 257.06203338 -242.70176441 258.10320294 -245 260 C-245.66 260 -246.32 260 -247 260 C-247.309375 260.78375 -247.61875 261.5675 -247.9375 262.375 C-249 265 -249 265 -250 267 C-250.09555417 268.45579587 -250.12984691 269.9160796 -250.125 271.375 C-250.12757813 272.14585937 -250.13015625 272.91671875 -250.1328125 273.7109375 C-250.00389788 275.9328189 -249.61383717 277.86618508 -249 280 C-256.49138947 273.73169452 -263.13008786 267.25011466 -268.9375 259.375 C-269.45473633 258.67697266 -269.97197266 257.97894531 -270.50488281 257.25976562 C-281.85550353 241.76302521 -290.2782612 224.94497269 -297 207 C-297.31880127 206.17918945 -297.63760254 205.35837891 -297.96606445 204.51269531 C-300.4791728 197.88910887 -302.24673244 191.30550891 -303.6875 184.375 C-304.00557617 182.91707031 -304.00557617 182.91707031 -304.33007812 181.4296875 C-306.68532878 170.37412605 -307.18643135 159.72615421 -307.18530273 148.44677734 C-307.18747006 146.03334386 -307.2056202 143.62038309 -307.22460938 141.20703125 C-307.28205653 126.13023676 -305.9544711 111.70437561 -301.875 97.125 C-301.41540894 95.46102173 -301.41540894 95.46102173 -300.9465332 93.76342773 C-298.09752608 83.78218293 -294.49939312 74.34643921 -290 65 C-289.62504395 64.2157666 -289.25008789 63.4315332 -288.86376953 62.62353516 C-276.59631448 37.33755637 -259.0623798 15.40378965 -237 -2 C-236.06027344 -2.74507812 -235.12054688 -3.49015625 -234.15234375 -4.2578125 C-165.81182802 -57.05385022 -66.27355104 -56.03368566 0 0 Z " transform="translate(359,156)" style="fill: #68BE44;"/><path d="M0 0 C2 1 2 1 3.296875 4.48046875 C3.79047508 6.0466015 4.27408 7.61590432 4.75 9.1875 C5.01022949 10.03030518 5.27045898 10.87311035 5.53857422 11.74145508 C9.81804275 25.76860191 13.57229095 39.95200712 17.04296875 54.19921875 C17.81115077 57.24999877 18.63622606 60.26927449 19.48828125 63.296875 C30.22605019 102.51904692 34.13100623 151.91856451 21 191 C20.79004395 191.63518555 20.58008789 192.27037109 20.36376953 192.92480469 C12.40812006 216.64731503 -1.20478267 238.68233019 -23 252 C-23.55413574 252.34385742 -24.10827148 252.68771484 -24.67919922 253.04199219 C-43.02476915 264.21400548 -64.09447299 269.72923208 -85.35086346 271.7480154 C-87.06544943 271.911106 -88.77932405 272.0819387 -90.49220753 272.26203251 C-97.13949707 272.93080874 -103.69043067 273.12714095 -110.36791992 273.08178711 C-111.445979 273.07872055 -112.52403809 273.07565399 -113.63476562 273.07249451 C-115.95689339 273.06538672 -118.27901516 273.05602217 -120.60112572 273.04459953 C-124.29034705 273.02705906 -127.97952416 273.01686201 -131.66877747 273.00868225 C-142.1520302 272.98436565 -152.63522329 272.9488278 -163.1184082 272.90405273 C-169.55017519 272.87709384 -175.98190796 272.86016642 -182.41372108 272.84918404 C-184.84829281 272.84302446 -187.28285831 272.83308354 -189.71739769 272.81910515 C-202.64328977 272.74555623 -215.22413846 272.86939747 -228 275 C-224.36352326 272.1127033 -220.71188142 270.67779484 -216.33203125 269.2578125 C-215.57895187 269.00756317 -214.8258725 268.75731384 -214.04997253 268.4994812 C-212.451554 267.96991901 -210.8519344 267.4439703 -209.2512207 266.92138672 C-206.86338381 266.14161658 -204.47929747 265.351225 -202.09570312 264.55859375 C-193.80100872 261.8144187 -185.47576162 259.22571967 -177.08543396 256.79046631 C-151.79212031 249.42295977 -126.5645712 240.47546107 -105 225 C-104.3601416 224.54512207 -103.7202832 224.09024414 -103.06103516 223.62158203 C-94.81154565 217.71612351 -87.05516577 211.49307322 -79.6796875 204.52734375 C-77.23364241 202.22035953 -74.73171402 200.00977574 -72.1875 197.8125 C-68.06808259 194.14916095 -64.49416298 190.25851113 -61 186 C-60.56816406 185.48050781 -60.13632812 184.96101562 -59.69140625 184.42578125 C-40.217444 160.94092163 -22.69621882 133.44530746 -17 103 C-17.56654297 104.41925781 -17.56654297 104.41925781 -18.14453125 105.8671875 C-27.137875 127.73456443 -40.71459906 146.03251571 -57 163 C-57.53496094 163.56219238 -58.06992187 164.12438477 -58.62109375 164.70361328 C-66.31386905 172.7494923 -74.28404799 180.02307611 -83.21582031 186.66894531 C-85.02871915 188.0214254 -86.82325243 189.39593443 -88.6171875 190.7734375 C-118.0550486 213.14120656 -152.17651987 226.10508906 -187.6875 235.3125 C-188.58876617 235.54723022 -189.49003235 235.78196045 -190.41860962 236.02380371 C-202.85484453 239.25525879 -215.31816796 242.36633972 -227.8475647 245.21713257 C-229.39414537 245.5693314 -230.93988527 245.92524505 -232.48471069 246.2850647 C-234.62641435 246.78134133 -236.77120151 247.2605475 -238.91796875 247.734375 C-240.12219482 248.00475586 -241.3264209 248.27513672 -242.56713867 248.55371094 C-250.12978032 249.536892 -254.63688687 247.48170155 -260.51953125 243.05859375 C-273.56699803 232.23022368 -281.07803736 215.70236555 -283 199 C-283.27671783 192.33946627 -283.11015962 185.66320735 -283 179 C-282.99484375 178.04480469 -282.9896875 177.08960938 -282.984375 176.10546875 C-281.91587115 154.31562233 -267.78205246 131.80347439 -252.25 117.25 C-231.51155648 98.62253533 -204.87758641 89.76617816 -177.4453125 87.88671875 C-175.46302709 87.73939058 -173.48074298 87.59204268 -171.49853325 87.44369984 C-166.68395114 87.08498931 -161.8685489 86.73835199 -157.05224609 86.40356445 C-142.49875392 85.38601275 -128.08144777 84.10976115 -113.6953125 81.5703125 C-112.57818878 81.37439011 -111.46106506 81.17846771 -110.31008911 80.97660828 C-99.67647051 78.97601227 -89.83397658 75.46012769 -80 71 C-79.27393555 70.6709668 -78.54787109 70.34193359 -77.79980469 70.00292969 C-58.49754605 61.08530398 -41.47479933 49.59052508 -26 35 C-25.26394531 34.32839844 -24.52789062 33.65679687 -23.76953125 32.96484375 C-13.8867664 23.60682748 -6.00175397 12.18077494 0 0 Z " transform="translate(389,153)" style="fill: #FEFEFE;"/><path d="M0 0 C5.40203186 4.18513579 9.9792911 8.85374385 14.25390625 14.17578125 C14.31707031 13.33015625 14.38023438 12.48453125 14.4453125 11.61328125 C15.32007378 3.51022939 16.92015722 -1.50625966 23.25390625 -6.82421875 C27.18152221 -8.78802673 31.96215584 -8.16058235 36.25390625 -7.82421875 C40.61721313 -6.1168378 43.97545064 -2.93134537 46.25390625 1.17578125 C46.97732504 4.84935083 46.91714414 8.45713741 46.86914062 12.19140625 C46.87468964 13.29145493 46.88023865 14.3915036 46.88595581 15.52488708 C46.89775758 19.15896288 46.87345704 22.79179265 46.84765625 26.42578125 C46.84594427 28.96199487 46.84601172 31.49821025 46.84777832 34.03442383 C46.84612439 39.35402677 46.82800813 44.67319823 46.79589844 49.99267578 C46.75915894 56.10813527 46.75020249 62.22312673 46.75719595 68.33868217 C46.76354875 74.25257468 46.75243299 80.16633048 46.73323059 86.0802002 C46.72624156 88.58059925 46.72307104 91.08101222 46.72392273 93.5814209 C46.71224083 116.1664273 45.38119992 137.66901456 29.25390625 155.17578125 C9.27463796 173.20804438 -17.81242525 173.17821741 -43.12548828 172.07177734 C-56.2344152 171.16304155 -76.81569203 165.93745102 -86.3984375 156.55859375 C-88.99660652 152.76194272 -89.36064507 148.80111545 -88.60546875 144.3984375 C-86.90285079 139.99484831 -83.81392078 137.41723696 -79.74609375 135.17578125 C-74.17393021 133.48349454 -69.98878197 135.35717455 -64.99609375 137.92578125 C-63.98675781 138.47105469 -62.97742187 139.01632812 -61.9375 139.578125 C-46.45048562 147.33111017 -26.30679846 148.75989805 -9.61328125 144.21484375 C0.07074958 140.70537209 6.99697121 135.09971934 11.56640625 125.86328125 C13.55789444 121.07048809 14.03882983 116.32686145 14.25390625 111.17578125 C13.85300781 111.67207031 13.45210937 112.16835938 13.0390625 112.6796875 C3.7490497 123.78135812 -8.02788497 131.74373931 -22.74609375 133.17578125 C-41.15095258 134.26126361 -56.8005522 131.30130179 -71.12109375 118.73828125 C-72.68108699 117.23625222 -74.2242646 115.71646492 -75.74609375 114.17578125 C-76.38160156 113.5621875 -77.01710938 112.94859375 -77.671875 112.31640625 C-93.1119126 96.29437167 -94.39777589 74.62544082 -94.09375 53.6328125 C-93.83600058 44.99335391 -92.30093751 38.05142958 -88.74609375 30.17578125 C-88.36195313 29.24507813 -87.9778125 28.314375 -87.58203125 27.35546875 C-80.92393104 12.54459278 -68.04553429 0.87664619 -53.1875 -5.3046875 C-35.61721632 -11.78576603 -15.85636436 -10.53331744 0 0 Z " transform="translate(1101.74609375,243.82421875)" style="fill: #69BE44;"/><path d="M0 0 C5.35755096 1.92063148 8.45837216 4.91674432 11 10 C11.23029956 12.37123246 11.41119942 14.74741943 11.5625 17.125 C11.68818359 19.04699219 11.68818359 19.04699219 11.81640625 21.0078125 C11.87699219 21.99523437 11.93757812 22.98265625 12 24 C12.44988281 23.3709375 12.89976562 22.741875 13.36328125 22.09375 C21.44358356 11.34160424 32.59430178 2.84299004 46 0 C58.29218017 -0.92226334 70.61343441 -1.13391584 82 4 C83.60681641 4.69416016 83.60681641 4.69416016 85.24609375 5.40234375 C100.52815793 12.76437467 111.20379108 25.88672843 117.375 41.5625 C123.89188004 61.80519818 123.7284433 86.98055123 114.375 106.25 C106.19723343 122.00333842 94.04086708 133.44319552 77 139 C60.58805527 144.07988765 45.64905294 143.0345512 30.3125 135.3125 C23.6311777 131.47220918 17.297074 126.445611 13 120 C12.99635437 120.58358276 12.99270874 121.16716553 12.98895264 121.76843262 C12.94698643 127.86880636 12.87754263 133.96843761 12.79248047 140.06835938 C12.7643384 142.34172116 12.74309039 144.61517955 12.72900391 146.88867188 C12.70748118 150.1658653 12.66078115 153.44190531 12.609375 156.71875 C12.60753204 158.23172668 12.60753204 158.23172668 12.60565186 159.77526855 C12.4644782 166.65110356 11.39790194 172.43013918 6.51776123 177.55725098 C3.10039529 180.54208406 0.35275927 181.8106137 -4.125 182.4375 C-9.40677227 181.84117087 -13.14137665 179.63428478 -17 176 C-19.61098805 171.6006947 -20.37700853 168.37350998 -20.38768005 163.28259277 C-20.39306559 162.63241479 -20.39845113 161.98223681 -20.40399987 161.31235647 C-20.41823518 159.14749467 -20.41118718 156.98324816 -20.40405273 154.81835938 C-20.40975859 153.26072195 -20.41672369 151.70308871 -20.42485046 150.14546204 C-20.44277176 145.92441425 -20.44161564 141.70357446 -20.43590808 137.48250008 C-20.4328152 133.95606858 -20.43890967 130.42967698 -20.44494683 126.90325117 C-20.45898661 118.58374168 -20.45743489 110.26433489 -20.44604492 101.94482422 C-20.43455966 93.36620225 -20.44864739 84.78789276 -20.4754414 76.20931196 C-20.49760007 68.8384352 -20.50423554 61.46765653 -20.49836498 54.09674883 C-20.49499515 49.69680324 -20.49741241 45.29705803 -20.51461601 40.8971405 C-20.53008618 36.76017166 -20.52612911 32.62366587 -20.50731087 28.48671532 C-20.50362538 26.97020239 -20.50673236 25.45365514 -20.51719666 23.93717384 C-20.53041213 21.86338592 -20.51885723 19.79112986 -20.50120544 17.71740723 C-20.50099616 16.55821022 -20.50078688 15.39901321 -20.50057125 14.20468903 C-19.70623551 9.11930102 -17.1705267 6.03117829 -13.375 2.6875 C-8.92736762 -0.47265985 -5.35030382 -0.49623391 0 0 Z " transform="translate(599,236)" style="fill: #69BE45;"/><path d="M0 0 C4.98669007 2.49334503 8.49675474 5.99350949 11 11 C11.22467831 12.53668865 11.40796805 14.07968054 11.5625 15.625 C11.64628906 16.44226563 11.73007812 17.25953125 11.81640625 18.1015625 C11.87699219 18.72804687 11.93757812 19.35453125 12 20 C12.44988281 19.43152344 12.89976562 18.86304688 13.36328125 18.27734375 C21.78814155 8.16413469 32.68971103 1.04079148 46.07470703 -0.19091797 C61.77099689 -1.03851059 75.46457269 1.44621665 87.875 11.75 C97.46371373 20.92256702 101.99881851 33.10842343 102.45587826 46.20679474 C102.53712982 50.87829068 102.52533774 55.54681852 102.49609375 60.21875 C102.49624901 62.25085502 102.49774241 64.28296033 102.50050354 66.31506348 C102.50187984 70.54774259 102.48945028 74.78007963 102.46655273 79.01269531 C102.43802447 84.43429306 102.44095512 89.85532964 102.45364285 95.27696991 C102.46059508 99.46171869 102.45281833 103.64633773 102.44038582 107.83106995 C102.43587714 109.83093265 102.43552941 111.83080928 102.43945122 113.83067322 C102.44236265 116.61852694 102.42586483 119.40560389 102.40405273 122.19335938 C102.40855438 123.01522736 102.41305603 123.83709534 102.41769409 124.68386841 C102.35784939 129.2890807 101.94026129 132.24090016 99 136 C93.79663304 140.56881001 90.66929537 141.41543822 83.83203125 141.34375 C79.60449737 140.83061485 76.76116842 139.22636528 74 136 C71.22903691 131.33459855 70.62372284 127.89972335 70.61523438 122.50097656 C70.6098616 121.77489197 70.60448883 121.04880737 70.59895325 120.30072021 C70.58921223 118.73263448 70.58621993 117.16449508 70.58930969 115.59638214 C70.59381237 113.10613101 70.57971709 110.61658141 70.56091309 108.12640381 C70.52421898 102.8342805 70.51044614 97.54223172 70.5 92.25 C70.48787849 86.12682566 70.46609646 80.00399469 70.41999817 73.88097382 C70.40653728 71.44266348 70.41057948 69.00479949 70.41540527 66.56646729 C70.37341822 54.8577282 69.2726105 43.97967123 61 35 C53.75194634 28.98804851 44.91044666 29.02196513 35.95019531 29.76074219 C28.78135737 30.64024409 23.30872314 33.70342562 18.46875 39 C13.47927124 45.79418385 11.88415215 52.85622069 11.84228516 61.13598633 C11.83720444 61.84709061 11.83212372 62.55819489 11.82688904 63.29084778 C11.81620881 64.83170666 11.80757947 66.37258083 11.80076981 67.91346169 C11.78894481 70.35634482 11.76948242 72.79905401 11.74765015 75.24186707 C11.68615803 82.18633194 11.63203845 89.13077809 11.59863281 96.07543945 C11.57763301 100.32717532 11.54228833 104.57859198 11.49787521 108.83014488 C11.48375813 110.44594238 11.4750025 112.06179633 11.47182083 113.67765236 C11.46688605 115.94404906 11.44366387 118.20960552 11.41650391 120.47583008 C11.40841705 121.76282303 11.4003302 123.04981598 11.39199829 124.37580872 C10.88460225 129.06690142 9.64343341 133.09122057 6.5 136.7421875 C1.45486786 140.55231333 -2.69243342 141.81163541 -9 141 C-13.94900678 139.34367918 -16.57167879 136.82795755 -19.13175774 132.22215271 C-20.87945769 127.74914288 -20.56193481 123.04118819 -20.53344727 118.30078125 C-20.54206284 117.14057465 -20.55067841 115.98036804 -20.55955505 114.78500366 C-20.58220593 110.96060705 -20.57547758 107.13694364 -20.56640625 103.3125 C-20.57031801 101.32237166 -20.57424097 99.33224294 -20.57970566 97.34211826 C-20.59667401 91.09030014 -20.59316938 84.8387263 -20.57641602 78.58691406 C-20.55948967 72.15022676 -20.57534232 65.7142174 -20.6076389 59.2776041 C-20.63437698 53.73764582 -20.64159977 48.19789804 -20.63312382 42.65788174 C-20.62820766 39.35496557 -20.63245445 36.05254591 -20.65091133 32.74966431 C-20.66834326 29.06568052 -20.65382327 25.38314446 -20.63110352 21.69921875 C-20.64279572 20.61329437 -20.65448792 19.52737 -20.66653442 18.40853882 C-20.5810158 11.58807949 -19.59086811 8.1080909 -15 3 C-10.64502254 -0.85726575 -5.54353606 -0.80083185 0 0 Z " transform="translate(893,236)" style="fill: #68BE44;"/><path d="M0 0 C3.59069694 2.60430783 5.54279958 4.86015215 6.4765625 9.23046875 C6.81633116 14.5684132 5.52314713 17.87288479 2 22 C-2.55221687 25.03481125 -6.66530227 24.77056745 -12 24 C-15.39148999 22.69842333 -18.57531538 21.15010751 -21.828125 19.53515625 C-29.34708321 15.89605456 -36.475632 14.72470756 -44.75 14.5625 C-45.81395996 14.52890381 -45.81395996 14.52890381 -46.89941406 14.49462891 C-53.10160018 14.52222646 -57.35018634 16.52114206 -61.9375 20.8125 C-63.50389384 24.0374285 -63.37239163 26.46227952 -63 30 C-58.95270151 38.14239664 -50.69711022 40.96451216 -42.48046875 43.74609375 C-39.03027621 44.89270423 -35.56725576 45.99773013 -32.10327148 47.10180664 C-16.35700802 52.15655184 -1.73879147 57.80493785 6.8359375 72.73046875 C11.02368916 80.89517921 10.12684443 92.88247726 8.19921875 101.63671875 C4.37044645 111.70204798 -3.2145219 120.38054908 -13 125 C-32.25731047 133.1934143 -55.19135327 131.70719466 -74.6875 124.8125 C-83.2107221 121.28857754 -94.45099813 116.42407753 -99 108 C-99.86314141 103.052921 -99.81052733 99.34156248 -97.1875 95 C-93.14975343 91.30834599 -90.54294343 90.27744673 -85.19921875 90.34765625 C-80.89205055 91.22591887 -77.50239019 93.1182743 -73.6875 95.25 C-62.790452 101.30681406 -53.62026013 104.30700455 -41.0625 104.4375 C-40.16176758 104.44789307 -39.26103516 104.45828613 -38.33300781 104.46899414 C-33.15785062 104.39881103 -29.46112458 103.89557465 -25 101 C-21.93043296 97.59858788 -20.15272995 95.32365956 -19.625 90.75 C-20.00030587 86.9969413 -20.62346219 85.12372558 -23.2277832 82.38867188 C-31.81462595 75.66020217 -44.38198312 73.13238299 -54.67529297 69.953125 C-67.40763868 66.00101408 -81.01892544 60.8952946 -88.27734375 48.88671875 C-91.52168068 42.57123014 -92.23595151 37.40725443 -92.3125 30.375 C-92.35600586 29.07755859 -92.35600586 29.07755859 -92.40039062 27.75390625 C-92.50620143 16.89608957 -87.52267408 8.83825546 -80.22265625 1.12109375 C-58.99637139 -18.97659519 -23.39801736 -12.85396308 0 0 Z " transform="translate(558,247)" style="fill: #69BE44;"/><path d="M0 0 C4.89512427 1.69446609 8.43667291 4.47306763 11 9 C11.93619882 11.96867191 12.54194451 14.92350792 13 18 C13.40089844 17.49210937 13.80179688 16.98421875 14.21484375 16.4609375 C21.30219134 7.87897919 30.74692102 0.92860181 42.08984375 -0.34765625 C47.7167891 -0.50763121 52.29757537 -0.40925786 57 3 C61.12929807 7.46410602 62.30850092 10.82712452 62.21875 16.94140625 C61.67384274 22.06937279 58.84444835 25.78994907 55 29 C52.43802035 29.92186023 49.9944657 30.68405783 47.375 31.375 C35.24873295 34.90772007 26.06610805 40.45335971 19.46484375 51.58984375 C13.5704629 63.01772499 12.86862301 73.38519118 12.82421875 86.0390625 C12.80103745 88.58334176 12.77692083 91.12761264 12.75195312 93.671875 C12.71675639 97.65919686 12.68573966 101.6463354 12.67407227 105.63378906 C12.65861563 109.49842395 12.61844359 113.36216383 12.57421875 117.2265625 C12.57612717 118.41730377 12.57803558 119.60804504 12.58000183 120.83486938 C12.48622688 127.17474338 12.33085362 131.21669885 8 136 C3.06312025 140.45523295 -0.9028999 141.47681343 -7.42578125 141.41015625 C-11.73702733 140.7232354 -14.37319848 138.38627464 -17 135 C-20.66073958 129.36501869 -20.43158275 124.18114627 -20.40405273 117.68969727 C-20.41091599 116.5588974 -20.41777924 115.42809753 -20.42485046 114.26303101 C-20.4431291 110.53069448 -20.43927927 106.79877787 -20.43359375 103.06640625 C-20.43815497 100.46858076 -20.44346037 97.87075648 -20.44947815 95.27293396 C-20.45841135 89.8299308 -20.45621789 84.38708844 -20.44604492 78.9440918 C-20.43456586 72.66372511 -20.44863928 66.38378556 -20.4754414 60.10347515 C-20.50031264 54.04753138 -20.50276921 47.99180658 -20.49632454 41.93580437 C-20.49617123 39.36540962 -20.50222354 36.79500668 -20.51461601 34.2246418 C-20.52950792 30.62933789 -20.5188607 27.034972 -20.50170898 23.43969727 C-20.51137695 22.38025406 -20.52104492 21.32081085 -20.53100586 20.22926331 C-20.46813933 13.92986294 -19.73145444 10.13247516 -16 5 C-10.66572345 0.17374979 -7.03926992 -0.64209557 0 0 Z " transform="translate(752,236)" style="fill: #6ABF46;"/><path d="M0 0 C8.5283879 6.86965557 14.2653718 15.99961193 15.74609375 26.92578125 C16.9568356 41.58507109 15.72819647 53.54751557 6.77734375 65.9375 C-0.67443785 74.58484216 -9.3985784 79.2390652 -20.74609375 80.375 C-33.20898046 80.77662374 -42.36398604 77.30368124 -51.5625 68.875 C-61.10071167 59.06245923 -63.36193651 45.57336392 -63.2109375 32.40625 C-62.43470069 19.87146293 -57.43612127 9.47033357 -48.3515625 0.82421875 C-33.32085854 -10.8358124 -15.49945997 -10.73470736 0 0 Z " transform="translate(1102,270)" style="fill: #FDFEFD;"/><path d="M0 0 C9.40595044 6.51910974 15.7968553 15.8000242 18.4375 27 C20.46419548 40.91664229 18.83365541 55.0536755 11 67 C4.69630904 74.95586803 -2.50602368 78.83534123 -12 82 C-25.71124515 83.26080415 -35.13811602 81.65353669 -46.4296875 73.17578125 C-54.24864008 66.13872393 -59.79864023 54.78330727 -60.37109375 44.27734375 C-60.69438969 30.27221599 -59.3662631 19.09014771 -49.94140625 7.99609375 C-36.51739439 -5.80605929 -17.08591883 -10.46327882 0 0 Z " transform="translate(670,268)" style="fill: #FEFEFD;"/><path d="M0 0 C5.67476113 1.96434039 9.31400331 5.62800662 12 11 C12.09871684 12.54261287 12.13504418 14.08941878 12.14044189 15.63517761 C12.14900711 17.10081146 12.14900711 17.10081146 12.15774536 18.59605408 C12.15886322 19.67190262 12.15998108 20.74775116 12.16113281 21.85620117 C12.16609772 22.98641693 12.17106262 24.11663269 12.17617798 25.28109741 C12.19083016 29.03506064 12.19760744 32.78898158 12.203125 36.54296875 C12.20887486 39.14650982 12.21463261 41.75005088 12.22039795 44.35359192 C12.22997404 49.1210222 12.23586758 53.88844334 12.2388947 58.65588206 C12.24336982 65.66504986 12.2608901 72.67402209 12.2898953 79.68313044 C12.31415957 85.75824558 12.32184122 91.83328032 12.32357025 97.90844154 C12.32659723 100.49000423 12.33462722 103.07156608 12.34775543 105.65309715 C12.36482236 109.26782365 12.3629335 112.88207565 12.35644531 116.49682617 C12.3656601 117.56255356 12.37487488 118.62828094 12.3843689 119.7263031 C12.34780956 126.2330715 11.91852871 131.61025051 7.5 136.7421875 C3.07384281 140.08485829 -0.18240945 141.42673565 -5.8046875 141.34375 C-9.80311134 140.71766228 -13.09157876 138.77299586 -16 136 C-19.75824859 130.35645775 -19.43101802 124.93417107 -19.40405273 118.3984375 C-19.41091599 117.23677063 -19.41777924 116.07510376 -19.42485046 114.87823486 C-19.44313094 111.04369843 -19.43927933 107.2095706 -19.43359375 103.375 C-19.43700161 101.38184479 -19.44041726 99.38868939 -19.44494683 97.39553642 C-19.45897493 91.1327866 -19.45744463 84.87017324 -19.44604492 78.60742188 C-19.4345601 72.15549244 -19.44864895 65.70397851 -19.4754414 59.25210381 C-19.49761909 53.7028607 -19.50423131 48.15374784 -19.49836498 42.60446358 C-19.4949997 39.29435858 -19.49909642 35.98457851 -19.51461601 32.67449951 C-19.52948582 28.98320547 -19.51887729 25.29282778 -19.50170898 21.6015625 C-19.51137695 20.5104718 -19.52104492 19.4193811 -19.53100586 18.29522705 C-19.47163911 12.20242953 -19.08139602 8.62910901 -15 4 C-10.20662513 -0.2360057 -6.14861504 -0.89575147 0 0 Z " transform="translate(845,236)" style="fill: #68BE44;"/><path d="M0 0 C3.67826551 3.16501916 6.28045632 5.76224671 7.0703125 10.7109375 C7.32727086 16.41541306 6.5724647 19.90254007 2.6875 24.3125 C-1.94459336 28.39315367 -4.76288769 29.73491435 -10.859375 29.65625 C-16.27509087 28.89735988 -20.06366667 25.95159375 -23.3125 21.6875 C-24.76959962 16.76978877 -25.32304902 12.37957912 -24.3125 7.3125 C-21.93406918 3.18855413 -18.89032917 0.35054551 -14.9375 -2.25 C-9.49775718 -3.1566238 -4.91043564 -2.50154268 0 0 Z " transform="translate(850.3125,184.6875)" style="fill: #6BBF46;"/><path d="M0 0 C1.56393356 3.97376829 0.36145292 6.81377903 -0.9375 10.75 C-1.31777344 11.92046875 -1.69804687 13.0909375 -2.08984375 14.296875 C-2.39019531 15.18890625 -2.69054687 16.0809375 -3 17 C-3.99 16.67 -4.98 16.34 -6 16 C-4.25192871 10.53262809 -2.34205919 5.24175152 0 0 Z " transform="translate(372,254)" style="fill: #80C862;"/></svg>