<?xml version="1.0" standalone="no"?>
<!DOCTYPE svg PUBLIC "-//W3C//DTD SVG 20010904//EN"
 "http://www.w3.org/TR/2001/REC-SVG-20010904/DTD/svg10.dtd">
<svg version="1.0" xmlns="http://www.w3.org/2000/svg"
 width="512.000000pt" height="512.000000pt" viewBox="0 0 512.000000 512.000000"
 preserveAspectRatio="xMidYMid meet">
<metadata>
Created by potrace 1.16, written by Peter Selinger 2001-2019
</metadata>
<g transform="translate(0.000000,512.000000) scale(0.100000,-0.100000)"
fill="#000000" stroke="none">
<path d="M2330 5108 c-320 -53 -569 -162 -807 -355 -298 -241 -500 -573 -585
-963 -20 -93 -23 -132 -22 -335 0 -216 2 -237 28 -350 49 -210 136 -413 254
-588 103 -152 493 -769 489 -773 -2 -2 -60 -15 -128 -28 -182 -36 -248 -52
-412 -102 -401 -122 -666 -287 -779 -484 -47 -83 -61 -143 -56 -249 3 -85 8
-105 39 -171 74 -155 208 -273 434 -385 337 -166 804 -274 1360 -315 180 -13
652 -13 826 0 868 66 1520 293 1746 609 67 92 93 174 93 285 0 137 -48 243
-161 356 -199 199 -575 357 -1088 456 -68 13 -126 26 -128 28 -2 2 121 199
273 437 153 239 299 475 325 524 62 119 111 253 145 400 26 113 28 134 28 350
1 203 -2 242 -22 335 -152 697 -682 1204 -1374 1314 -108 18 -385 20 -478 4z
m447 -313 c542 -88 982 -514 1100 -1065 22 -106 25 -430 4 -525 -26 -117 -82
-271 -134 -367 -52 -98 -1178 -1867 -1187 -1867 -3 0 -225 347 -495 771 -269
423 -530 832 -578 906 -198 305 -267 514 -267 817 0 472 238 897 645 1153 125
78 321 151 475 177 105 18 327 18 437 0z m-612 -3789 c155 -243 293 -449 308
-460 40 -29 134 -29 174 0 15 11 152 214 305 455 153 239 284 438 291 443 18
12 289 -33 473 -79 339 -83 598 -205 722 -339 76 -82 83 -147 25 -222 -42 -56
-58 -71 -133 -123 -257 -179 -784 -318 -1365 -361 -180 -13 -630 -13 -810 0
-726 53 -1331 250 -1502 488 -54 74 -45 138 29 218 157 170 518 313 1003 398
77 14 153 24 170 23 27 -2 49 -33 310 -441z"/>
<path d="M2370 4190 c-41 -11 -113 -39 -160 -62 -69 -34 -103 -60 -180 -138
-78 -77 -104 -111 -138 -180 -59 -118 -82 -218 -82 -350 0 -132 23 -232 82
-350 34 -69 60 -103 138 -180 77 -78 111 -104 180 -138 118 -59 218 -82 350
-82 132 0 232 23 350 82 69 34 103 60 180 138 78 77 104 111 138 180 59 118
82 218 82 350 0 132 -23 232 -82 350 -34 69 -60 103 -138 180 -77 78 -111 104
-180 138 -47 23 -121 51 -164 62 -106 27 -272 26 -376 0z m353 -319 c108 -43
205 -139 249 -249 33 -82 33 -242 0 -325 -44 -109 -140 -205 -250 -249 -82
-33 -242 -33 -324 0 -110 44 -206 141 -249 249 -31 79 -37 212 -14 285 49 147
137 241 277 294 84 32 223 30 311 -5z"/>
</g>
</svg>
