<?xml version="1.0" standalone="no"?>
<!DOCTYPE svg PUBLIC "-//W3C//DTD SVG 20010904//EN"
 "http://www.w3.org/TR/2001/REC-SVG-20010904/DTD/svg10.dtd">
<svg version="1.0" xmlns="http://www.w3.org/2000/svg"
 width="512.000000pt" height="512.000000pt" viewBox="0 0 512.000000 512.000000"
 preserveAspectRatio="xMidYMid meet">
<metadata>
Created by potrace 1.16, written by Peter Selinger 2001-2019
</metadata>
<g transform="translate(0.000000,512.000000) scale(0.100000,-0.100000)"
fill="#000000" stroke="none">
<path d="M1368 5097 c-124 -43 -231 -135 -289 -249 -45 -89 -59 -158 -59 -290
l0 -118 -285 0 c-169 0 -306 -4 -337 -11 -173 -36 -325 -176 -378 -347 -20
-63 -20 -97 -20 -1861 0 -1969 -4 -1835 57 -1956 35 -68 132 -167 201 -203
127 -67 -56 -62 2302 -62 2358 0 2175 -5 2302 62 69 36 166 135 201 203 61
121 57 -13 57 1956 0 1764 0 1798 -20 1861 -53 171 -205 311 -378 347 -31 7
-168 11 -337 11 l-285 0 0 118 c0 175 -38 290 -129 394 -98 111 -230 168 -386
168 -154 0 -284 -55 -381 -161 -99 -109 -134 -212 -134 -396 l0 -123 -510 0
-510 0 0 123 c0 138 -18 223 -65 303 -64 109 -175 198 -293 234 -93 29 -234
27 -324 -3z m252 -349 c66 -45 75 -67 78 -194 l4 -114 -166 0 -166 0 0 98 c1
132 31 195 110 225 38 14 108 6 140 -15z m2059 -8 c52 -37 71 -89 71 -202 l0
-98 -166 0 -166 0 4 114 c3 127 12 149 79 194 45 31 129 28 178 -8z m-2659
-753 c0 -89 3 -110 23 -147 54 -103 198 -120 279 -34 40 43 48 75 48 185 l0
99 850 0 850 0 0 -107 c0 -93 3 -114 23 -148 51 -91 188 -113 266 -42 45 41
61 93 61 200 l0 97 623 -2 624 -3 37 -29 c63 -48 66 -63 66 -366 l0 -270
-2210 0 -2210 0 0 275 c0 289 2 307 46 347 52 46 65 48 352 48 l272 0 0 -103z
m3750 -2221 l0 -1303 -23 -34 c-12 -18 -38 -44 -56 -56 l-34 -23 -2097 0
-2097 0 -34 23 c-18 12 -44 38 -56 56 l-23 34 0 1303 0 1304 2210 0 2210 0 0
-1304z"/>
<path d="M1321 2730 c-102 -24 -162 -150 -115 -243 36 -70 83 -100 159 -100
62 0 105 21 142 70 24 31 28 46 28 103 0 57 -4 72 -28 103 -44 58 -115 84
-186 67z"/>
<path d="M2514 2728 c-127 -28 -171 -197 -77 -292 94 -93 264 -47 291 80 20
92 -34 194 -112 209 -17 4 -38 8 -46 10 -8 1 -34 -1 -56 -7z"/>
<path d="M3715 2731 c-47 -12 -72 -28 -102 -68 -24 -31 -28 -46 -28 -103 0
-57 4 -72 28 -103 37 -49 80 -70 142 -70 76 0 123 30 159 100 39 77 2 189 -74
228 -35 17 -89 24 -125 16z"/>
<path d="M1276 1857 c-47 -27 -86 -94 -86 -149 0 -155 191 -236 297 -126 58
60 69 133 31 208 -43 85 -156 116 -242 67z"/>
<path d="M2490 1869 c-96 -39 -135 -171 -76 -260 94 -142 319 -76 319 94 0 78
-40 141 -106 166 -35 13 -103 13 -137 0z"/>
<path d="M3665 1857 c-103 -58 -114 -203 -22 -284 111 -97 287 -15 287 135 0
55 -39 122 -86 149 -53 30 -125 30 -179 0z"/>
<path d="M1306 1020 c-16 -5 -42 -22 -59 -37 -117 -110 -42 -303 118 -303 159
0 235 193 119 302 -49 46 -109 58 -178 38z"/>
<path d="M2480 1008 c-52 -27 -78 -60 -90 -114 -16 -71 12 -142 74 -188 39
-30 153 -30 192 0 83 61 104 175 47 253 -25 35 -99 71 -143 71 -20 0 -56 -10
-80 -22z"/>
<path d="M3685 1016 c-172 -77 -118 -336 70 -336 122 0 207 123 164 237 -33
89 -148 137 -234 99z"/>
</g>
</svg>
