<?xml version="1.0" standalone="no"?>
<!DOCTYPE svg PUBLIC "-//W3C//DTD SVG 20010904//EN"
 "http://www.w3.org/TR/2001/REC-SVG-20010904/DTD/svg10.dtd">
<svg version="1.0" xmlns="http://www.w3.org/2000/svg"
 width="512.000000pt" height="512.000000pt" viewBox="0 0 512.000000 512.000000"
 preserveAspectRatio="xMidYMid meet">
<metadata>
Created by potrace 1.16, written by Peter Selinger 2001-2019
</metadata>
<g transform="translate(0.000000,512.000000) scale(0.100000,-0.100000)"
fill="#000000" stroke="none">
<path d="M2474 4646 l-34 -34 0 -513 -1 -514 -495 -380 c-273 -209 -507 -393
-520 -408 -24 -28 -24 -31 -24 -233 l0 -204 -646 0 -646 0 -34 -34 -34 -34 0
-1092 0 -1092 34 -34 34 -34 2452 0 2452 0 34 34 34 34 0 1092 0 1092 -34 34
-34 34 -646 0 -646 0 0 204 c0 201 0 205 -24 233 -13 15 -247 199 -519 408
l-496 380 -1 108 0 107 286 0 286 0 34 34 34 34 0 292 0 292 -34 34 -34 34
-286 0 -286 0 0 46 c0 39 -5 51 -34 80 -30 30 -40 34 -86 34 -46 0 -56 -4 -86
-34z m606 -486 l0 -120 -200 0 -200 0 0 120 0 120 200 0 200 0 0 -120z m-56
-1155 l455 -350 1 -1187 0 -1188 -240 0 -240 0 0 446 0 446 -34 34 -34 34
-372 0 -372 0 -34 -34 -34 -34 0 -446 0 -446 -240 0 -240 0 0 1188 1 1187 457
352 c251 193 460 351 464 350 3 -1 211 -159 462 -352z m-1624 -1165 l0 -280
-560 0 -560 0 0 280 0 280 560 0 560 0 0 -280z m3440 0 l0 -280 -560 0 -560 0
0 280 0 280 560 0 560 0 0 -280z m-3440 -1040 l0 -520 -560 0 -560 0 0 520 0
520 560 0 560 0 0 -520z m3440 0 l0 -520 -560 0 -560 0 0 520 0 520 560 0 560
0 0 -520z m-2080 -160 l0 -360 -200 0 -200 0 0 360 0 360 200 0 200 0 0 -360z"/>
<path d="M2404 2896 c-178 -66 -284 -221 -284 -416 0 -254 184 -440 434 -440
199 0 357 107 422 286 31 84 33 214 5 296 -46 135 -144 233 -279 279 -80 28
-217 25 -298 -5z m252 -251 c130 -76 125 -268 -8 -336 -162 -83 -342 97 -259
259 50 98 172 133 267 77z"/>
</g>
</svg>
