<?xml version="1.0" standalone="no"?>
<!DOCTYPE svg PUBLIC "-//W3C//DTD SVG 20010904//EN"
 "http://www.w3.org/TR/2001/REC-SVG-20010904/DTD/svg10.dtd">
<svg version="1.0" xmlns="http://www.w3.org/2000/svg"
 width="512.000000pt" height="512.000000pt" viewBox="0 0 512.000000 512.000000"
 preserveAspectRatio="xMidYMid meet">
<metadata>
Created by potrace 1.16, written by Peter Selinger 2001-2019
</metadata>
<g transform="translate(0.000000,512.000000) scale(0.100000,-0.100000)"
fill="#000000" stroke="none">
<path d="M893 4825 c-339 -61 -633 -287 -784 -600 -80 -166 -101 -251 -106
-447 l-6 -167 31 -31 c40 -39 97 -42 139 -6 28 24 28 25 30 154 4 277 96 490
291 673 127 119 275 195 437 224 118 22 143 32 160 66 27 52 11 110 -36 135
-33 17 -60 17 -156 -1z"/>
<path d="M2735 4811 c-59 -10 -1772 -700 -1824 -736 -25 -16 -59 -52 -76 -79
-28 -46 -30 -57 -30 -140 l0 -91 666 -1655 c720 -1789 686 -1712 782 -1762 29
-14 66 -23 117 -25 l75 -4 885 356 c487 195 902 367 923 381 80 53 129 177
108 274 -11 50 -1292 3253 -1337 3341 -50 101 -171 159 -289 140z m23 -518
c24 -21 1032 -2528 1032 -2566 0 -13 -8 -31 -18 -41 -30 -26 -1429 -585 -1451
-579 -11 3 -27 13 -35 22 -20 22 -1026 2528 -1026 2556 0 12 9 30 20 40 22 20
1413 584 1441 585 9 0 26 -8 37 -17z m541 -3161 c95 -70 95 -206 1 -268 -76
-50 -153 -41 -214 26 -56 62 -60 141 -11 207 56 72 154 87 224 35z"/>
<path d="M988 4460 c-273 -48 -494 -245 -578 -515 -27 -88 -39 -269 -20 -315
22 -53 85 -74 139 -46 38 20 51 55 51 143 0 261 188 488 444 534 93 17 126 45
126 104 0 82 -55 114 -162 95z"/>
<path d="M4929 1661 c-32 -33 -36 -62 -18 -152 15 -80 13 -253 -5 -338 -70
-322 -314 -588 -625 -681 -85 -25 -116 -55 -115 -113 1 -33 8 -47 33 -69 39
-35 58 -35 163 -2 279 88 515 291 648 559 76 155 101 259 107 445 7 201 -11
311 -57 353 -42 38 -92 37 -131 -2z"/>
<path d="M4564 1595 c-36 -24 -47 -67 -35 -125 37 -170 -22 -361 -150 -489
-58 -58 -166 -123 -227 -136 -18 -4 -46 -18 -62 -32 -26 -21 -30 -32 -30 -73
0 -42 4 -52 31 -74 37 -31 67 -32 142 -7 254 88 438 295 491 553 31 149 15
321 -35 370 -31 32 -90 38 -125 13z"/>
</g>
</svg>
