<svg id="svg" version="1.1" xmlns="http://www.w3.org/2000/svg" viewBox="0 0 612 459" style="display: block;"><path d="M0 0 C201.96 0 403.92 0 612 0 C612 151.47 612 302.94 612 459 C410.04 459 208.08 459 0 459 C0 307.53 0 156.06 0 0 Z " transform="translate(0,0)" style="fill: #F1F1F1;"/><path d="M0 0 C1.47781081 -0.00782324 1.47781081 -0.00782324 2.98547637 -0.01580453 C4.07057467 -0.01134309 5.15567297 -0.00688164 6.27365303 -0.002285 C7.42425024 -0.00540498 8.57484745 -0.00852497 9.76031125 -0.01173949 C12.95917548 -0.01835103 16.15788875 -0.01595179 19.3567493 -0.00976706 C22.80468548 -0.00525288 26.25260083 -0.01222124 29.70053291 -0.0177269 C36.45763239 -0.0266342 43.21468751 -0.02469279 49.97178875 -0.01890162 C55.46319275 -0.01438963 60.95458429 -0.01377021 66.44598961 -0.01594925 C67.61719229 -0.01640895 67.61719229 -0.01640895 68.81205563 -0.01687793 C70.39813637 -0.01751737 71.98421711 -0.0181658 73.57029785 -0.01882312 C88.45430281 -0.02453052 103.33828317 -0.01796248 118.22228409 -0.00722238 C130.99650966 0.00171 143.77069887 0.00016446 156.54492378 -0.00905991 C171.37162186 -0.01976134 186.19829834 -0.02397746 201.02499974 -0.01783538 C202.60594248 -0.01719827 204.18688523 -0.01656953 205.76782799 -0.01594925 C206.54571856 -0.0156407 207.32360913 -0.01533215 208.12507214 -0.01501425 C213.60955997 -0.01328666 219.09403411 -0.01620385 224.57851982 -0.02090836 C231.26291013 -0.02651593 237.94725347 -0.02500348 244.63163839 -0.01434687 C248.04285382 -0.00908795 251.4539909 -0.00703709 254.86520576 -0.01364517 C258.56149225 -0.0190886 262.25755658 -0.01228078 265.95382881 -0.002285 C267.03446566 -0.00674645 268.11510252 -0.01120789 269.22848594 -0.01580453 C270.71411999 -0.00798129 270.71411999 -0.00798129 272.22976685 0 C273.08289109 0.0003247 273.93601534 0.00064941 274.81499183 0.00098395 C278.36704148 0.3680866 281.15297028 1.24483203 283.80043447 3.69538546 C287.01185057 8.13864778 287.9610803 11.79747273 287.87564278 17.29745865 C287.88344273 18.07845916 287.89124268 18.85945968 287.899279 19.66412687 C287.91913106 22.26606577 287.90346207 24.86653092 287.88769722 27.46847916 C287.89447639 29.33991216 287.9033812 31.21133849 287.91424751 33.08275223 C287.93701178 38.15512688 287.92821629 43.22699216 287.91235209 48.29937553 C287.89967827 53.6119014 287.91143732 58.92438416 287.91928291 64.23691177 C287.92837514 73.15776765 287.91640269 82.07841645 287.89258003 90.99924088 C287.86536966 101.30758812 287.87418412 111.61544088 287.90171206 121.92377615 C287.92441421 130.78004735 287.92759777 139.63616983 287.91451871 148.49246073 C287.90673033 153.7794254 287.90566588 159.06615777 287.92220116 164.35310745 C287.93666267 169.3240755 287.92659327 174.29440706 287.89772987 179.26530647 C287.89112807 181.08777625 287.89300123 182.91029975 287.9040432 184.73274803 C287.91774665 187.22451954 287.90052714 189.714263 287.87564278 192.20590591 C287.88679639 192.92391231 287.89794999 193.64191871 287.90944159 194.38168287 C287.80193513 199.94674482 286.04617121 203.37231307 282.24072456 207.25168228 C276.93872208 211.14141491 271.28289872 210.67503408 264.96765327 210.63936234 C263.25734688 210.64744064 263.25734688 210.64744064 261.51248884 210.65568215 C257.6893693 210.66999711 253.86659426 210.66284905 250.04345894 210.65573502 C247.30356637 210.65979299 244.56369144 210.6682994 241.82380867 210.67653275 C235.15300053 210.69372259 228.48228658 210.69456048 221.81146204 210.68931984 C216.38973575 210.68527766 210.96803729 210.68672227 205.54631233 210.6920681 C204.38864157 210.69319073 204.38864157 210.69319073 203.20758352 210.69433605 C201.6397041 210.69586753 200.07182469 210.69740587 198.50394529 210.69895101 C183.80349198 210.71267644 169.1030919 210.70723781 154.40263981 210.6957658 C140.95341344 210.68583085 127.50432461 210.69877851 114.05511945 210.72269999 C100.24387464 210.74708031 86.43269392 210.75670166 72.62142801 210.75004727 C64.86803659 210.74655299 57.11475097 210.74880096 49.36137581 210.76629829 C42.76194986 210.78100684 36.16270425 210.78167336 29.56328189 210.76422738 C26.19631661 210.75570402 22.82993877 210.75576037 19.46294785 210.76887894 C15.81292402 210.78201642 12.16378127 210.77060426 8.51379585 210.75288773 C7.44979105 210.76249273 6.38578624 210.77209774 5.28953886 210.78199381 C-0.54483696 210.72357174 -4.27796112 210.37779466 -8.75927544 206.25168228 C-12.5761597 201.75931843 -13.33990585 198.10515027 -13.27393913 192.37085342 C-13.28088466 191.59549645 -13.28783019 190.82013948 -13.29498619 190.02128685 C-13.31322955 187.43258778 -13.30299963 184.84480793 -13.2927227 182.25607681 C-13.2997826 180.39626761 -13.30852792 178.53646415 -13.31883049 176.67667007 C-13.34132795 171.6311004 -13.33838362 166.58584436 -13.32950902 161.54024363 C-13.32439739 157.32555828 -13.33169324 153.11093179 -13.33898109 148.89625251 C-13.35598174 138.95136295 -13.35241313 129.00662681 -13.33569145 119.06174088 C-13.31877405 108.80854537 -13.33459915 98.55577571 -13.36691433 88.30262673 C-13.3936233 79.49392904 -13.40088256 70.68536382 -13.39239925 61.87662971 C-13.38747336 56.61810919 -13.38966731 51.35984481 -13.41018677 46.10135651 C-13.42856399 41.15504214 -13.42256006 36.20933936 -13.39798737 31.26305771 C-13.39298575 29.45067651 -13.39645235 27.63824856 -13.40913582 25.82590485 C-13.51920667 8.74256184 -13.51920667 8.74256184 -7.75927544 2.25168228 C-4.53767461 0.1039484 -3.70633438 0.00141119 0 0 Z " transform="translate(168.75927543640137,113.74831771850586)" style="fill: #F1F1F1;"/><path d="M0 0 C1.47781081 -0.00782324 1.47781081 -0.00782324 2.98547637 -0.01580453 C4.07057467 -0.01134309 5.15567297 -0.00688164 6.27365303 -0.002285 C7.42425024 -0.00540498 8.57484745 -0.00852497 9.76031125 -0.01173949 C12.95917548 -0.01835103 16.15788875 -0.01595179 19.3567493 -0.00976706 C22.80468548 -0.00525288 26.25260083 -0.01222124 29.70053291 -0.0177269 C36.45763239 -0.0266342 43.21468751 -0.02469279 49.97178875 -0.01890162 C55.46319275 -0.01438963 60.95458429 -0.01377021 66.44598961 -0.01594925 C67.61719229 -0.01640895 67.61719229 -0.01640895 68.81205563 -0.01687793 C70.39813637 -0.01751737 71.98421711 -0.0181658 73.57029785 -0.01882312 C88.45430281 -0.02453052 103.33828317 -0.01796248 118.22228409 -0.00722238 C130.99650966 0.00171 143.77069887 0.00016446 156.54492378 -0.00905991 C171.37162186 -0.01976134 186.19829834 -0.02397746 201.02499974 -0.01783538 C202.60594248 -0.01719827 204.18688523 -0.01656953 205.76782799 -0.01594925 C206.54571856 -0.0156407 207.32360913 -0.01533215 208.12507214 -0.01501425 C213.60955997 -0.01328666 219.09403411 -0.01620385 224.57851982 -0.02090836 C231.26291013 -0.02651593 237.94725347 -0.02500348 244.63163839 -0.01434687 C248.04285382 -0.00908795 251.4539909 -0.00703709 254.86520576 -0.01364517 C258.56149225 -0.0190886 262.25755658 -0.01228078 265.95382881 -0.002285 C267.03446566 -0.00674645 268.11510252 -0.01120789 269.22848594 -0.01580453 C270.71411999 -0.00798129 270.71411999 -0.00798129 272.22976685 0 C273.08289109 0.0003247 273.93601534 0.00064941 274.81499183 0.00098395 C278.36704148 0.3680866 281.15297028 1.24483203 283.80043447 3.69538546 C287.01185057 8.13864778 287.9610803 11.79747273 287.87564278 17.29745865 C287.88344273 18.07845916 287.89124268 18.85945968 287.899279 19.66412687 C287.91913106 22.26606577 287.90346207 24.86653092 287.88769722 27.46847916 C287.89447639 29.33991216 287.9033812 31.21133849 287.91424751 33.08275223 C287.93701178 38.15512688 287.92821629 43.22699216 287.91235209 48.29937553 C287.89967827 53.6119014 287.91143732 58.92438416 287.91928291 64.23691177 C287.92837514 73.15776765 287.91640269 82.07841645 287.89258003 90.99924088 C287.86536966 101.30758812 287.87418412 111.61544088 287.90171206 121.92377615 C287.92441421 130.78004735 287.92759777 139.63616983 287.91451871 148.49246073 C287.90673033 153.7794254 287.90566588 159.06615777 287.92220116 164.35310745 C287.93666267 169.3240755 287.92659327 174.29440706 287.89772987 179.26530647 C287.89112807 181.08777625 287.89300123 182.91029975 287.9040432 184.73274803 C287.91774665 187.22451954 287.90052714 189.714263 287.87564278 192.20590591 C287.88679639 192.92391231 287.89794999 193.64191871 287.90944159 194.38168287 C287.80193513 199.94674482 286.04617121 203.37231307 282.24072456 207.25168228 C276.93872208 211.14141491 271.28289872 210.67503408 264.96765327 210.63936234 C263.25734688 210.64744064 263.25734688 210.64744064 261.51248884 210.65568215 C257.6893693 210.66999711 253.86659426 210.66284905 250.04345894 210.65573502 C247.30356637 210.65979299 244.56369144 210.6682994 241.82380867 210.67653275 C235.15300053 210.69372259 228.48228658 210.69456048 221.81146204 210.68931984 C216.38973575 210.68527766 210.96803729 210.68672227 205.54631233 210.6920681 C204.38864157 210.69319073 204.38864157 210.69319073 203.20758352 210.69433605 C201.6397041 210.69586753 200.07182469 210.69740587 198.50394529 210.69895101 C183.80349198 210.71267644 169.1030919 210.70723781 154.40263981 210.6957658 C140.95341344 210.68583085 127.50432461 210.69877851 114.05511945 210.72269999 C100.24387464 210.74708031 86.43269392 210.75670166 72.62142801 210.75004727 C64.86803659 210.74655299 57.11475097 210.74880096 49.36137581 210.76629829 C42.76194986 210.78100684 36.16270425 210.78167336 29.56328189 210.76422738 C26.19631661 210.75570402 22.82993877 210.75576037 19.46294785 210.76887894 C15.81292402 210.78201642 12.16378127 210.77060426 8.51379585 210.75288773 C7.44979105 210.76249273 6.38578624 210.77209774 5.28953886 210.78199381 C-0.54483696 210.72357174 -4.27796112 210.37779466 -8.75927544 206.25168228 C-12.5761597 201.75931843 -13.33990585 198.10515027 -13.27393913 192.37085342 C-13.28088466 191.59549645 -13.28783019 190.82013948 -13.29498619 190.02128685 C-13.31322955 187.43258778 -13.30299963 184.84480793 -13.2927227 182.25607681 C-13.2997826 180.39626761 -13.30852792 178.53646415 -13.31883049 176.67667007 C-13.34132795 171.6311004 -13.33838362 166.58584436 -13.32950902 161.54024363 C-13.32439739 157.32555828 -13.33169324 153.11093179 -13.33898109 148.89625251 C-13.35598174 138.95136295 -13.35241313 129.00662681 -13.33569145 119.06174088 C-13.31877405 108.80854537 -13.33459915 98.55577571 -13.36691433 88.30262673 C-13.3936233 79.49392904 -13.40088256 70.68536382 -13.39239925 61.87662971 C-13.38747336 56.61810919 -13.38966731 51.35984481 -13.41018677 46.10135651 C-13.42856399 41.15504214 -13.42256006 36.20933936 -13.39798737 31.26305771 C-13.39298575 29.45067651 -13.39645235 27.63824856 -13.40913582 25.82590485 C-13.51920667 8.74256184 -13.51920667 8.74256184 -7.75927544 2.25168228 C-4.53767461 0.1039484 -3.70633438 0.00141119 0 0 Z M-4.75927544 10.25168228 C-5.2062697 13.44545652 -5.2062697 13.44545652 -5.12003899 17.18019485 C-5.12260226 17.88921269 -5.12516554 18.59823052 -5.12780648 19.32873374 C-5.1327577 21.71042464 -5.11623002 24.09148509 -5.09985161 26.47311783 C-5.09900562 28.17797201 -5.09947992 29.88282728 -5.10117912 31.58768082 C-5.10204161 36.22174819 -5.08437483 40.8555837 -5.06345725 45.48959708 C-5.04473272 50.33026826 -5.04294335 55.17094446 -5.03938103 60.01164627 C-5.03004813 69.18079169 -5.00541752 78.3498301 -4.97533256 87.51892835 C-4.94182726 97.95651098 -4.92531228 108.39409866 -4.91024625 118.83172166 C-4.87886904 140.30510165 -4.82608437 161.77838523 -4.75927544 183.25168228 C-1.58536694 181.73959298 0.55125245 180.17758945 3.02588081 177.66183853 C3.72133003 176.959944 4.41677925 176.25804947 5.13330269 175.53488541 C5.84937691 174.80205338 6.56545113 174.06922134 7.30322456 173.31418228 C8.02316597 172.58521744 8.74310738 171.85625259 9.48486519 171.10519791 C10.82383544 169.74882229 12.16073834 168.39040045 13.49487495 167.02927017 C14.6278553 165.87569307 15.78510931 164.7452868 16.96899605 163.64401627 C18.46552604 162.31984591 18.46552604 162.31984591 18.24072456 160.25168228 C18.81822456 160.00418228 19.39572456 159.75668228 19.99072456 159.50168228 C22.57012436 158.0686824 24.30194048 156.46743552 26.24072456 154.25168228 C26.24072456 153.59168228 26.24072456 152.93168228 26.24072456 152.25168228 C26.90072456 152.25168228 27.56072456 152.25168228 28.24072456 152.25168228 C29.74122393 150.76806534 29.74122393 150.76806534 31.30322456 148.81418228 C35.367086 144.02917633 39.77078575 139.65402278 44.24072456 135.25168228 C45.12759956 134.34418228 46.01447456 133.43668228 46.92822456 132.50168228 C53.46929599 126.13739657 53.46929599 126.13739657 57.24072456 124.25168228 C57.24072456 123.59168228 57.24072456 122.93168228 57.24072456 122.25168228 C58.90583122 122.1414914 60.57318215 122.0651214 62.24072456 122.00168228 C63.16884956 121.95527603 64.09697456 121.90886978 65.05322456 121.86105728 C73.01298562 122.83651819 78.30659815 127.75776659 83.67895699 133.33102798 C84.37435081 134.03547546 85.06974464 134.73992294 85.78621101 135.46571732 C87.28454498 136.98585712 88.77828958 138.51053163 90.26784515 140.03927422 C92.62457177 142.45657135 94.99461874 144.8600556 97.36873055 147.26027298 C104.11214645 154.08302941 110.82949531 160.93125242 117.54126167 167.78512955 C121.65521701 171.98431369 125.78353629 176.16893719 129.92074203 180.34520912 C131.49388966 181.93952985 133.06117651 183.53965522 134.62248993 185.14556694 C136.79855671 187.38374364 138.99220812 189.60316495 141.19067574 191.81930923 C141.83338417 192.4898735 142.47609261 193.16043777 143.13827705 193.85132217 C144.78294639 195.48924096 146.30253811 196.97478685 148.24072456 198.25168228 C151.10667612 198.33797189 151.10667612 198.33797189 153.24072456 197.25168228 C154.11014507 194.95705708 154.11014507 194.95705708 154.24072456 192.25168228 C152.56124005 190.10140894 152.56124005 190.10140894 150.11572456 188.31418228 C147.33553441 186.02461392 144.74182083 183.88168342 142.49072456 181.06418228 C139.39953663 177.20019736 136.08009418 173.93367009 132.24072456 170.81418228 C129.16168575 168.18416996 126.78994055 165.38917888 124.24072456 162.25168228 C120.22561682 158.03067158 115.9076622 154.31640819 111.30322456 150.75168228 C110.24072456 149.25168228 110.24072456 149.25168228 110.43603706 146.98605728 C111.41399199 143.66290947 112.90110328 141.71606949 115.05322456 139.00168228 C119.08498221 133.78640868 122.98666474 128.50179855 126.80322456 123.12668228 C127.60820381 122.0066481 127.60820381 122.0066481 128.42944527 120.86398697 C128.9253315 120.1643483 129.42121773 119.46470963 129.93213081 118.74386978 C130.37758247 118.11851334 130.82303413 117.49315689 131.28198433 116.84885025 C132.41228097 115.27635735 132.41228097 115.27635735 132.24072456 113.25168228 C132.90072456 113.25168228 133.56072456 113.25168228 134.24072456 113.25168228 C135.83421318 111.30553701 135.83421318 111.30553701 137.36572456 108.87668228 C137.90455269 108.06457291 138.44338081 107.25246353 138.99853706 106.41574478 C140.40666587 104.37846202 140.40666587 104.37846202 140.24072456 102.25168228 C140.90072456 102.25168228 141.56072456 102.25168228 142.24072456 102.25168228 C143.36557726 100.79971282 143.36557726 100.79971282 144.42822456 98.87668228 C148.37377113 92.31977685 152.87534968 86.16204579 157.32275581 79.93918228 C157.86472603 79.17791031 158.40669624 78.41663834 158.9650898 77.63229752 C160.05374727 76.10341085 161.14564004 74.57682205 162.2409687 73.05270767 C162.74362251 72.34622086 163.24627632 71.63973404 163.76416206 70.91183853 C164.44357857 69.96256485 164.44357857 69.96256485 165.13672066 68.99411392 C166.41409046 67.13262481 166.41409046 67.13262481 167.24072456 64.25168228 C167.90072456 64.25168228 168.56072456 64.25168228 169.24072456 64.25168228 C170.04509956 63.44730728 170.84947456 62.64293228 171.67822456 61.81418228 C174.89716561 58.59524123 176.40895414 58.29397569 180.92822456 58.06418228 C185.33907341 58.13756054 189.05911576 58.80974821 193.24072456 60.25168228 C194.19384956 61.94308853 194.19384956 61.94308853 195.24072456 64.25168228 C196.67368126 66.33831843 198.12668419 68.3934913 199.61572456 70.43918228 C200.51987526 71.69272454 201.42349795 72.94664777 202.32666206 74.20090103 C202.80200386 74.86009537 203.27734566 75.5192897 203.76709175 76.19845963 C206.28055775 79.70048896 208.75936664 83.2268672 211.24072456 86.75168228 C215.40583729 92.66242315 219.59417578 98.55576101 223.80322456 104.43527603 C226.69295999 108.47529449 229.54814834 112.5378851 232.38525581 116.61496353 C233.82765816 118.66469318 235.28360898 120.7014615 236.75244331 122.73215103 C237.19459175 123.34510025 237.63674019 123.95804947 238.09228706 124.58957291 C238.95527366 125.78438037 239.82097289 126.97723534 240.68994331 128.16769791 C243.49774461 132.05992246 245.91863822 136.05057435 248.24072456 140.25168228 C248.90072456 140.25168228 249.56072456 140.25168228 250.24072456 140.25168228 C250.48822456 140.76730728 250.73572456 141.28293228 250.99072456 141.81418228 C252.63654072 145.02352379 254.43833416 148.12753892 256.24072456 151.25168228 C256.90072456 151.25168228 257.56072456 151.25168228 258.24072456 151.25168228 C258.48822456 151.97355728 258.73572456 152.69543228 258.99072456 153.43918228 C260.3520926 156.50226036 262.13055733 158.66502567 264.24072456 161.25168228 C264.57072456 162.24168228 264.90072456 163.23168228 265.24072456 164.25168228 C265.90072456 164.25168228 266.56072456 164.25168228 267.24072456 164.25168228 C268.4013347 166.57290255 269.53402067 168.89160106 270.61572456 171.25168228 C272.21747301 174.20875633 273.7680308 176.01080356 276.24072456 178.25168228 C277.24433681 179.24805694 278.24497681 180.24744804 279.24072456 181.25168228 C279.2640576 158.9905949 279.28170574 136.72950952 279.29253674 114.4684124 C279.29769883 104.13281852 279.30473989 93.79723223 279.31616402 83.46164322 C279.32611349 74.45592696 279.33257862 65.4502162 279.33481306 56.44449461 C279.33611971 51.67353789 279.33920275 46.90259689 279.34645462 42.1316452 C279.35321897 37.64527241 279.35534067 33.15892188 279.35383224 28.67254448 C279.35410838 27.02212465 279.35611105 25.37170411 279.35993004 23.72128868 C279.36487375 21.47550223 279.36372032 19.22980085 279.36097908 16.9840126 C279.36190087 15.72484339 279.36282267 14.46567417 279.36377239 13.16834831 C279.44260488 10.31451314 279.44260488 10.31451314 278.24072456 8.25168228 C275.35665727 7.29032652 273.54979719 7.12470705 270.55394936 7.12025452 C269.58492573 7.11641337 268.61590211 7.11257223 267.61751413 7.10861468 C266.01700244 7.10991441 266.01700244 7.10991441 264.38415718 7.11124039 C262.68677131 7.1067837 262.68677131 7.1067837 260.95509481 7.10223699 C257.1433963 7.09352887 253.33172912 7.09203997 249.52002144 7.09054947 C246.79541526 7.08646181 244.0708124 7.08091927 241.34620857 7.0755043 C233.93113366 7.06191887 226.51606414 7.05589632 219.10097885 7.05149364 C214.47348223 7.04873235 209.84598771 7.04449527 205.21849251 7.03998947 C192.41260344 7.02779799 179.60671605 7.01749749 166.8008213 7.01411438 C165.98115304 7.01389481 165.16148477 7.01367525 164.31697807 7.01344903 C163.49532815 7.01323075 162.67367824 7.01301247 161.82712984 7.01278758 C160.16209761 7.01234411 158.49706538 7.01189755 156.83203316 7.01144791 C156.0061163 7.01122648 155.18019945 7.01100505 154.32925481 7.01077691 C140.93603757 7.00682594 127.54287465 6.98936229 114.14967841 6.96608838 C100.40748597 6.94240015 86.66532082 6.92991373 72.92310762 6.92874646 C65.20387152 6.92782843 57.48470623 6.92204376 49.76548958 6.90392685 C43.19485264 6.88856012 36.62430841 6.88338512 30.05365694 6.89166495 C26.69931084 6.89558336 23.34530416 6.89296684 19.99095535 6.8806076 C16.35957066 6.86800778 12.72867232 6.87369959 9.09729195 6.88418961 C8.03028415 6.8761332 6.96327636 6.8680768 5.86393499 6.85977626 C4.89491137 6.8663661 3.92588775 6.87295595 2.92749977 6.87974548 C2.0888049 6.8791484 1.25011003 6.87855131 0.38600016 6.87793612 C-2.28099922 7.34257609 -3.16612879 8.09058864 -4.75927544 10.25168228 Z " transform="translate(168.75927543640137,113.74831771850586)" style="fill: #676767;"/><path d="M0 0 C5.05358247 3.36611 7.91558809 7.49379527 9.234375 13.48828125 C9.81864739 20.85011337 8.33694069 25.59015017 3.921875 31.67578125 C-1.19829445 37.03409811 -4.29555827 38.74511718 -11.765625 38.92578125 C-17.70105753 38.9192731 -22.02444305 37.90099913 -26.55859375 33.91015625 C-30.61751464 29.04399899 -33.42336913 24.56858407 -34.140625 18.11328125 C-33.52286198 12.1415721 -32.25262816 7.28833771 -28.390625 2.61328125 C-19.31530263 -4.73340829 -10.28804683 -5.67120594 0 0 Z " transform="translate(244.765625,158.51171875)" style="fill: #686868;"/><path d="M0 0 C0.99 0.66 1.98 1.32 3 2 C5.64632287 1.6878236 5.64632287 1.6878236 8 1 C8.124032 6.01699904 8.21454017 11.03309682 8.2746582 16.05126953 C8.29973045 17.75650589 8.33379764 19.46163554 8.37719727 21.16650391 C8.43817566 23.62429174 8.46628112 26.08065361 8.48828125 28.5390625 C8.51408768 29.29555084 8.5398941 30.05203918 8.56648254 30.83145142 C8.56858723 34.84567998 8.16981436 37.29373392 5.62792969 40.48339844 C3 43 3 43 0.46484375 43.7265625 C-6.34400996 43.4529455 -6.34400996 43.4529455 -9.625 41.1875 C-11 39 -11 39 -11 36 C-9.68 36 -8.36 36 -7 36 C-6.34 36.99 -5.68 37.98 -5 39 C-2 39.41666667 -2 39.41666667 1 39 C3.35953094 36.64046906 3.49141413 35.22104383 4 32 C3.29875 32.350625 2.5975 32.70125 1.875 33.0625 C-1.5886586 34.19195389 -3.53375417 34.07838759 -7 33 C-8.375 30.9375 -8.375 30.9375 -9 29 C-9.66 29 -10.32 29 -11 29 C-12.00303228 24.81936147 -12.16588178 20.85587757 -12.1875 16.5625 C-12.20167969 15.28503906 -12.21585937 14.00757813 -12.23046875 12.69140625 C-11.95025102 8.20317313 -11.37831168 4.47676252 -8.25 1.125 C-5.30423679 -0.3478816 -3.25476932 -0.34625206 0 0 Z " transform="translate(368,357)" style="fill: #7E7E7E;"/><path d="M0 0 C2.3181362 1.89111111 3.66914015 3.33828031 5 6 C5.15189832 8.74293304 5.23144389 11.44351592 5.25 14.1875 C5.270625 14.93064453 5.29125 15.67378906 5.3125 16.43945312 C5.34942174 21.70541598 4.52767307 25.35215256 2 30 C-2.0110795 32.674053 -5.28553397 32.69907091 -10 32 C-13.29969052 29.69021663 -14.23511337 27.84359987 -15 24 C-15.14592795 21.17404913 -15.23069215 18.38868591 -15.25 15.5625 C-15.270625 14.81162109 -15.29125 14.06074219 -15.3125 13.28710938 C-15.34495549 8.67437221 -14.94166842 5.76901266 -12 2 C-7.91061482 -1.40782099 -5.06737003 -1.38201001 0 0 Z " transform="translate(258,358)" style="fill: #EDEDED;"/><path d="M0 0 C1.32 0 2.64 0 4 0 C4 14.52 4 29.04 4 44 C2.35 44 0.7 44 -1 44 C-5.95 32.78 -10.9 21.56 -16 10 C-16.33 21.22 -16.66 32.44 -17 44 C-18.32 44 -19.64 44 -21 44 C-21 29.81 -21 15.62 -21 1 C-19.35 1 -17.7 1 -16 1 C-10.84036541 11.93197579 -5.88579467 22.94267522 -1 34 C-0.67 22.78 -0.34 11.56 0 0 Z " transform="translate(233,346)" style="fill: #7D7D7D;"/><path d="M0 0 C0.845625 0.37125 1.69125 0.7425 2.5625 1.125 C4.9469998 2.29593456 4.9469998 2.29593456 7 1.125 C7.66 0.75375 8.32 0.3825 9 0 C12.37865092 -0.51979245 13.68311051 -0.19311695 16.62963867 1.60253906 C19 4 19 4 19.56762695 7.11621094 C19.54144287 8.31020508 19.51525879 9.50419922 19.48828125 10.734375 C19.47216797 12.02988281 19.45605469 13.32539063 19.43945312 14.66015625 C19.39767939 16.02345428 19.3553547 17.38673552 19.3125 18.75 C19.2874091 20.12886624 19.26459729 21.50777597 19.24414062 22.88671875 C19.18518617 26.25891356 19.10293171 29.62890741 19 33 C17.68 33 16.36 33 15 33 C14.97494385 32.15703369 14.9498877 31.31406738 14.92407227 30.44555664 C14.82911845 27.32758326 14.72987552 24.20978497 14.62768555 21.09204102 C14.58428777 19.74085853 14.5426163 18.38961947 14.50268555 17.03833008 C14.44510048 15.09963299 14.38085702 13.16113724 14.31640625 11.22265625 C14.27974854 10.05484619 14.24309082 8.88703613 14.20532227 7.68383789 C14.29923812 5.08220205 14.29923812 5.08220205 13 4 C9.48254713 4.25248627 9.48254713 4.25248627 6 5 C4.68638302 7.62723396 4.78746091 9.72610561 4.68359375 12.6640625 C4.64169922 13.78554688 4.59980469 14.90703125 4.55664062 16.0625 C4.51732422 17.238125 4.47800781 18.41375 4.4375 19.625 C4.39431641 20.80835938 4.35113281 21.99171875 4.30664062 23.2109375 C4.20032574 26.14050328 4.09829358 29.07015588 4 32 C3.01 32 2.02 32 1 32 C0.98018066 31.22285645 0.96036133 30.44571289 0.93994141 29.64501953 C0.84492991 26.13799309 0.73515441 22.63158206 0.625 19.125 C0.5940625 17.90167969 0.563125 16.67835938 0.53125 15.41796875 C0.49257813 14.25136719 0.45390625 13.08476562 0.4140625 11.8828125 C0.36693115 10.26463623 0.36693115 10.26463623 0.31884766 8.61376953 C0.25323678 5.84238346 0.25323678 5.84238346 -2 4 C-5.08347826 3.83318891 -5.08347826 3.83318891 -8 4 C-8 4.66 -8 5.32 -8 6 C-8.66 6 -9.32 6 -10 6 C-10 14.91 -10 23.82 -10 33 C-11.32 33 -12.64 33 -14 33 C-14 22.44 -14 11.88 -14 1 C-11.525 1.495 -11.525 1.495 -9 2 C-5.63706209 0.42362285 -3.80465835 -0.37118618 0 0 Z " transform="translate(307,357)" style="fill: #777777;"/><path d="M0 0 C4.66897436 3.60178022 8.71533417 7.41887282 12.4375 12 C15.06751232 15.07903881 17.8625034 17.45078401 21 20 C23.64508971 22.51606095 26.02346899 25.02917766 28.3125 27.875 C31.43782939 31.72155925 35.21413997 34.82476255 39 38 C38.67 39.65 38.34 41.3 38 43 C35.73628235 43.69371033 35.73628235 43.69371033 33 44 C31.06999207 42.79151917 31.06999207 42.79151917 29.21948242 40.90063477 C28.51913376 40.19983292 27.8187851 39.49903107 27.09721375 38.7769928 C26.3574379 38.00624924 25.61766205 37.23550568 24.85546875 36.44140625 C24.08568192 35.66312973 23.31589508 34.88485321 22.52278137 34.08299255 C20.06328325 31.58986321 17.62543447 29.07670237 15.1875 26.5625 C13.52547158 24.87038523 11.8620763 23.17961186 10.19726562 21.49023438 C6.11551238 17.34226738 2.05135175 13.17765369 -2 9 C-1.34 8.67 -0.68 8.34 0 8 C-0.185625 7.05125 -0.37125 6.1025 -0.5625 5.125 C-1 2 -1 2 0 0 Z " transform="translate(284,268)" style="fill: #EAEAEA;"/><path d="M0 0 C3.41519499 0.56919917 5.30335673 1.32770403 8 3.5 C10.70831319 7.88488802 10.14889368 12.51206171 10 17.5 C4.72 17.5 -0.56 17.5 -6 17.5 C-5.690625 19.294375 -5.38125 21.08875 -5.0625 22.9375 C-4.88847656 23.94683594 -4.71445312 24.95617187 -4.53515625 25.99609375 C-4.25248903 28.4287438 -4.25248903 28.4287438 -3 29.5 C-0.32941149 29.64115161 2.32432238 29.54247107 5 29.5 C5.33 27.52 5.66 25.54 6 23.5 C6.99 23.5 7.98 23.5 9 23.5 C9.3708842 26.74523674 9.06525938 28.37231859 7.5625 31.3125 C4.29962297 34.09788283 2.30745849 34.17231275 -1.87890625 33.91796875 C-4 33.5 -4 33.5 -6.4375 31.875 C-11.12867243 24.74441791 -10.94686694 16.23433469 -9.3125 8.0625 C-7.09494984 3.73299731 -4.94683657 0.82447276 0 0 Z " transform="translate(391,356.5)" style="fill: #7D7D7D;"/><path d="M0 0 C1.70043945 1.12817383 1.70043945 1.12817383 3 3 C3.34057617 5.8190918 3.34057617 5.8190918 3.29296875 9.19921875 C3.28330078 10.40771484 3.27363281 11.61621094 3.26367188 12.86132812 C3.23853516 14.12396484 3.21339844 15.38660156 3.1875 16.6875 C3.16719727 18.59885742 3.16719727 18.59885742 3.14648438 20.54882812 C3.11108199 23.69964057 3.0616979 26.84961045 3 30 C3.99 30 4.98 30 6 30 C6 30.99 6 31.98 6 33 C4.35 33 2.7 33 1 33 C1 32.34 1 31.68 1 31 C0.01 31.66 -0.98 32.32 -2 33 C-4.19140625 33.23046875 -4.19140625 33.23046875 -6.5625 33.1875 C-7.34753906 33.18105469 -8.13257813 33.17460937 -8.94140625 33.16796875 C-11 33 -11 33 -13 32 C-14.35269353 27.94191941 -14.53130077 24.24270611 -14 20 C-11.22945986 15.61331145 -6.72796782 14.57598927 -2 13 C-1.32326553 9.59679066 -1.32326553 9.59679066 -1 6 C-1.66 5.34 -2.32 4.68 -3 4 C-6.09926819 4.32198966 -6.09926819 4.32198966 -9 5 C-9.33 6.32 -9.66 7.64 -10 9 C-10.99 9 -11.98 9 -13 9 C-13.36585366 4.48780488 -13.36585366 4.48780488 -11.6875 2.25 C-8.03870948 -0.4528078 -4.37641903 -0.31260136 0 0 Z " transform="translate(346,357)" style="fill: #6D6D6D;"/><path d="M0 0 C35.23709617 -0.02287282 70.47419085 -0.04050151 105.71129288 -0.05106533 C109.86831962 -0.05231608 114.02534633 -0.0536104 118.18237305 -0.05493164 C119.00998641 -0.05519395 119.83759977 -0.05545626 120.69029232 -0.05572652 C134.10307703 -0.06008164 147.51585746 -0.06796833 160.92863963 -0.0771528 C174.6842948 -0.08649372 188.43994772 -0.09205654 202.19560593 -0.09408849 C210.68830512 -0.09546281 219.18099224 -0.09980847 227.67368772 -0.10791647 C233.49196918 -0.11318932 239.31024436 -0.11480306 245.12852804 -0.11350138 C248.48882985 -0.11285885 251.84909342 -0.11440703 255.20939445 -0.11920547 C258.84736186 -0.12414766 262.48527673 -0.12299629 266.12324524 -0.12025452 C267.19229939 -0.12316736 268.26135355 -0.1260802 269.36280328 -0.12908131 C270.81911386 -0.12609474 270.81911386 -0.12609474 272.30484486 -0.12304783 C273.14516595 -0.12342755 273.98548704 -0.12380727 274.8512724 -0.1241985 C277 0 277 0 280 1 C280.33 1.99 280.66 2.98 281 4 C279 4 279 4 278 3 C277.34 3.33 276.68 3.66 276 4 C275.01 3.34 274.02 2.68 273 2 C270.81085505 1.70263802 270.81085505 1.70263802 268.35169697 1.75390434 C267.39127343 1.74992225 266.4308499 1.74594015 265.44132262 1.74183738 C264.38394132 1.74766307 263.32656001 1.75348875 262.23713684 1.75949097 C261.11568022 1.75778212 259.9942236 1.75607327 258.83878344 1.75431263 C255.06148504 1.75100479 251.28436225 1.76204282 247.50708008 1.77294922 C244.80716336 1.77462522 242.10725013 1.77328549 239.40733337 1.77206421 C233.58457923 1.77101452 227.76186985 1.77729983 221.93912697 1.78853989 C213.52038177 1.80478063 205.10165825 1.81000143 196.68289908 1.81251587 C183.0246711 1.81689522 169.36646698 1.83021081 155.70825195 1.84912109 C142.43904744 1.8674737 129.1698494 1.88163323 115.90063477 1.89013672 C114.67416184 1.89092489 114.67416184 1.89092489 113.42291168 1.89172898 C109.3210881 1.89433902 105.21926448 1.89686645 101.11744082 1.89935279 C67.07827657 1.92009275 33.03914121 1.95532479 -1 2 C-0.67 1.34 -0.34 0.68 0 0 Z " transform="translate(167,121)" style="fill: #D1D1D1;"/><path d="M0 0 C2.61326359 1.00510138 3.69273458 1.78307781 5.4375 3.9375 C5.82568359 5.85107422 5.82568359 5.85107422 5.8359375 7.9921875 C5.83980469 8.77207031 5.84367187 9.55195313 5.84765625 10.35546875 C5.83605469 11.16628906 5.82445312 11.97710937 5.8125 12.8125 C5.82410156 13.61558594 5.83570313 14.41867187 5.84765625 15.24609375 C5.82449826 19.93172614 5.52646496 23.16866715 2.4375 26.9375 C-0.0625 27.9375 -0.0625 27.9375 -2.5625 27.9375 C-5.10094009 26.12432851 -5.55739025 24.95282925 -6.5625 21.9375 C-6.83537085 18.96301952 -6.83959694 15.98565843 -6.875 13 C-6.90400391 12.18853516 -6.93300781 11.37707031 -6.96289062 10.54101562 C-7.02647374 4.57887547 -7.02647374 4.57887547 -4.703125 1.3671875 C-2.5625 -0.0625 -2.5625 -0.0625 0 0 Z " transform="translate(366.5625,360.0625)" style="fill: #EEEEEE;"/><path d="M0 0 C2 2 2 2 2.1875 5.375 C1 9 1 9 -1.0078125 10.34765625 C-6.92092294 13 -6.92092294 13 -10 13 C-11.09506492 16.28519475 -11.09960608 18.73663415 -11.0625 22.1875 C-11.05347656 23.27417969 -11.04445313 24.36085938 -11.03515625 25.48046875 C-11.02355469 26.31191406 -11.01195312 27.14335937 -11 28 C-10.34 28.33 -9.68 28.66 -9 29 C-10.32 29.33 -11.64 29.66 -13 30 C-13 28.02 -13 26.04 -13 24 C-13.66 24 -14.32 24 -15 24 C-15.33 23.01 -15.66 22.02 -16 21 C-16 21.99 -16 22.98 -16 24 C-16.66 24 -17.32 24 -18 24 C-18 16.41 -18 8.82 -18 1 C-15.69 1.33 -13.38 1.66 -11 2 C-11 2.99 -11 3.98 -11 5 C-10.01 5 -9.02 5 -8 5 C-7.87625 4.195625 -7.7525 3.39125 -7.625 2.5625 C-7.41875 1.716875 -7.2125 0.87125 -7 0 C-4.29393021 -1.35303489 -2.8671629 -0.7884698 0 0 Z M-15 26 C-14.01 26.495 -14.01 26.495 -13 27 C-13.99 27.495 -13.99 27.495 -15 28 C-15 27.34 -15 26.68 -15 26 Z " transform="translate(344,361)" style="fill: #EDEDED;"/><path d="M0 0 C2.3181362 1.89111111 3.66914015 3.33828031 5 6 C5.15189832 8.74293304 5.23144389 11.44351592 5.25 14.1875 C5.270625 14.93064453 5.29125 15.67378906 5.3125 16.43945312 C5.34942174 21.70541598 4.52767307 25.35215256 2 30 C-2.0110795 32.674053 -5.28553397 32.69907091 -10 32 C-13.29969052 29.69021663 -14.23511337 27.84359987 -15 24 C-15.14592795 21.17404913 -15.23069215 18.38868591 -15.25 15.5625 C-15.270625 14.81162109 -15.29125 14.06074219 -15.3125 13.28710938 C-15.34495549 8.67437221 -14.94166842 5.76901266 -12 2 C-7.91061482 -1.40782099 -5.06737003 -1.38201001 0 0 Z M-9 3 C-11.73939608 7.68886049 -12.40775746 11.15205895 -12.375 16.5625 C-12.38273438 17.84253906 -12.39046875 19.12257813 -12.3984375 20.44140625 C-11.9800279 24.17837826 -11.42268855 26.13632769 -9 29 C-6.95714939 29.60024521 -6.95714939 29.60024521 -4.8125 29.3125 C-3.554375 29.209375 -2.29625 29.10625 -1 29 C2.98217721 23.19265824 2.63880747 16.83606953 2 10 C1.20320266 6.72562856 1.20320266 6.72562856 0 4 C-2.95664519 2.5216774 -5.74229737 2.93967217 -9 3 Z " transform="translate(258,358)" style="fill: #6E6E6E;"/><path d="M0 0 C1.32 0 2.64 0 4 0 C4 10.56 4 21.12 4 32 C2.68 32 1.36 32 0 32 C0 21.44 0 10.88 0 0 Z " transform="translate(283,358)" style="fill: #818181;"/><path d="M0 0 C0.08114106 1.77007714 0.13925505 3.54122098 0.1875 5.3125 C0.22230469 6.29863281 0.25710938 7.28476562 0.29296875 8.30078125 C0 11 0 11 -1.3203125 12.83203125 C-3.91547229 14.63657259 -5.93750668 14.39095659 -9 14 C-11 11 -11 11 -11.125 7.5625 C-10 4 -10 4 -8.21484375 2.65625 C-2.98772321 0 -2.98772321 0 0 0 Z " transform="translate(346,373)" style="fill: #E9E9E9;"/><path d="M0 0 C3.07921132 -0.25660094 5.21136993 -0.39431504 8 1 C9.1577506 4.47325181 9.06866652 7.36067448 9 11 C5.04 11 1.08 11 -3 11 C-2.25 3.375 -2.25 3.375 0 0 Z " transform="translate(388,360)" style="fill: #F5F5F5;"/><path d="M0 0 C0.33 0.99 0.66 1.98 1 3 C-0.670625 3.309375 -0.670625 3.309375 -2.375 3.625 C-6.10389996 4.60300179 -6.10389996 4.60300179 -7.375 7.375 C-8.26900683 12.56023963 -8.67725384 17.75112826 -9 23 C-9.99 23.33 -10.98 23.66 -12 24 C-12.0543965 21.62468606 -12.09385864 19.25064117 -12.125 16.875 C-12.14175781 16.20984375 -12.15851563 15.5446875 -12.17578125 14.859375 C-12.22632859 9.70354677 -11.88070437 5.0150404 -8.25 1.125 C-5.37565673 -0.31217164 -3.17065239 -0.21618085 0 0 Z " transform="translate(368,357)" style="fill: #747474;"/><path d="M0 0 C2.93373826 4.40060738 5.01783268 9.15121815 7.25 13.9375 C7.7346875 14.93974609 8.219375 15.94199219 8.71875 16.97460938 C9.16734375 17.94076172 9.6159375 18.90691406 10.078125 19.90234375 C10.49481445 20.78398193 10.91150391 21.66562012 11.34082031 22.57397461 C12 25 12 25 11.12011719 27.31860352 C10.75047852 27.87346436 10.38083984 28.4283252 10 29 C7.05469422 24.58204132 5.06374776 19.76562005 2.875 14.9375 C2.40707031 13.91849609 1.93914062 12.89949219 1.45703125 11.84960938 C1.01488281 10.87701172 0.57273438 9.90441406 0.1171875 8.90234375 C-0.28902832 8.01023193 -0.69524414 7.11812012 -1.11376953 6.19897461 C-2 4 -2 4 -2 2 C-1.34 2 -0.68 2 0 2 C0 1.34 0 0.68 0 0 Z " transform="translate(220,355)" style="fill: #747474;"/><path d="M0 0 C0.99 0 1.98 0 3 0 C3.60889013 9.80989656 3.60889013 9.80989656 1.625 13.6875 C-2.50835523 15.75417761 -6.47906699 15.75849541 -11 15 C-13.625 13.1875 -13.625 13.1875 -15 11 C-15 10.01 -15 9.02 -15 8 C-13.68 8 -12.36 8 -11 8 C-10.01 9.485 -10.01 9.485 -9 11 C-6.04279372 11.66680368 -6.04279372 11.66680368 -3 11 C-0.50911464 8.1769966 -0.0253032 6.44702321 0.1875 2.6875 C0.125625 1.800625 0.06375 0.91375 0 0 Z " transform="translate(372,385)" style="fill: #7A7A7A;"/><path d="M0 0 C1.0625 1.8125 1.0625 1.8125 2 4 C1.67 4.99 1.34 5.98 1 7 C-5.75 7.125 -5.75 7.125 -8 6 C-8 13.92 -8 21.84 -8 30 C-9.32 29.67 -10.64 29.34 -12 29 C-11.01 29 -10.02 29 -9 29 C-9.0314209 27.89543457 -9.0314209 27.89543457 -9.06347656 26.76855469 C-9.14667144 23.42917558 -9.19867157 20.09001451 -9.25 16.75 C-9.28351563 15.59113281 -9.31703125 14.43226563 -9.3515625 13.23828125 C-9.36445313 12.12324219 -9.37734375 11.00820313 -9.390625 9.859375 C-9.41157227 8.83295898 -9.43251953 7.80654297 -9.45410156 6.74902344 C-8.54791105 1.26316045 -5.29337786 -0.5881531 0 0 Z " transform="translate(320,360)" style="fill: #D2D2D2;"/><path d="M0 0 C0.99 0 1.98 0 3 0 C4.4084507 7.32394366 4.4084507 7.32394366 2 11 C1.62875 11.7425 1.2575 12.485 0.875 13.25 C0.58625 13.8275 0.2975 14.405 0 15 C-0.268125 14.360625 -0.53625 13.72125 -0.8125 13.0625 C-1.88667752 10.66868314 -1.88667752 10.66868314 -5 10 C-4.49942848 5.61999924 -3.06806466 3.15830185 0 0 Z " transform="translate(283,253)" style="fill: #717171;"/><path d="M0 0 C2 1.1875 2 1.1875 3 3 C2.8125 5.625 2.8125 5.625 2 8 C1.01 8.495 1.01 8.495 0 9 C-0.99 7.35 -1.98 5.7 -3 4 C-4.98 4.33 -6.96 4.66 -9 5 C-9.33 6.32 -9.66 7.64 -10 9 C-10.99 9 -11.98 9 -13 9 C-13.36585366 4.48780488 -13.36585366 4.48780488 -11.6875 2.25 C-8.03870948 -0.4528078 -4.37641903 -0.31260136 0 0 Z " transform="translate(346,357)" style="fill: #7F7F7F;"/><path d="M0 0 C0.66 0.33 1.32 0.66 2 1 C2.5643982 17.24212598 2.5643982 17.24212598 -1 23 C-1.66 23.33 -2.32 23.66 -3 24 C-4 21 -4 21 -3.09765625 18.76171875 C-1.75239293 15.37701708 -1.61729884 12.44290634 -1.4375 8.8125 C-1.09801634 2.19603267 -1.09801634 2.19603267 0 0 Z " transform="translate(261,365)" style="fill: #6D6D6D;"/><path d="M0 0 C2.31 1.98 4.62 3.96 7 6 C6.67 7.65 6.34 9.3 6 11 C4.35 11.33 2.7 11.66 1 12 C-0.5625 10.1875 -0.5625 10.1875 -2 8 C-1.67 7.01 -1.34 6.02 -1 5 C-0.65179959 3.33637583 -0.31595508 1.67004829 0 0 Z " transform="translate(316,300)" style="fill: #E2E2E2;"/><path d="M0 0 C2.67455183 1.33727591 2.98881385 2.73288323 4.1875 5.4375 C4.55230469 6.24058594 4.91710937 7.04367187 5.29296875 7.87109375 C6 10 6 10 5 12 C3.35 13.65 1.7 15.3 0 17 C0 11.39 0 5.78 0 0 Z " transform="translate(216,355)" style="fill: #EFEFEF;"/><path d="M0 0 C6.32743363 0.48672566 6.32743363 0.48672566 9.375 2.8125 C10.97163052 4.96181032 11.62496968 6.37478776 12 9 C10.02 9.99 10.02 9.99 8 11 C7.67 9.35 7.34 7.7 7 6 C4.36 5.34 1.72 4.68 -1 4 C-0.67 2.68 -0.34 1.36 0 0 Z " transform="translate(251,357)" style="fill: #747474;"/><path d="M0 0 C2.86688248 0.09096556 5.70300515 0.23767988 8.5625 0.4375 C9.36880859 0.48970703 10.17511719 0.54191406 11.00585938 0.59570312 C13.00421738 0.72577376 15.00215386 0.86229056 17 1 C17 1.66 17 2.32 17 3 C12.05 3.33 7.1 3.66 2 4 C1.67 6.64 1.34 9.28 1 12 C-1.32488647 8.36736489 -1.23961213 5.23314767 -1 1 C-0.67 0.67 -0.34 0.34 0 0 Z " transform="translate(383,370)" style="fill: #666666;"/><path d="M0 0 C0.8971875 0.309375 0.8971875 0.309375 1.8125 0.625 C1.8125 1.945 1.8125 3.265 1.8125 4.625 C1.1525 4.625 0.4925 4.625 -0.1875 4.625 C-0.1875 5.285 -0.1875 5.945 -0.1875 6.625 C-0.8475 6.625 -1.5075 6.625 -2.1875 6.625 C-2.5175 7.285 -2.8475 7.945 -3.1875 8.625 C-3.5175 6.975 -3.8475 5.325 -4.1875 3.625 C-4.8475 5.605 -5.5075 7.585 -6.1875 9.625 C-6.8475 9.625 -7.5075 9.625 -8.1875 9.625 C-8.5175 10.945 -8.8475 12.265 -9.1875 13.625 C-9.69182107 8.3296288 -8.47507779 5.75795494 -5.1875 1.625 C-2.1875 -0.375 -2.1875 -0.375 0 0 Z " transform="translate(166.1875,114.375)" style="fill: #717171;"/><path d="M0 0 C3 -0.3125 3 -0.3125 6 0 C6.66 0.66 7.32 1.32 8 2 C6.35 2 4.7 2 3 2 C2.67 2.99 2.34 3.98 2 5 C0.70055256 6.69321939 -0.62926214 8.36395804 -2 10 C1.63 10 5.26 10 9 10 C9 10.33 9 10.66 9 11 C5.04 11 1.08 11 -3 11 C-2.25 3.375 -2.25 3.375 0 0 Z " transform="translate(388,360)" style="fill: #DCDCDC;"/><path d="M0 0 C2 2 2 2 2.125 5.125 C2.08375 6.07375 2.0425 7.0225 2 8 C1.34 8 0.68 8 0 8 C0 8.66 0 9.32 0 10 C-0.66 10 -1.32 10 -2 10 C-2 10.66 -2 11.32 -2 12 C-2.99 11.67 -3.98 11.34 -5 11 C-4.46884894 6.48521602 -2.63379708 3.65333143 0 0 Z " transform="translate(301,227)" style="fill: #686868;"/><path d="M0 0 C0.66 1.32 1.32 2.64 2 4 C-0.97 6.97 -3.94 9.94 -7 13 C-9 11 -9 11 -9 8 C-8.030625 7.731875 -7.06125 7.46375 -6.0625 7.1875 C-4.5465625 6.5996875 -4.5465625 6.5996875 -3 6 C-2.67 5.01 -2.34 4.02 -2 3 C-1.34 3 -0.68 3 0 3 C0 2.01 0 1.02 0 0 Z " transform="translate(175,282)" style="fill: #E8E8E8;"/><path d="M0 0 C0.99 0.99 1.98 1.98 3 3 C3.33 2.01 3.66 1.02 4 0 C4 0.99 4 1.98 4 3 C4.99 3 5.98 3 7 3 C7 3.99 7 4.98 7 6 C5.35 6 3.7 6 2 6 C2 5.34 2 4.68 2 4 C0.35 4.66 -1.3 5.32 -3 6 C-3 5.34 -3 4.68 -3 4 C-4.32 3.67 -5.64 3.34 -7 3 C-5.5459375 2.5359375 -5.5459375 2.5359375 -4.0625 2.0625 C-1.15934208 1.30476658 -1.15934208 1.30476658 0 0 Z " transform="translate(345,384)" style="fill: #7B7B7B;"/><path d="M0 0 C1.125 3.75 1.125 3.75 0 6 C-0.66 5.34 -1.32 4.68 -2 4 C-5.08347826 3.83318891 -5.08347826 3.83318891 -8 4 C-8.33 4.66 -8.66 5.32 -9 6 C-9.66 5.67 -10.32 5.34 -11 5 C-10.67 3.68 -10.34 2.36 -10 1 C-9.01 1 -8.02 1 -7 1 C-4.53721199 -0.231394 -2.7204945 -0.07159196 0 0 Z " transform="translate(307,357)" style="fill: #7D7D7D;"/><path d="M0 0 C0.99 0 1.98 0 3 0 C3 3.63 3 7.26 3 11 C1.02 11.99 1.02 11.99 -1 13 C-0.67 8.71 -0.34 4.42 0 0 Z " transform="translate(372,385)" style="fill: #686868;"/><path d="M0 0 C1.65 0 3.3 0 5 0 C6.49821059 3.37097383 7 5.20442119 7 9 C6.01 8.67 5.02 8.34 4 8 C3.67 7.01 3.34 6.02 3 5 C2.34 4.67 1.68 4.34 1 4 C0.67 4.66 0.34 5.32 0 6 C0 4.02 0 2.04 0 0 Z " transform="translate(213,348)" style="fill: #6B6B6B;"/><path d="M0 0 C0.33 0 0.66 0 1 0 C1.33 6.27 1.66 12.54 2 19 C0.68 18.67 -0.64 18.34 -2 18 C-2.042721 16.33388095 -2.04063832 14.66617115 -2 13 C-1.67 12.67 -1.34 12.34 -1 12 C-0.76572222 9.98405418 -0.58663876 7.961526 -0.4375 5.9375 C-0.35371094 4.83277344 -0.26992188 3.72804688 -0.18359375 2.58984375 C-0.12300781 1.73519531 -0.06242187 0.88054687 0 0 Z " transform="translate(359,368)" style="fill: #868686;"/><path d="M0 0 C0.66 0.33 1.32 0.66 2 1 C2 4.96 2 8.92 2 13 C2.66 13.33 3.32 13.66 4 14 C2.68 14.33 1.36 14.66 0 15 C0 13.02 0 11.04 0 9 C-0.66 9 -1.32 9 -2 9 C-2 6.36 -2 3.72 -2 1 C-1.34 0.67 -0.68 0.34 0 0 Z M-2 11 C-1.01 11.495 -1.01 11.495 0 12 C-0.99 12.495 -0.99 12.495 -2 13 C-2 12.34 -2 11.68 -2 11 Z " transform="translate(331,376)" style="fill: #E2E2E2;"/><path d="M0 0 C0.33 0 0.66 0 1 0 C1 3.96 1 7.92 1 12 C0.01 12.33 -0.98 12.66 -2 13 C-2 9.37 -2 5.74 -2 2 C-1.34 2 -0.68 2 0 2 C0 1.34 0 0.68 0 0 Z " transform="translate(358,368)" style="fill: #696969;"/><path d="M0 0 C0.66 0 1.32 0 2 0 C1.67 0.99 1.34 1.98 1 3 C-1.06640625 3.94921875 -1.06640625 3.94921875 -3.5625 4.6875 C-4.38878906 4.93886719 -5.21507812 5.19023437 -6.06640625 5.44921875 C-6.70449219 5.63097656 -7.34257812 5.81273437 -8 6 C-8 5.34 -8 4.68 -8 4 C-8.99 4 -9.98 4 -11 4 C-11 3.34 -11 2.68 -11 2 C-11.99 1.67 -12.98 1.34 -14 1 C-9.19407629 1 -4.74540667 1.15637215 0 2 C0 1.34 0 0.68 0 0 Z " transform="translate(305,354)" style="fill: #E7E7E7;"/><path d="M0 0 C0 0.66 0 1.32 0 2 C-0.66 2 -1.32 2 -2 2 C-2 3.32 -2 4.64 -2 6 C-1.34 6 -0.68 6 0 6 C-0.33 7.32 -0.66 8.64 -1 10 C-2.98 8.35 -4.96 6.7 -7 5 C-5.22678182 1.07358831 -4.52021524 0 0 0 Z " transform="translate(281,264)" style="fill: #E8E8E8;"/><path d="M0 0 C-0.57344937 2.86724686 -0.8614515 3.8614515 -3 6 C-6.125 6.125 -6.125 6.125 -9 6 C-9.66 4.68 -10.32 3.36 -11 2 C-8 2 -8 2 -5 4 C-4.67 3.34 -4.34 2.68 -4 2 C-2 0 -2 0 0 0 Z " transform="translate(372,391)" style="fill: #EBEBEB;"/><path d="M0 0 C0.33 0 0.66 0 1 0 C1.33 2.64 1.66 5.28 2 8 C2.33 8 2.66 8 3 8 C3 10.97 3 13.94 3 17 C2.01 16.67 1.02 16.34 0 16 C0 10.72 0 5.44 0 0 Z " transform="translate(372,368)" style="fill: #727272;"/><path d="M0 0 C0.99 0 1.98 0 3 0 C4.35439668 2.70879335 4.06501451 5.00933268 4 8 C1.03 7.505 1.03 7.505 -2 7 C-1.34 4.69 -0.68 2.38 0 0 Z " transform="translate(393,362)" style="fill: #EFEFEF;"/><path d="M0 0 C-1.2065625 0.86625 -1.2065625 0.86625 -2.4375 1.75 C-4.97866739 3.98126893 -5.65120368 4.74456771 -6 8 C-6.99 8 -7.98 8 -9 8 C-9.22223194 5.25913944 -9.34781139 3.56036279 -7.875 1.1875 C-5.22464043 -0.49106106 -3.06753576 -0.20450238 0 0 Z " transform="translate(342,358)" style="fill: #6E6E6E;"/><path d="M0 0 C3.63 0.33 7.26 0.66 11 1 C11 2.98 11 4.96 11 7 C3.17391304 3.17391304 3.17391304 3.17391304 0 0 Z " transform="translate(387,353)" style="fill: #E9E9E9;"/><path d="M0 0 C0.66 0.33 1.32 0.66 2 1 C2 5.29 2 9.58 2 14 C0.01163916 11.01745874 -0.34336635 9.86191192 -0.6875 6.4375 C-0.77386719 5.65246094 -0.86023438 4.86742187 -0.94921875 4.05859375 C-1 2 -1 2 0 0 Z " transform="translate(261,365)" style="fill: #656565;"/><path d="M0 0 C2.475 0.495 2.475 0.495 5 1 C4.34 3.64 3.68 6.28 3 9 C2.01 9 1.02 9 0 9 C0 6.03 0 3.06 0 0 Z " transform="translate(209,164)" style="fill: #EAEAEA;"/><path d="M0 0 C0 0.66 0 1.32 0 2 C-1.95927063 3.7143618 -3.95880212 5.38405168 -6 7 C-6.33 5.02 -6.66 3.04 -7 1 C-4.53721199 -0.231394 -2.7204945 -0.07159196 0 0 Z " transform="translate(396,374)" style="fill: #F3F3F3;"/><path d="M0 0 C2.31 0.33 4.62 0.66 7 1 C7 1.99 7 2.98 7 4 C4.13822943 5.43088528 2.06624227 4.59991697 -1 4 C-0.67 2.68 -0.34 1.36 0 0 Z " transform="translate(251,357)" style="fill: #8D8D8D;"/><path d="M0 0 C0.99 0.33 1.98 0.66 3 1 C1.68 3.64 0.36 6.28 -1 9 C-1.99 8.01 -2.98 7.02 -4 6 C-2.84826645 3.53199953 -1.95216435 1.95216435 0 0 Z " transform="translate(248,358)" style="fill: #757575;"/><path d="M0 0 C2.475 0.99 2.475 0.99 5 2 C5 2.99 5 3.98 5 5 C1.79604584 5 -0.09399739 4.25664978 -3 3 C-2.01 2.01 -1.02 1.02 0 0 Z " transform="translate(240,233)" style="fill: #E5E5E5;"/><path d="M0 0 C0.99 0.33 1.98 0.66 3 1 C3 3.64 3 6.28 3 9 C1.68 8.67 0.36 8.34 -1 8 C-0.67 5.36 -0.34 2.72 0 0 Z " transform="translate(305,291)" style="fill: #F2F2F2;"/><path d="M0 0 C0.99 0.33 1.98 0.66 3 1 C3 3.64 3 6.28 3 9 C1.68 8.67 0.36 8.34 -1 8 C-0.67 5.36 -0.34 2.72 0 0 Z " transform="translate(297,283)" style="fill: #F2F2F2;"/><path d="M0 0 C0.99 0.33 1.98 0.66 3 1 C3 3.64 3 6.28 3 9 C1.68 8.67 0.36 8.34 -1 8 C-0.67 5.36 -0.34 2.72 0 0 Z " transform="translate(289,275)" style="fill: #F2F2F2;"/><path d="M0 0 C0.66 0.33 1.32 0.66 2 1 C1.67 3.97 1.34 6.94 1 10 C0.01 9.67 -0.98 9.34 -2 9 C-1.34 6.03 -0.68 3.06 0 0 Z " transform="translate(347,377)" style="fill: #656565;"/><path d="M0 0 C1.65 0.33 3.3 0.66 5 1 C4.67 1.99 4.34 2.98 4 4 C3.65179959 5.66362417 3.31595508 7.32995171 3 9 C2.67 8.01 2.34 7.02 2 6 C1.01 5.67 0.02 5.34 -1 5 C-0.01 5 0.98 5 2 5 C2 4.34 2 3.68 2 3 C1.34 3 0.68 3 0 3 C0 2.01 0 1.02 0 0 Z " transform="translate(398,374)" style="fill: #DEDEDE;"/><path d="M0 0 C0.66 0.66 1.32 1.32 2 2 C3.98356483 2.71408334 5.98315437 3.38617742 8 4 C7.01 4.495 7.01 4.495 6 5 C6 5.66 6 6.32 6 7 C4.68 7.33 3.36 7.66 2 8 C0.74335022 5.09399739 0 3.20395416 0 0 Z " transform="translate(280,350)" style="fill: #F7F7F7;"/><path d="M0 0 C0.66 0.33 1.32 0.66 2 1 C2 3.64 2 6.28 2 9 C1.01 8.67 0.02 8.34 -1 8 C-0.67 5.36 -0.34 2.72 0 0 Z " transform="translate(252,171)" style="fill: #757575;"/><path d="M0 0 C-0.825 0.433125 -1.65 0.86625 -2.5 1.3125 C-3.7375 2.1478125 -3.7375 2.1478125 -5 3 C-5 3.99 -5 4.98 -5 6 C-6.32 6 -7.64 6 -9 6 C-7.54266958 1.38512035 -7.54266958 1.38512035 -5.0625 -0.375 C-3 -1 -3 -1 0 0 Z " transform="translate(341,373)" style="fill: #7A7A7A;"/><path d="M0 0 C0.99 1.32 1.98 2.64 3 4 C1.74821404 6.50357192 0.00018842 8.06433379 -2 10 C-1.85950482 8.52031676 -1.71245174 7.04125484 -1.5625 5.5625 C-1.48128906 4.73878906 -1.40007812 3.91507812 -1.31640625 3.06640625 C-1 1 -1 1 0 0 Z " transform="translate(219,361)" style="fill: #E5E5E5;"/><path d="M0 0 C3.875 0.875 3.875 0.875 5 2 C5.04080783 3.99958364 5.04254356 6.00045254 5 8 C2.74754119 5.31158141 1.11786042 3.35358125 0 0 Z " transform="translate(376,193)" style="fill: #EAEAEA;"/><path d="M0 0 C-0.99 0.495 -0.99 0.495 -2 1 C-2 1.66 -2 2.32 -2 3 C-2.99 3 -3.98 3 -5 3 C-5.33 3.66 -5.66 4.32 -6 5 C-6.33 3.35 -6.66 1.7 -7 0 C-4.3333581 -1.33332095 -2.83319697 -0.67102033 0 0 Z " transform="translate(369,361)" style="fill: #E4E4E4;"/><path d="M0 0 C1.32 0 2.64 0 4 0 C4 1.65 4 3.3 4 5 C2.68 5 1.36 5 0 5 C0 3.35 0 1.7 0 0 Z " transform="translate(283,347)" style="fill: #707070;"/><path d="M0 0 C0.66 0.99 1.32 1.98 2 3 C1.125 5.6875 1.125 5.6875 0 8 C-1.5625 6.1875 -1.5625 6.1875 -3 4 C-2.67 3.01 -2.34 2.02 -2 1 C-2 1.66 -2 2.32 -2 3 C-1.34 3 -0.68 3 0 3 C0 2.01 0 1.02 0 0 Z " transform="translate(452,312)" style="fill: #6C6C6C;"/><path d="M0 0 C0.33 1.32 0.66 2.64 1 4 C-0.65 4.33 -2.3 4.66 -4 5 C-4.33 4.01 -4.66 3.02 -5 2 C-2 1 -2 1 0 2 C0 1.34 0 0.68 0 0 Z " transform="translate(321,307)" style="fill: #EAEAEA;"/><path d="M0 0 C0.33 0.66 0.66 1.32 1 2 C1.66 2.33 2.32 2.66 3 3 C2.34 3 1.68 3 1 3 C1.33 4.98 1.66 6.96 2 9 C1.67 8.34 1.34 7.68 1 7 C0.34 6.67 -0.32 6.34 -1 6 C-1.33 5.34 -1.66 4.68 -2 4 C-1.0625 1.875 -1.0625 1.875 0 0 Z " transform="translate(371,382)" style="fill: #848484;"/><path d="M0 0 C-0.375 2.4375 -0.375 2.4375 -1 5 C-1.99 5.495 -1.99 5.495 -3 6 C-3.66 4.35 -4.32 2.7 -5 1 C-3 0 -3 0 0 0 Z " transform="translate(349,360)" style="fill: #767676;"/><path d="M0 0 C0.66 0.99 1.32 1.98 2 3 C0.68 4.32 -0.64 5.64 -2 7 C-2.33 5.35 -2.66 3.7 -3 2 C-2.01 1.34 -1.02 0.68 0 0 Z " transform="translate(316,202)" style="fill: #E8E8E8;"/><path d="M0 0 C0.99 0 1.98 0 3 0 C3 1.65 3 3.3 3 5 C2.01 5.33 1.02 5.66 0 6 C0 4.02 0 2.04 0 0 Z " transform="translate(397,380)" style="fill: #6B6B6B;"/><path d="M0 0 C0.66 0.33 1.32 0.66 2 1 C2 2.98 2 4.96 2 7 C1.01 6.67 0.02 6.34 -1 6 C-1.042721 4.33388095 -1.04063832 2.66617115 -1 1 C-0.67 0.67 -0.34 0.34 0 0 Z " transform="translate(333,378)" style="fill: #686868;"/><path d="M0 0 C0.66 0.33 1.32 0.66 2 1 C1.34 3.31 0.68 5.62 0 8 C-0.99 6.68 -1.98 5.36 -3 4 C-2.01 2.68 -1.02 1.36 0 0 Z " transform="translate(386,358)" style="fill: #7C7C7C;"/><path d="M0 0 C0.66 0.66 1.32 1.32 2 2 C1.75 4.5625 1.75 4.5625 1 7 C0.01 7.495 0.01 7.495 -1 8 C-1.625 5.6875 -1.625 5.6875 -2 3 C-1.34 2.01 -0.68 1.02 0 0 Z " transform="translate(301,227)" style="fill: #777777;"/></svg>