<?xml version="1.0" standalone="no"?>
<!DOCTYPE svg PUBLIC "-//W3C//DTD SVG 20010904//EN"
 "http://www.w3.org/TR/2001/REC-SVG-20010904/DTD/svg10.dtd">
<svg version="1.0" xmlns="http://www.w3.org/2000/svg"
 width="772.000000pt" height="678.000000pt" viewBox="0 0 772.000000 678.000000"
 preserveAspectRatio="xMidYMid meet">
<metadata>
Created by potrace 1.16, written by Peter Selinger 2001-2019
</metadata>
<g transform="translate(0.000000,678.000000) scale(0.100000,-0.100000)"
fill="#000000" stroke="none">
<path d="M3535 5995 c-99 -13 -193 -28 -210 -34 -16 -5 -66 -17 -110 -26 -44
-9 -84 -20 -90 -25 -5 -4 -35 -13 -65 -20 -30 -7 -59 -16 -65 -20 -5 -4 -28
-13 -50 -20 -22 -7 -58 -20 -80 -30 -89 -39 -181 -81 -195 -90 -8 -5 -33 -19
-55 -30 -156 -79 -380 -234 -512 -355 -138 -126 -330 -337 -375 -412 -11 -18
-24 -33 -29 -33 -5 0 -9 -6 -9 -13 0 -7 -13 -28 -28 -47 -16 -19 -32 -42 -35
-50 -4 -8 -21 -35 -37 -60 -50 -77 -190 -353 -190 -376 0 -5 -7 -22 -15 -38
-8 -16 -22 -54 -31 -85 -9 -31 -20 -60 -24 -66 -4 -5 -13 -35 -20 -65 -7 -30
-17 -63 -22 -73 -5 -9 -18 -63 -29 -120 -11 -56 -24 -122 -29 -147 -14 -69
-30 -300 -30 -434 0 -134 16 -376 30 -440 4 -22 16 -79 25 -126 20 -100 51
-212 93 -330 49 -141 114 -296 131 -313 6 -6 11 -15 11 -20 0 -10 108 -205
123 -222 7 -9 31 -44 62 -94 57 -92 196 -253 329 -384 154 -151 141 -139 236
-211 41 -31 82 -62 90 -69 8 -6 22 -16 31 -22 9 -5 29 -19 45 -29 95 -63 209
-127 319 -180 33 -16 77 -37 97 -47 20 -11 43 -19 50 -19 8 0 31 -9 53 -20 54
-28 143 -45 188 -36 28 5 45 17 67 48 l30 41 -2 266 c-3 259 -4 266 -23 264
-188 -22 -273 -25 -375 -15 -61 6 -125 18 -143 26 -18 8 -47 19 -65 25 -18 5
-46 19 -61 31 -16 11 -33 20 -38 20 -9 0 -112 98 -142 136 -20 23 -68 122 -76
156 -4 15 -13 32 -21 39 -8 6 -14 17 -14 24 0 17 -84 142 -123 184 -32 33
-131 111 -142 111 -3 0 -22 15 -40 34 -25 24 -35 42 -35 64 0 27 4 32 38 41
118 33 273 -21 391 -139 27 -27 91 -107 91 -115 0 -11 63 -96 107 -141 53 -57
110 -96 193 -133 48 -21 71 -24 175 -25 107 -1 130 2 210 28 95 31 105 37 105
74 0 31 57 192 75 212 8 9 15 22 15 28 0 6 8 17 18 24 9 7 22 23 29 35 11 20
9 22 -35 32 -26 6 -94 18 -150 26 -57 8 -111 19 -120 24 -10 4 -47 16 -85 26
-37 9 -70 21 -73 26 -3 5 -12 9 -20 9 -14 0 -164 68 -174 79 -3 3 -21 15 -40
25 -40 23 -43 25 -88 63 -175 148 -277 312 -351 568 -21 73 -61 378 -61 468 0
86 38 297 69 382 47 129 76 181 176 312 l33 43 -24 87 c-34 125 -33 297 0 446
14 59 33 125 43 148 l18 42 89 -7 c49 -3 94 -10 100 -15 6 -4 36 -14 66 -21
30 -7 66 -18 80 -25 14 -8 63 -32 110 -54 47 -23 103 -52 125 -66 22 -13 54
-32 70 -41 17 -9 40 -25 52 -37 25 -22 73 -20 161 8 55 17 234 42 415 57 91 7
167 7 260 -1 185 -15 364 -39 417 -56 95 -30 122 -30 172 4 25 17 51 31 57 31
6 0 11 4 11 10 0 5 19 18 43 29 23 12 67 34 97 51 30 16 70 35 90 41 19 7 41
16 48 22 12 10 113 41 187 57 22 5 64 9 92 10 48 0 54 -3 67 -28 8 -16 20 -51
27 -78 6 -27 17 -68 25 -91 19 -58 28 -243 16 -328 -5 -38 -18 -101 -28 -138
-17 -61 -17 -70 -4 -80 28 -22 115 -144 137 -192 7 -16 17 -37 22 -45 23 -40
63 -165 82 -260 44 -223 1 -637 -86 -835 -58 -131 -96 -198 -145 -258 -42 -51
-173 -177 -190 -182 -11 -4 -20 -10 -20 -13 0 -4 -17 -16 -37 -27 -21 -11 -40
-22 -43 -26 -9 -10 -159 -79 -173 -79 -7 0 -17 -4 -23 -9 -15 -14 -223 -69
-309 -81 -44 -6 -99 -16 -122 -22 l-43 -10 20 -27 c42 -54 74 -108 93 -156 44
-113 47 -149 47 -623 0 -434 1 -454 20 -492 41 -81 134 -91 266 -29 22 10 46
19 53 19 6 0 29 8 49 19 20 10 64 31 97 47 110 53 224 117 319 180 16 10 36
24 45 29 9 6 23 16 31 22 8 7 49 38 90 69 95 72 82 60 235 211 72 70 151 153
176 183 78 93 149 189 149 199 0 6 6 14 14 18 7 4 21 24 31 43 10 19 21 37 25
40 7 6 106 179 121 213 5 12 13 29 18 37 17 26 71 150 71 161 0 6 7 23 15 37
31 55 94 262 126 417 11 55 25 118 29 140 14 67 30 301 30 440 0 139 -16 373
-30 440 -5 22 -18 90 -30 150 -12 61 -25 115 -30 120 -4 6 -13 37 -20 70 -7
33 -16 65 -20 70 -4 6 -13 30 -20 55 -7 25 -23 69 -36 98 -13 29 -24 55 -24
57 0 14 -106 226 -145 289 -25 41 -45 79 -45 85 0 6 -5 11 -10 11 -6 0 -14 8
-17 18 -12 32 -166 242 -226 307 -92 102 -239 244 -317 307 -52 42 -102 83
-110 90 -32 28 -175 121 -241 157 -24 13 -46 26 -49 30 -7 8 -156 81 -166 81
-4 0 -15 6 -23 13 -9 7 -36 21 -61 31 -109 43 -179 68 -230 82 -30 8 -68 21
-85 28 -16 7 -59 19 -95 25 -36 7 -76 16 -90 21 -14 5 -114 21 -223 35 -247
31 -415 31 -662 0z"/>
</g>
</svg>
