<?xml version="1.0" standalone="no"?>
<!DOCTYPE svg PUBLIC "-//W3C//DTD SVG 20010904//EN"
 "http://www.w3.org/TR/2001/REC-SVG-20010904/DTD/svg10.dtd">
<svg version="1.0" xmlns="http://www.w3.org/2000/svg"
 width="451.000000pt" height="385.000000pt" viewBox="0 0 451.000000 385.000000"
 preserveAspectRatio="xMidYMid meet">
<metadata>
Created by potrace 1.16, written by Peter Selinger 2001-2019
</metadata>
<g transform="translate(0.000000,385.000000) scale(0.100000,-0.100000)"
fill="#000000" stroke="none">
<path d="M1986 3600 c-353 -56 -653 -276 -811 -595 -75 -151 -105 -266 -112
-431 -7 -161 6 -263 53 -404 98 -296 326 -541 616 -661 131 -54 148 -40 148
115 l0 108 -77 -6 c-142 -12 -240 30 -284 121 -39 83 -88 150 -129 177 -24 16
-40 34 -40 46 0 17 7 20 41 20 55 0 102 -24 141 -72 114 -138 163 -167 256
-154 69 9 94 26 107 72 7 23 20 52 29 65 21 31 20 39 -6 39 -37 0 -151 31
-204 56 -152 71 -234 198 -254 395 -14 140 15 260 83 351 20 27 23 38 15 58
-14 37 -11 169 5 215 12 34 18 40 47 43 41 4 132 -28 211 -74 l59 -35 74 16
c98 20 304 20 402 0 72 -15 75 -15 104 5 54 39 159 81 213 87 l54 6 12 -34
c19 -53 25 -162 12 -214 -11 -43 -10 -48 13 -78 54 -70 79 -145 84 -246 13
-299 -124 -484 -400 -539 -46 -9 -85 -17 -87 -19 -2 -1 6 -14 18 -29 38 -48
46 -99 46 -300 0 -219 3 -230 67 -221 21 3 80 26 131 50 325 158 556 473 607
826 19 126 8 323 -25 441 -104 381 -403 678 -783 777 -109 28 -328 40 -436 23z"/>
<path d="M663 1281 c-164 -56 -241 -191 -250 -436 -8 -209 23 -321 116 -416
74 -75 139 -100 276 -107 113 -5 184 7 263 43 l52 24 0 246 0 245 -165 0 -166
0 3 -87 3 -88 63 -3 62 -3 0 -94 0 -95 -74 0 c-88 0 -120 10 -163 52 -50 48
-68 114 -67 243 0 166 30 240 114 283 41 21 54 23 155 18 61 -2 122 -7 136
-11 25 -7 27 -5 46 74 16 61 18 83 9 90 -50 42 -316 56 -413 22z"/>
<path d="M2020 805 l0 -465 100 0 100 0 0 200 0 200 135 0 135 0 0 -200 0
-200 100 0 100 0 -2 463 -3 462 -97 3 -98 3 0 -176 0 -175 -135 0 -135 0 -2
173 -3 172 -97 3 -98 3 0 -466z"/>
<path d="M3450 805 l0 -465 71 0 c63 0 71 2 76 20 3 12 8 19 12 17 60 -32 117
-51 171 -55 122 -8 197 32 241 130 21 48 23 68 24 203 0 167 -8 205 -58 262
-63 71 -174 93 -284 54 l-53 -18 -2 156 -3 156 -97 3 -98 3 0 -466z m350 10
c46 -24 68 -119 51 -225 -14 -87 -43 -115 -113 -107 -91 11 -89 7 -86 175 l3
147 35 12 c48 16 76 16 110 -2z"/>
<path d="M1273 1234 c-83 -42 -75 -163 14 -200 71 -30 143 21 143 102 0 84
-83 136 -157 98z"/>
<path d="M1588 1058 l-3 -92 -45 -11 -45 -11 -3 -67 -3 -67 51 0 50 0 0 -153
c0 -183 13 -240 65 -286 19 -16 54 -35 77 -42 43 -11 165 -8 187 5 6 4 11 35
11 75 l0 68 -50 5 c-86 8 -90 18 -90 185 l0 143 70 0 70 0 0 80 0 80 -70 0
-70 0 0 90 0 90 -100 0 -99 0 -3 -92z"/>
<path d="M1222 658 l3 -313 98 -3 97 -3 0 316 0 315 -100 0 -100 0 2 -312z"/>
<path d="M2774 955 c-3 -8 -4 -122 -2 -252 4 -263 9 -287 67 -336 18 -14 51
-32 74 -38 65 -17 182 -6 250 24 54 25 57 25 57 6 0 -17 7 -19 70 -19 l70 0 0
315 0 315 -100 0 -100 0 0 -229 0 -229 -40 -16 c-52 -21 -93 -20 -119 2 -20
16 -21 27 -24 242 l-2 225 -98 3 c-80 2 -98 0 -103 -13z"/>
</g>
</svg>
