<?xml version="1.0" standalone="no"?>
<!DOCTYPE svg PUBLIC "-//W3C//DTD SVG 20010904//EN"
 "http://www.w3.org/TR/2001/REC-SVG-20010904/DTD/svg10.dtd">
<svg version="1.0" xmlns="http://www.w3.org/2000/svg"
 width="900.000000pt" height="500.000000pt" viewBox="0 0 900.000000 500.000000"
 preserveAspectRatio="xMidYMid meet">

<g transform="translate(0.000000,500.000000) scale(0.100000,-0.100000)"
fill="#000000" stroke="none">
<path d="M747 2505 c-306 -530 -557 -969 -557 -975 0 -7 355 -10 1120 -10 616
0 1120 3 1120 6 0 9 -1100 1916 -1114 1931 -9 10 -147 -222 -569 -952z"/>
<path d="M2457 3286 c58 -108 818 -1416 824 -1416 4 0 21 24 37 53 16 28 204
353 416 720 212 368 386 671 386 673 0 3 -70 3 -157 2 l-156 -3 -261 -452
c-193 -335 -264 -449 -271 -439 -5 7 -125 212 -265 455 l-255 441 -158 0 -157
0 17 -34z"/>
<path d="M8530 2620 l0 -700 135 0 135 0 0 700 0 700 -135 0 -135 0 0 -700z"/>
<path d="M4355 2976 c-186 -36 -319 -134 -395 -291 -65 -133 -75 -280 -28
-420 75 -228 306 -375 585 -375 106 0 203 23 298 69 88 43 197 133 180 149 -5
6 -57 38 -115 71 -103 60 -104 60 -125 42 -32 -31 -119 -70 -177 -81 -134 -26
-282 33 -349 138 l-30 47 428 5 428 5 3 87 c8 257 -131 457 -371 533 -100 32
-233 40 -332 21z m277 -266 c55 -27 88 -59 117 -115 l21 -40 -281 -3 c-155 -1
-284 0 -286 2 -10 9 29 74 66 110 59 57 119 77 226 73 70 -2 100 -8 137 -27z"/>
<path d="M6465 2976 c-302 -59 -480 -301 -445 -607 22 -194 125 -340 296 -421
179 -84 429 -75 601 23 55 32 176 154 170 172 -2 6 -52 40 -111 74 l-108 63
-46 -49 c-65 -70 -126 -95 -228 -95 -72 0 -89 4 -147 32 -75 37 -119 89 -142
166 -50 167 25 337 170 387 130 45 292 6 357 -86 l30 -43 107 61 c58 33 110
64 115 68 12 11 -27 70 -77 116 -129 119 -351 176 -542 139z"/>
<path d="M7640 2974 c-225 -48 -359 -161 -425 -357 -28 -84 -34 -204 -14 -299
51 -244 301 -428 582 -428 182 0 339 55 448 158 l61 57 -117 68 -117 67 -33
-29 c-52 -45 -138 -74 -225 -74 -84 -1 -132 12 -203 56 -44 27 -107 101 -107
126 0 8 130 11 424 11 l424 0 6 53 c13 104 -21 258 -76 349 -118 193 -383 295
-628 242z m254 -254 c69 -26 156 -118 156 -166 0 -2 -128 -4 -284 -4 l-285 0
11 32 c16 46 95 120 148 140 65 24 186 23 254 -2z"/>
<path d="M5250 2440 l0 -520 134 0 135 0 3 268 c3 254 4 269 26 317 31 68 73
108 143 140 52 23 70 26 144 23 l85 -3 0 148 0 148 -52 -7 c-157 -18 -278 -88
-327 -187 l-21 -42 0 118 0 117 -135 0 -135 0 0 -520z"/>
</g>
</svg>
