<?xml version="1.0" standalone="no"?>
<!DOCTYPE svg PUBLIC "-//W3C//DTD SVG 20010904//EN"
 "http://www.w3.org/TR/2001/REC-SVG-20010904/DTD/svg10.dtd">
<svg version="1.0" xmlns="http://www.w3.org/2000/svg"
 width="512.000000pt" height="512.000000pt" viewBox="0 0 512.000000 512.000000"
 preserveAspectRatio="xMidYMid meet">
<metadata>
Created by potrace 1.16, written by Peter Selinger 2001-2019
</metadata>
<g transform="translate(0.000000,512.000000) scale(0.100000,-0.100000)"
fill="#000000" stroke="none">
<path d="M2485 5103 c-109 -39 -217 -129 -263 -219 -64 -126 -70 -289 -13
-409 31 -66 32 -85 7 -85 -7 0 -46 -16 -86 -36 -60 -30 -97 -61 -218 -183
-199 -199 -331 -285 -563 -366 -117 -41 -140 -53 -187 -104 l-32 -35 -113 111
c-135 134 -158 147 -252 148 -58 0 -78 -4 -115 -27 -63 -37 -602 -582 -629
-635 -27 -55 -28 -152 -2 -208 13 -27 154 -174 422 -441 432 -430 429 -428
529 -428 88 0 115 18 273 173 l148 146 -29 -80 c-17 -44 -44 -116 -61 -160
-40 -103 -41 -147 -2 -186 23 -22 39 -29 69 -29 78 0 81 5 262 484 l165 436
395 0 c393 0 395 0 445 -24 87 -40 144 -121 152 -215 4 -49 -11 -111 -117
-491 -67 -239 -128 -442 -136 -452 -38 -41 -117 -23 -131 30 -4 16 18 181 56
422 34 217 62 403 61 412 0 10 -13 32 -29 50 l-29 33 -154 3 c-136 2 -156 1
-184 -16 -25 -16 -96 -150 -430 -812 -432 -857 -419 -837 -494 -826 -43 6 -80
46 -80 86 0 15 16 69 35 119 19 49 35 101 35 115 0 61 -46 106 -109 106 -52 0
-85 -42 -131 -163 -63 -169 -53 -277 36 -376 61 -68 126 -95 229 -96 68 0 89
4 137 28 32 16 73 46 91 68 20 22 201 369 418 799 337 667 387 760 407 760 12
0 22 -3 22 -6 0 -3 -22 -147 -50 -320 -27 -173 -50 -340 -50 -372 0 -101 64
-202 159 -252 23 -12 7 -29 -532 -569 -330 -330 -561 -568 -567 -586 -23 -61
-10 -81 168 -258 l168 -167 49 0 49 0 289 288 c159 158 295 299 303 314 8 15
14 40 14 56 0 62 -77 114 -136 92 -16 -6 -139 -121 -274 -256 l-245 -244 -68
68 -67 67 913 913 912 912 185 -185 c191 -191 214 -207 272 -190 25 8 592 566
639 629 43 58 38 107 -18 168 l-25 26 59 12 c32 6 143 29 247 51 104 21 192
37 194 34 5 -5 -86 -472 -95 -488 -3 -4 -27 13 -55 38 -44 40 -56 45 -96 45
l-46 0 -421 -420 -420 -420 -191 190 c-189 189 -190 190 -234 190 l-45 0 -312
-313 -313 -312 0 -48 c0 -53 27 -91 74 -103 55 -13 78 4 338 264 l258 256 188
-187 189 -187 49 0 48 0 418 417 418 418 72 -72 c40 -39 83 -76 95 -82 50 -25
122 -2 142 46 17 44 181 868 181 914 0 50 -43 99 -87 99 -44 0 -884 -169 -920
-185 -18 -8 -39 -28 -48 -46 -27 -51 -13 -90 60 -167 l64 -68 -222 -222 -222
-222 -180 180 c-185 185 -211 204 -271 192 -21 -3 -90 -66 -246 -220 l-218
-216 21 75 c11 41 48 171 81 289 84 298 87 387 19 530 -32 69 -139 178 -204
209 -27 13 -46 28 -44 35 2 6 31 86 63 178 l59 168 85 0 c260 0 512 77 726
221 113 76 177 143 199 208 21 66 17 169 -10 225 -41 85 -129 145 -227 153
-80 8 -140 -12 -217 -70 -136 -103 -215 -137 -321 -137 -92 0 -216 46 -263 98
-15 16 -12 20 48 51 126 65 218 196 239 339 29 200 -76 394 -262 484 -61 29
-77 33 -177 35 -86 3 -121 0 -160 -14z m254 -218 c203 -103 175 -397 -45 -461
-68 -20 -119 -13 -186 23 -140 76 -172 258 -66 377 77 88 196 113 297 61z
m-239 -715 c24 -12 75 -50 112 -84 136 -123 255 -175 423 -183 161 -8 289 35
444 151 41 31 84 56 95 56 30 0 66 -39 66 -73 0 -77 -260 -235 -479 -290 -72
-18 -115 -21 -272 -22 -166 0 -189 -2 -207 -18 -12 -11 -55 -120 -108 -272
l-89 -255 -313 0 c-294 0 -313 1 -308 18 3 9 51 193 107 407 55 215 108 404
117 420 38 75 109 136 186 161 61 20 171 12 226 -16z m-726 -482 l-26 -96 -97
-46 c-53 -25 -136 -59 -185 -76 -101 -34 -129 -29 -155 24 -22 47 7 74 125
117 124 45 211 86 294 137 36 22 66 39 67 38 1 -1 -9 -45 -23 -98z m-621 -346
c207 -207 377 -382 377 -387 0 -6 -45 -55 -100 -110 l-100 -100 -105 105 -105
104 25 26 c30 32 45 77 37 116 -6 32 -212 250 -270 286 -44 27 -95 19 -136
-22 l-32 -30 -94 95 -95 96 101 99 c55 55 105 100 110 100 5 0 179 -170 387
-378z m-564 -224 c-25 -123 49 -251 176 -304 37 -15 137 -18 170 -4 17 7 38
-10 132 -103 l113 -112 -97 -97 c-54 -54 -104 -98 -113 -98 -19 0 -760 740
-760 760 0 8 44 59 97 112 l98 98 98 -98 97 -97 -11 -57z"/>
<path d="M1158 1855 c-75 -75 -10 -198 95 -178 77 15 105 117 48 174 -40 39
-106 41 -143 4z"/>
<path d="M2420 1022 c-42 -20 -62 -69 -49 -117 32 -113 199 -93 199 25 0 54
-14 79 -55 96 -44 18 -53 18 -95 -4z"/>
</g>
</svg>
