<svg id="svg" version="1.1" xmlns="http://www.w3.org/2000/svg" viewBox="0 0 598 586" style="display: block;"><path d="M0 0 C197.34 0 394.68 0 598 0 C598 193.38 598 386.76 598 586 C400.66 586 203.32 586 0 586 C0 392.62 0 199.24 0 0 Z " transform="translate(0,0)" style="fill: #FEFEFE;"/><path d="M0 0 C123.42 0 246.84 0 374 0 C373.67 10.23 373.34 20.46 373 31 C372.34 31 371.68 31 371 31 C371.02320313 31.680625 371.04640625 32.36125 371.0703125 33.0625 C371.17967349 38.93674749 370.87271593 44.55344854 370.0625 50.375 C369.19599628 56.67080772 368.79519801 62.85900992 368.5859375 69.20703125 C368.18304796 79.40921341 367.16496301 89.45671765 365.90148926 99.5836792 C363.60959292 118.03315583 362.02803017 136.41614983 361.21777344 154.98779297 C361 158 361 158 360.51098633 160.91699219 C359.92091549 164.47715205 359.68097555 167.9837408 359.46484375 171.5859375 C359.40037804 172.63861313 359.40037804 172.63861313 359.33460999 173.71255493 C359.19929141 175.93320322 359.06832642 178.154083 358.9375 180.375 C358.84599173 181.88934038 358.75419771 183.40366353 358.66210938 184.91796875 C358.43810168 188.61178562 358.21799516 192.30582286 358 196 C357.34 196 356.68 196 356 196 C356.01160156 196.71542969 356.02320313 197.43085938 356.03515625 198.16796875 C356.20906801 217.37279597 356.20906801 217.37279597 354 224 C353.77712209 226.87213993 353.60090529 229.72910692 353.46484375 232.60546875 C353.40037804 233.86427605 353.40037804 233.86427605 353.33460999 235.14851379 C353.19829707 237.82799402 353.06782862 240.50772268 352.9375 243.1875 C352.84608799 245.00457669 352.75429575 246.8216343 352.66210938 248.63867188 C352.43699418 253.09223849 352.21712004 257.54603674 352 262 C351.34 262 350.68 262 350 262 C350.01740234 263.0209375 350.01740234 263.0209375 350.03515625 264.0625 C350.1159987 272.74728887 349.61521207 281.34308733 349 290 C348.34 290 347.68 290 347 290 C347.03480469 290.84433594 347.06960938 291.68867188 347.10546875 292.55859375 C347.3388983 303.59647677 346.41500709 314.44258109 345.35296631 325.41473389 C344.20693407 337.26845029 343.39274713 349.09569904 343 361 C342.34 361 341.68 361 341 361 C341.01160156 361.75023437 341.02320313 362.50046875 341.03515625 363.2734375 C341.0937829 369.92337417 340.81769308 376.40004873 340 383 C334.053928 386.03910346 328.63093294 386.65226572 322 387 C322 387.66 322 388.32 322 389 C318.7 389.33 315.4 389.66 312 390 C312 390.66 312 391.32 312 392 C308.7 392.33 305.4 392.66 302 393 C302 393.66 302 394.32 302 395 C301.43152344 395.12117188 300.86304688 395.24234375 300.27734375 395.3671875 C296.58513368 396.16850187 292.98728012 397.00394755 289.375 398.125 C285.78755548 399.05507821 282.68991145 399.15060863 279 399 C279 399.66 279 400.32 279 401 C275.7 401.33 272.4 401.66 269 402 C269 402.66 269 403.32 269 404 C266.41806023 404.67250524 263.83467929 405.33817901 261.25 406 C260.15558594 406.28617188 260.15558594 406.28617188 259.0390625 406.578125 C255.55428354 407.46515964 252.61876278 408 249 408 C249 408.66 249 409.32 249 410 C246.29172996 410.47952665 243.58338656 410.95863231 240.875 411.4375 C240.11445313 411.57220703 239.35390625 411.70691406 238.5703125 411.84570312 C234.38362839 412.58559127 230.19522853 413.30973077 226 414 C226 414.66 226 415.32 226 416 C220.61972975 417.19088986 215.54708616 418.2919519 210 418 C210 418.66 210 419.32 210 420 C206.7 420.33 203.4 420.66 200 421 C200 421.66 200 422.32 200 423 C198.68 423 197.36 423 196 423 C196 423.66 196 424.32 196 425 C187.66473215 426.36186463 181.04441651 425.48492447 173 423 C173 422.34 173 421.68 173 421 C172.45214844 420.98582031 171.90429688 420.97164062 171.33984375 420.95703125 C165.15305849 420.58481815 159.80733354 419.07179041 153.97265625 417.01782227 C144.88894641 413.8519761 135.50979219 411.46529926 126 410 C126 409.34 126 408.68 126 408 C124.741875 407.938125 123.48375 407.87625 122.1875 407.8125 C114.38629534 407.0401035 106.93073899 404.70858336 99.39550781 402.64208984 C96.51596887 401.87026071 93.62310169 401.16804142 90.72412109 400.47363281 C83.5053092 398.74168932 76.53529979 396.56585427 69.51953125 394.15625 C65.40156086 392.80339846 61.26256804 391.75086069 57.046875 390.75390625 C52.42828067 389.61110022 47.88120364 388.23269517 43.32421875 386.8671875 C39.89188302 385.97179557 36.51760645 385.43691436 33 385 C30.30676485 365.26565517 28.75278203 345.91478069 29 326 C28.34 326 27.68 326 27 326 C25.80611597 302.21122564 25.80611597 302.21122564 26 292 C25.34 292 24.68 292 24 292 C23.91435791 290.74864258 23.82871582 289.49728516 23.74047852 288.20800781 C23.42166407 283.56354764 23.0981393 278.91942551 22.77319336 274.27539062 C22.63323606 272.26571411 22.49455482 270.2559483 22.35717773 268.24609375 C22.15944793 265.35652612 21.95712526 262.46731112 21.75390625 259.578125 C21.6934462 258.68007141 21.63298615 257.78201782 21.57069397 256.85675049 C21.51070724 256.01618103 21.45072052 255.17561157 21.38891602 254.30957031 C21.33784195 253.57232727 21.28676788 252.83508423 21.23414612 252.07550049 C21.04531717 249.99054407 21.04531717 249.99054407 20.49128723 247.9664917 C19.64621363 244.58388755 19.69844087 241.09580931 19.5703125 237.625 C19.49831714 235.91380009 19.42587037 234.20261912 19.35302734 232.49145508 C19.31602722 231.59520416 19.2790271 230.69895325 19.24090576 229.77554321 C18.63468536 215.25865547 17.71993963 200.91415797 15.97192383 186.48535156 C14.75432292 175.97252336 14.70884852 165.56772032 15 155 C14.34 155 13.68 155 13 155 C13 151.04 13 147.08 13 143 C12.34 143 11.68 143 11 143 C10.06503781 135.93993115 9.87913223 129.05387765 9.9375 121.9375 C9.94201172 120.88111328 9.94652344 119.82472656 9.95117188 118.73632812 C9.96284082 116.15749092 9.97921115 113.57877706 10 111 C9.34 111 8.68 111 8 111 C6.94746362 99.64764338 6.89686642 88.39053108 7 77 C6.34 77 5.68 77 5 77 C4.12198822 66.96557967 3.8823695 57.06394247 4 47 C3.34 47 2.68 47 2 47 C1.71002238 42.39621972 1.42545692 37.79214515 1.14550781 33.18774414 C1.04992305 31.62743512 0.95296061 30.06720977 0.85449219 28.50708008 C0.71169971 26.2406137 0.57417502 23.97387387 0.4375 21.70703125 C0.39375244 21.03041946 0.35000488 20.35380768 0.30493164 19.6566925 C-0.08284612 13.07397967 0 6.63724621 0 0 Z " transform="translate(115,151)" style="fill: #274DE3;"/><path d="M0 0 C77.55 0 155.1 0 235 0 C233 38 233 38 231 50 C230.69648368 52.84121504 230.42351829 55.65372076 230.21875 58.5 C230.13131531 59.62514008 230.13131531 59.62514008 230.04211426 60.77301025 C229.85628541 63.18164753 229.67804446 65.59077601 229.5 68 C229.37021538 69.70022771 229.24000134 71.40042269 229.109375 73.10058594 C228.28303076 83.91937458 227.52168555 94.7424807 226.76953125 105.56665039 C225.22040052 127.40526685 223.12876364 149.21147807 221 171 C220.34 171 219.68 171 219 171 C219.02320313 171.74636719 219.04640625 172.49273437 219.0703125 173.26171875 C219.29298245 187.21040038 218.05264835 201.10140236 217 215 C216.34 215 215.68 215 215 215 C215.01160156 216.0621875 215.02320313 217.124375 215.03515625 218.21875 C215.15802011 233.73627222 215.15802011 233.73627222 214 239 C207.75940491 243.16039673 197.50990515 245 190 245 C190 245.66 190 246.32 190 247 C187.03 247.33 184.06 247.66 181 248 C181 248.66 181 249.32 181 250 C178.96040523 250.50838564 176.91820862 251.00633886 174.875 251.5 C173.16957031 251.91765625 173.16957031 251.91765625 171.4296875 252.34375 C168.18533302 252.96453765 165.29185543 253.12006768 162 253 C162 253.66 162 254.32 162 255 C160.18658024 255.45335494 158.37296075 255.90591971 156.55859375 256.35546875 C154.69356251 256.82528578 152.83200431 257.3089537 150.97265625 257.80078125 C149.92980469 258.07277344 148.88695312 258.34476562 147.8125 258.625 C146.82894531 258.88539063 145.84539062 259.14578125 144.83203125 259.4140625 C142.12709394 259.9737047 139.7516455 260.11066947 137 260 C137 260.66 137 261.32 137 262 C134.2735685 262.7003953 131.54476473 263.3855775 128.8125 264.0625 C127.65911133 264.36124023 127.65911133 264.36124023 126.48242188 264.66601562 C122.28808001 265.69209926 119.21930579 266.3077783 115 265 C113.88367188 264.70222656 112.76734375 264.40445312 111.6171875 264.09765625 C110.38226563 263.75605469 109.14734375 263.41445313 107.875 263.0625 C102.38144846 261.56248532 96.90415594 260.37381825 91.2890625 259.4296875 C88.41619021 258.89041113 85.75133125 257.97825111 83 257 C77.04526877 255.41207167 71.05048671 254.1654626 65 253 C65 252.34 65 251.68 65 251 C63.7625 250.814375 63.7625 250.814375 62.5 250.625 C59.26628895 250.0475516 56.14579002 249.29526127 52.96875 248.4765625 C50.33384391 247.83874793 47.67984559 247.40197684 45 247 C45 246.34 45 245.68 45 245 C41.7 244.67 38.4 244.34 35 244 C35 243.34 35 242.68 35 242 C34.00419922 241.92652344 34.00419922 241.92652344 32.98828125 241.8515625 C32.10527344 241.77679688 31.22226563 241.70203125 30.3125 241.625 C29.44238281 241.55539062 28.57226562 241.48578125 27.67578125 241.4140625 C24.87076977 240.98000233 22.60973108 240.08977781 20 239 C19.70892827 234.30879074 19.4244627 229.61723835 19.14550781 224.92529297 C19.05021502 223.33697316 18.95327236 221.74875127 18.85449219 220.16064453 C18.18803488 209.42252125 17.86724847 198.76024914 18 188 C17.34 188 16.68 188 16 188 C15.67 180.74 15.34 173.48 15 166 C30.51 166 46.02 166 62 166 C62.66 171.94 63.32 177.88 64 184 C64.33 184.33 64.66 184.66 65 185 C65.23701239 187.85877909 65.42219182 190.69883297 65.5625 193.5625 C65.60568359 194.36880859 65.64886719 195.17511719 65.69335938 196.00585938 C65.79975262 198.00368805 65.90040888 200.0018207 66 202 C69.28449298 203.40263045 72.36214823 204.37150256 75.875 205 C80.00955762 205.77987165 83.97626373 206.77538461 88 208 C88 208.66 88 209.32 88 210 C89.175625 210.185625 89.175625 210.185625 90.375 210.375 C93.29576472 210.87858012 96.21219446 211.39027174 99.125 211.9375 C99.95257813 212.09089844 100.78015625 212.24429688 101.6328125 212.40234375 C104 213 104 213 105.98046875 214.02734375 C112.30065036 217.07129969 121.12246283 216.11274651 128 216 C128 215.34 128 214.68 128 214 C128.99 214 129.98 214 131 214 C131 213.34 131 212.68 131 212 C131.89138672 211.84180786 131.89138672 211.84180786 132.80078125 211.68041992 C135.53531159 211.19055412 138.26760036 210.68910875 141 210.1875 C142.40185547 209.9390332 142.40185547 209.9390332 143.83203125 209.68554688 C148.05484645 208.9029972 152.06707948 208.08504262 156.0625 206.48828125 C160 205 160 205 170 203 C170.66 190.79 171.32 178.58 172 166 C172.66 166 173.32 166 174 166 C173.98839844 164.9378125 173.97679687 163.875625 173.96484375 162.78125 C173.95545506 161.35416844 173.94635602 159.92708496 173.9375 158.5 C173.92912109 157.80390625 173.92074219 157.1078125 173.91210938 156.390625 C173.90888672 155.69453125 173.90566406 154.9984375 173.90234375 154.28125 C173.89710693 153.65283203 173.89187012 153.02441406 173.88647461 152.37695312 C174.05243802 148.90207183 174.56850272 145.45197827 175 142 C121.54 142 68.08 142 13 142 C12.03272204 138.13088818 11.757778 134.7858096 11.5625 130.8125 C11.20865711 124.20182829 10.56343344 117.6708761 9.66040039 111.11254883 C8.94220375 105.60275079 9 100.70161032 9 95 C65.43 95 121.86 95 180 95 C180.33 85.43 180.66 75.86 181 66 C181.33 60.06 181.66 54.12 182 48 C123.26 47.67 64.52 47.34 4 47 C3.39574008 41.56166076 2.87588577 36.79793758 2.9375 31.4375 C2.94652344 30.40496094 2.95554688 29.37242187 2.96484375 28.30859375 C2.97644531 27.54675781 2.98804688 26.78492188 3 26 C2.34 26 1.68 26 1 26 C0.67 17.42 0.34 8.84 0 0 Z " transform="translate(184,230)" style="fill: #FCFDFE;"/><path d="M0 0 C50.49 0 100.98 0 153 0 C150 38 150 38 148 55 C147.62516572 60.95025852 147.62516572 60.95025852 147.28125 66.90234375 C146.96243907 72.05188752 146.33483006 77.16213329 145.73046875 82.28442383 C145.16010033 87.2320506 144.77250838 92.15172206 144.5 97.125 C144.1754047 102.92785285 143.5745382 108.62682761 142.80078125 114.38525391 C141.57959057 123.80234015 140.97279175 133.2811158 140.25 142.74658203 C139.271183 155.48458524 138.26185481 168.20794673 136.75219727 180.89501953 C135.80090193 189.19944431 135.25936278 197.53787493 134.69726562 205.8762207 C134.62056641 206.98570068 134.54386719 208.09518066 134.46484375 209.23828125 C134.36610962 210.7238855 134.36610962 210.7238855 134.26538086 212.23950195 C134 215 134 215 133.50219727 217.38061523 C132.84725465 220.79669657 132.67732668 224.20584368 132.5 227.671875 C132.41670948 229.15495032 132.33337487 230.63802317 132.25 232.12109375 C132.12358884 234.4473554 131.99873982 236.7736924 131.875 239.10009766 C131.75388903 241.35342397 131.62720269 243.60638566 131.5 245.859375 C131.46455078 246.56036316 131.42910156 247.26135132 131.39257812 247.98358154 C131.11306052 252.88693948 131.11306052 252.88693948 130 254 C129.78237634 256.26521297 129.62805843 258.53655702 129.5 260.80859375 C129.45939453 261.49051285 129.41878906 262.17243195 129.37695312 262.87501526 C129.24687709 265.06227824 129.12277697 267.24981589 129 269.4375 C128.83831493 272.31151525 128.6708643 275.18511139 128.5 278.05859375 C128.4278125 279.34048584 128.355625 280.62237793 128.28125 281.94311523 C128 285 128 285 127 287 C126.79924966 289.2163798 126.65398609 291.43787823 126.53515625 293.66015625 C126.45653261 295.02539941 126.37775129 296.3906335 126.29882812 297.75585938 C126.18003808 299.89920253 126.0635485 302.04262868 125.95043945 304.1862793 C125.53392827 311.9608536 125.0120031 319.44867456 123 327 C121.68 327 120.36 327 119 327 C119 327.66 119 328.32 119 329 C115.7 329.33 112.4 329.66 109 330 C109 330.66 109 331.32 109 332 C105.37 332.33 101.74 332.66 98 333 C98 333.66 98 334.32 98 335 C96.234375 335.44140625 94.46875 335.8828125 92.703125 336.32421875 C91.97609375 336.50597656 91.2490625 336.68773437 90.5 336.875 C89.09375 337.2265625 87.6875 337.578125 86.28125 337.9296875 C85.57871094 338.1059668 84.87617188 338.28224609 84.15234375 338.46386719 C82.68740471 338.8287726 81.22119508 339.18860624 79.75390625 339.54394531 C75.77506705 340.47745466 75.77506705 340.47745466 72 342 C70.00039988 342.039992 67.99952758 342.04346799 66 342 C66 342.66 66 343.32 66 344 C64.69289063 344.25523437 64.69289063 344.25523437 63.359375 344.515625 C56.34713976 345.94235685 49.64439178 347.6698373 42.88671875 350.015625 C29.62672212 354.53730179 29.62672212 354.53730179 23 354 C23 354.66 23 355.32 23 356 C21.97519531 356.19335938 20.95039063 356.38671875 19.89453125 356.5859375 C18.53380399 356.84869863 17.17312967 357.11173398 15.8125 357.375 C15.13896484 357.50132812 14.46542969 357.62765625 13.77148438 357.7578125 C9.97095733 358.49937875 6.57407098 359.53989995 3 361 C2.01 361 1.02 361 0 361 C-0.73964434 345.32190062 -1.14027702 329.69543984 -1 314 C-3.97 313.34 -6.94 312.68 -10 312 C-10 311.34 -10 310.68 -10 310 C-3.30828025 310.91847134 -3.30828025 310.91847134 -0.63671875 311.625 C2.61914762 312.08805655 4.84914834 311.46676227 8 310.5625 C11.80982469 309.47883813 15.032206 308.81765653 19 309 C19 308.34 19 307.68 19 307 C19.64066406 306.87882812 20.28132812 306.75765625 20.94140625 306.6328125 C24.89548859 305.86674588 28.75670578 305.07131038 32.625 303.9375 C36.44424251 302.8765993 40.06199259 302.4145271 44 302 C44 301.34 44 300.68 44 300 C46.03959477 299.49161436 48.08179138 298.99366114 50.125 298.5 C51.83042969 298.08234375 51.83042969 298.08234375 53.5703125 297.65625 C56.81466698 297.03546235 59.70814457 296.87993232 63 297 C63 296.34 63 295.68 63 295 C65.97 294.67 68.94 294.34 72 294 C72 293.34 72 292.68 72 292 C73.23363281 291.72736328 73.23363281 291.72736328 74.4921875 291.44921875 C75.60851562 291.19785156 76.72484375 290.94648438 77.875 290.6875 C78.96554687 290.44386719 80.05609375 290.20023437 81.1796875 289.94921875 C85.82947355 288.79390381 90.41089614 287.37673116 95 286 C95.66 278.08 96.32 270.16 97 262 C97.66 262 98.32 262 99 262 C98.97679687 261.16984375 98.95359375 260.3396875 98.9296875 259.484375 C98.72644747 245.60598443 99.90411714 231.82677732 101 218 C101.66 218 102.32 218 103 218 C102.97679687 217.22140625 102.95359375 216.4428125 102.9296875 215.640625 C102.77412163 205.99554115 103.63104119 196.64068571 104.67041016 187.06494141 C106.60315521 169.09184411 108.18465821 151.16137287 109.22827148 133.11523438 C109.82252631 123.141075 110.62873046 113.1979643 111.5625 103.25 C111.65881714 102.20841232 111.65881714 102.20841232 111.75708008 101.14578247 C112.82554788 89.66266825 112.82554788 89.66266825 113.51147461 87.05712891 C114.23821329 83.99690896 114.32324912 80.95803524 114.5 77.8203125 C114.54060547 77.12992889 114.58121094 76.43954529 114.62304688 75.72824097 C114.7522935 73.52735114 114.87666568 71.32622853 115 69.125 C115.12352819 66.93092704 115.2482442 64.73695786 115.37695312 62.54318237 C115.49401451 60.54736125 115.60650551 58.5512736 115.71875 56.55517578 C115.97218334 53.35161995 116.47169321 50.16984075 117 47 C39.45 47 -38.1 47 -118 47 C-118 46.67 -118 46.34 -118 46 C-79.06 46 -40.12 46 0 46 C0 30.82 0 15.64 0 0 Z " transform="translate(302,183)" style="fill: #2965F0;"/><path d="M0 0 C15.51 0 31.02 0 47 0 C47.66 5.94 48.32 11.88 49 18 C49.33 18.33 49.66 18.66 50 19 C50.23701239 21.85877909 50.42219182 24.69883297 50.5625 27.5625 C50.60568359 28.36880859 50.64886719 29.17511719 50.69335938 30.00585938 C50.79975262 32.00368805 50.90040888 34.0018207 51 36 C54.28449298 37.40263045 57.36214823 38.37150256 60.875 39 C65.00955762 39.77987165 68.97626373 40.77538461 73 42 C73 42.66 73 43.32 73 44 C74.175625 44.185625 74.175625 44.185625 75.375 44.375 C78.29576472 44.87858012 81.21219446 45.39027174 84.125 45.9375 C85.36636719 46.16759766 85.36636719 46.16759766 86.6328125 46.40234375 C89 47 89 47 90.8828125 48.02734375 C93.8250713 49.37904567 96.53098907 49.43185934 99.75 49.625 C100.92046875 49.69976562 102.0909375 49.77453125 103.296875 49.8515625 C104.18890625 49.90054688 105.0809375 49.94953125 106 50 C106 50.66 106 51.32 106 52 C104.68 52 103.36 52 102 52 C102.33 67.18 102.66 82.36 103 98 C104.98 98 106.96 98 109 98 C106.72232119 99.43409407 105.50763409 100.07393605 102.80078125 99.6796875 C99.47265355 98.87202471 96.17580055 97.97556069 92.875 97.0625 C87.38144846 95.56248532 81.90415594 94.37381825 76.2890625 93.4296875 C73.41619021 92.89041113 70.75133125 91.97825111 68 91 C62.04526877 89.41207167 56.05048671 88.1654626 50 87 C50 86.34 50 85.68 50 85 C48.7625 84.814375 48.7625 84.814375 47.5 84.625 C44.26628895 84.0475516 41.14579002 83.29526127 37.96875 82.4765625 C35.33384391 81.83874793 32.67984559 81.40197684 30 81 C30 80.34 30 79.68 30 79 C26.7 78.67 23.4 78.34 20 78 C20 77.34 20 76.68 20 76 C19.00419922 75.92652344 19.00419922 75.92652344 17.98828125 75.8515625 C17.10527344 75.77679688 16.22226563 75.70203125 15.3125 75.625 C14.44238281 75.55539062 13.57226562 75.48578125 12.67578125 75.4140625 C9.87076977 74.98000233 7.60973108 74.08977781 5 73 C4.70892827 68.30879074 4.4244627 63.61723835 4.14550781 58.92529297 C4.05021502 57.33697316 3.95327236 55.74875127 3.85449219 54.16064453 C3.18803488 43.42252125 2.86724847 32.76024914 3 22 C2.34 22 1.68 22 1 22 C0.67 14.74 0.34 7.48 0 0 Z " transform="translate(199,396)" style="fill: #E7E8EA;"/><path d="M0 0 C77.55 0 155.1 0 235 0 C235 1.98 235 3.96 235 6 C234.67 6 234.34 6 234 6 C234 4.35 234 2.7 234 1 C195.72 1 157.44 1 118 1 C118 15.85 118 30.7 118 46 C139.78 46 161.56 46 184 46 C183 74 183 74 182 82 C181.67 82 181.34 82 181 82 C180.97189943 79.7082422 180.95266351 77.41685674 180.9375 75.125 C180.92589844 73.84882813 180.91429687 72.57265625 180.90234375 71.2578125 C181.04647256 63.4979175 181.56948423 55.74928382 182 48 C123.26 47.67 64.52 47.34 4 47 C3.39574008 41.56166076 2.87588577 36.79793758 2.9375 31.4375 C2.94652344 30.40496094 2.95554688 29.37242187 2.96484375 28.30859375 C2.97644531 27.54675781 2.98804688 26.78492188 3 26 C2.34 26 1.68 26 1 26 C0.67 17.42 0.34 8.84 0 0 Z " transform="translate(184,230)" style="fill: #E7E8EB;"/><path d="M0 0 C56.43 0 112.86 0 171 0 C170.67 0.66 170.34 1.32 170 2 C149.87 2 129.74 2 109 2 C109 16.85 109 31.7 109 47 C74.35 47 39.7 47 4 47 C3.03272204 43.13088818 2.757778 39.7858096 2.5625 35.8125 C2.20865711 29.20182829 1.56343344 22.6708761 0.66040039 16.11254883 C-0.05779625 10.60275079 0 5.70161032 0 0 Z " transform="translate(193,325)" style="fill: #E9E9EB;"/><path d="M0 0 C18.81 0 37.62 0 57 0 C57 6.93 57 13.86 57 21 C46.11 21 35.22 21 24 21 C24 21.99 24 22.98 24 24 C34.89 24 45.78 24 57 24 C57 39.84 57 55.68 57 72 C37.86 72 18.72 72 -1 72 C-1 50 -1 50 0 49 C2.3756852 48.9116033 4.72208674 48.88469695 7.09765625 48.90234375 C8.16094398 48.90446617 8.16094398 48.90446617 9.24571228 48.90663147 C11.51801712 48.91224557 13.79022475 48.92480037 16.0625 48.9375 C17.59960796 48.94251319 19.13671745 48.94707641 20.67382812 48.95117188 C24.44925642 48.96221958 28.22461171 48.97949359 32 49 C32 48.34 32 47.68 32 47 C21.44 47 10.88 47 0 47 C0 31.49 0 15.98 0 0 Z " transform="translate(339,48)" style="fill: #020202;"/><path d="M0 0 C0.33 0 0.66 0 1 0 C2.63952255 8.19761274 2.58252365 16.65047292 3 25 C56.46 25 109.92 25 165 25 C164.67 32.92 164.34 40.84 164 49 C163.34 49 162.68 49 162 49 C162.01047363 49.55236328 162.02094727 50.10472656 162.03173828 50.67382812 C162.2276416 62.64624874 161.87557665 74.16042242 160 86 C158.24623047 86.50660156 158.24623047 86.50660156 156.45703125 87.0234375 C154.90881606 87.47382737 153.36064109 87.9243555 151.8125 88.375 C151.04357422 88.59671875 150.27464844 88.8184375 149.48242188 89.046875 C144.92271924 90.3764566 144.92271924 90.3764566 140.5 92.09375 C136.80830606 93.43198905 133.07840573 93.72710352 129.1875 94.125 C128.39923828 94.21136719 127.61097656 94.29773438 126.79882812 94.38671875 C124.86656916 94.59751064 122.93336737 94.79962896 121 95 C121 95.66 121 96.32 121 97 C120.01 97 119.02 97 118 97 C118 97.66 118 98.32 118 99 C109.93186584 99.84927728 102.79694845 100.5108817 95 98 C94.67 97.34 94.34 96.68 94 96 C98.62 96.66 103.24 97.32 108 98 C108 74.24 108 50.48 108 26 C100.35972656 26.01160156 92.71945312 26.02320313 84.84765625 26.03515625 C80.02148353 26.04026283 75.19531412 26.04507659 70.36914062 26.04882812 C62.70059522 26.05481726 55.0320617 26.06191942 47.36352539 26.07543945 C41.18440559 26.08626599 35.00529852 26.09227634 28.82616997 26.09487724 C26.4629439 26.09673192 24.09971856 26.10035332 21.73649788 26.10573006 C18.43898104 26.11293738 15.14151753 26.11399107 11.84399414 26.11352539 C10.85641113 26.11712067 9.86882812 26.12071594 8.85131836 26.12442017 C7.95804337 26.1230455 7.06476837 26.12167084 6.14442444 26.12025452 C4.97328645 26.12163721 4.97328645 26.12163721 3.77848911 26.12304783 C2 26 2 26 1 25 C0.84213692 23.14825294 0.74892644 21.2909089 0.68359375 19.43359375 C0.64169922 18.30888672 0.59980469 17.18417969 0.55664062 16.02539062 C0.51732422 14.84138672 0.47800781 13.65738281 0.4375 12.4375 C0.39431641 11.24962891 0.35113281 10.06175781 0.30664062 8.83789062 C0.20016454 5.89205216 0.09815159 2.9461257 0 0 Z " transform="translate(194,347)" style="fill: #2C67EF;"/><path d="M0 0 C18.15 0 36.3 0 55 0 C55 6.6 55 13.2 55 20 C44.44 20 33.88 20 23 20 C23 21.65 23 23.3 23 25 C34.22 25 45.44 25 57 25 C57 40.51 57 56.02 57 72 C38.19 72 19.38 72 0 72 C0 64.74 0 57.48 0 50 C10.89 50 21.78 50 33 50 C32.67 49.01 32.34 48.02 32 47 C21.44 46.67 10.88 46.34 0 46 C0 30.82 0 15.64 0 0 Z " transform="translate(271,48)" style="fill: #040404;"/><path d="M0 0 C21.87942464 -0.02337853 43.75884722 -0.04100352 65.63828182 -0.05181217 C75.79767716 -0.0569646 85.95706473 -0.06398723 96.11645508 -0.07543945 C104.97318148 -0.08541847 113.82990226 -0.09186109 122.68663412 -0.09408849 C127.37453601 -0.09539013 132.06242181 -0.09844137 136.75031853 -0.10573006 C141.16694729 -0.11254104 145.5835534 -0.11460665 150.00018692 -0.11310768 C151.6170279 -0.11338173 153.23386968 -0.11535662 154.8507061 -0.11920547 C162.62881095 -0.1368056 170.28471312 -0.09703152 178 1 C178.10683677 10.72214637 178.01877853 20.41154867 177.5625 30.125 C177.52326416 30.98826904 177.48402832 31.85153809 177.44360352 32.7409668 C177.18280681 37.90133772 176.64534857 42.83721144 176 48 C119.57 48 63.14 48 5 48 C5 47.67 5 47.34 5 47 C40.97 47 76.94 47 114 47 C114 31.82 114 16.64 114 1 C76.38 1 38.76 1 0 1 C0 0.67 0 0.34 0 0 Z " transform="translate(188,277)" style="fill: #2E68EF;"/><path d="M0 0 C18.48 0 36.96 0 56 0 C56 7.59 56 15.18 56 23 C45.11 23 34.22 23 23 23 C23 31.25 23 39.5 23 48 C33.89 48 44.78 48 56 48 C56 55.59 56 63.18 56 71 C37.52 71 19.04 71 0 71 C0 47.57 0 24.14 0 0 Z " transform="translate(203,48)" style="fill: #030303;"/><path d="M0 0 C123.42 0 246.84 0 374 0 C373.67 10.23 373.34 20.46 373 31 C372.34 31 371.68 31 371 31 C371.01160156 31.79664063 371.02320313 32.59328125 371.03515625 33.4140625 C371.12478032 43.93848858 371.12478032 43.93848858 370 49 C369.67 49 369.34 49 369 49 C369.33 40.42 369.66 31.84 370 23 C370.66 23 371.32 23 372 23 C371.98839844 21.81921875 371.97679687 20.6384375 371.96484375 19.421875 C371.95546248 17.86458492 371.94636264 16.30729312 371.9375 14.75 C371.92912109 13.97269531 371.92074219 13.19539062 371.91210938 12.39453125 C371.90727539 11.26337891 371.90727539 11.26337891 371.90234375 10.109375 C371.89448853 9.07248535 371.89448853 9.07248535 371.88647461 8.01464844 C372 6 372 6 373 2 C249.91 2 126.82 2 0 2 C0 1.34 0 0.68 0 0 Z " transform="translate(115,151)" style="fill: #7C92EF;"/><path d="M0 0 C11.22 0 22.44 0 34 0 C34 0.33 34 0.66 34 1 C23.11 1 12.22 1 1 1 C1 1.99 1 2.98 1 4 C11.89 4 22.78 4 34 4 C34 19.84 34 35.68 34 52 C14.86 52 -4.28 52 -24 52 C-24 30 -24 30 -23 29 C-20.6243148 28.9116033 -18.27791326 28.88469695 -15.90234375 28.90234375 C-14.83905602 28.90446617 -14.83905602 28.90446617 -13.75428772 28.90663147 C-11.48198288 28.91224557 -9.20977525 28.92480037 -6.9375 28.9375 C-5.40039204 28.94251319 -3.86328255 28.94707641 -2.32617188 28.95117188 C1.44925642 28.96221958 5.22461171 28.97949359 9 29 C9 28.34 9 27.68 9 27 C-1.56 27 -12.12 27 -23 27 C-23 26.67 -23 26.34 -23 26 C-11.78 26 -0.56 26 11 26 C11 27.98 11 29.96 11 32 C0.11 32 -10.78 32 -22 32 C-22 38.27 -22 44.54 -22 51 C-3.85 51 14.3 51 33 51 C33 35.82 33 20.64 33 5 C22.11 5 11.22 5 0 5 C0 3.35 0 1.7 0 0 Z " transform="translate(362,68)" style="fill: #6B6B6B;"/><path d="M0 0 C0.99 0.495 0.99 0.495 2 1 C2 5.95 2 10.9 2 16 C61.07 16 120.14 16 181 16 C180 44 180 44 179 52 C178.67 52 178.34 52 178 52 C177.97189943 49.7082422 177.95266351 47.41685674 177.9375 45.125 C177.92589844 43.84882813 177.91429687 42.57265625 177.90234375 41.2578125 C178.04647256 33.4979175 178.56948423 25.74928382 179 18 C120.26 17.67 61.52 17.34 1 17 C0.67 11.39 0.34 5.78 0 0 Z " transform="translate(187,260)" style="fill: #ADB8EA;"/><path d="M0 0 C19.14 0 38.28 0 58 0 C58 7.26 58 14.52 58 22 C46.78 22 35.56 22 24 22 C24 22.99 24 23.98 24 25 C34.56 25 45.12 25 56 25 C56 25.33 56 25.66 56 26 C45.11 26 34.22 26 23 26 C23 24.35 23 22.7 23 21 C33.56 21 44.12 21 55 21 C55 14.4 55 7.8 55 1 C36.85 1 18.7 1 0 1 C0 0.67 0 0.34 0 0 Z " transform="translate(271,47)" style="fill: #949494;"/><path d="M0 0 C0.33 0 0.66 0 1 0 C1 3.96 1 7.92 1 12 C1.66 12 2.32 12 3 12 C3.0501123 12.94617188 3.10022461 13.89234375 3.15185547 14.8671875 C3.34372847 18.46093709 3.5431747 22.0542368 3.74462891 25.64746094 C3.82994947 27.18706564 3.91335858 28.72677775 3.99462891 30.26660156 C4.42167548 38.33303693 4.9624996 46.33428093 6.03125 54.34375 C6.92466388 61.070631 7.40719227 67.72073452 7.625 74.5 C7.66367188 75.52480469 7.70234375 76.54960937 7.7421875 77.60546875 C7.8343255 80.07016031 7.92029189 82.53488089 8 85 C7.34 85 6.68 85 6 85 C5.20414744 74.312837 4.87174996 63.71600323 5 53 C4.34 53 3.68 53 3 53 C2.00736571 43.64087671 1.89268462 34.39605802 2 25 C1.34 25 0.68 25 0 25 C0 16.75 0 8.5 0 0 Z " transform="translate(127,294)" style="fill: #96A8F2;"/><path d="M0 0 C21.78 0 43.56 0 66 0 C65 28 65 28 64 36 C63.67 36 63.34 36 63 36 C62.97189943 33.7082422 62.95266351 31.41685674 62.9375 29.125 C62.92589844 27.84882813 62.91429687 26.57265625 62.90234375 25.2578125 C63.04647256 17.4979175 63.56948423 9.74928382 64 2 C32.32 1.505 32.32 1.505 0 1 C0 0.67 0 0.34 0 0 Z " transform="translate(302,276)" style="fill: #A8C0FA;"/><path d="M0 0 C0.66 0 1.32 0 2 0 C2.83058514 11.02008501 3.12308347 21.94983981 3 33 C3.66 33 4.32 33 5 33 C5.93078947 45.68200655 6.11185009 58.28637273 6 71 C5.67 71 5.34 71 5 71 C4.12198822 60.96557967 3.8823695 51.06394247 4 41 C3.34 41 2.68 41 2 41 C1.71248519 36.28620997 1.42774953 31.572263 1.14550781 26.8581543 C1.04925322 25.25687202 0.95225979 23.65563397 0.85449219 22.05444336 C0.71351603 19.74344129 0.57526073 17.43228946 0.4375 15.12109375 C0.39375244 14.41351425 0.35000488 13.70593475 0.30493164 12.97691345 C0.04961958 8.63997969 -0.03967208 4.34161361 0 0 Z " transform="translate(115,157)" style="fill: #6680EC;"/><path d="M0 0 C0.33 0 0.66 0 1 0 C1 2.97 1 5.94 1 9 C1.66 9 2.32 9 3 9 C3.29127011 13.54877145 3.57571583 18.09790667 3.85449219 22.64746094 C3.94973243 24.18728466 4.04667112 25.7270045 4.14550781 27.26660156 C4.824048 37.86013714 5.13015776 48.38491124 5 59 C4.67 59 4.34 59 4 59 C1.61223194 28.87347956 1.61223194 28.87347956 2 15 C1.34 15 0.68 15 0 15 C0 10.05 0 5.1 0 0 Z " transform="translate(142,462)" style="fill: #7B91EF;"/><path d="M0 0 C0.66 0 1.32 0 2 0 C2.06058594 1.18078125 2.12117188 2.3615625 2.18359375 3.578125 C2.26802582 5.1354277 2.35267249 6.69271879 2.4375 8.25 C2.47681641 9.02730469 2.51613281 9.80460938 2.55664062 10.60546875 C2.59853516 11.35957031 2.64042969 12.11367187 2.68359375 12.890625 C2.72025146 13.58188477 2.75690918 14.27314453 2.79467773 14.98535156 C3.0070544 17.06921866 3.46738142 18.97693361 4 21 C5.42857556 32.26987387 5.10448436 43.66585768 5 55 C4.67 55 4.34 55 4 55 C3.06503781 47.93993115 2.87913223 41.05387765 2.9375 33.9375 C2.94201172 32.88111328 2.94652344 31.82472656 2.95117188 30.73632812 C2.96284082 28.15749092 2.97921115 25.57877706 3 23 C2.34 23 1.68 23 1 23 C0.67 15.41 0.34 7.82 0 0 Z " transform="translate(122,239)" style="fill: #6A84ED;"/><path d="M0 0 C2.97 0 5.94 0 9 0 C8.67 9.9 8.34 19.8 8 30 C7.34 30 6.68 30 6 30 C6.01160156 30.79664063 6.02320313 31.59328125 6.03515625 32.4140625 C6.12478032 42.93848858 6.12478032 42.93848858 5 48 C4.67 48 4.34 48 4 48 C4.33 39.42 4.66 30.84 5 22 C5.66 22 6.32 22 7 22 C6.98839844 20.81921875 6.97679687 19.6384375 6.96484375 18.421875 C6.95546248 16.86458492 6.94636264 15.30729312 6.9375 13.75 C6.92912109 12.97269531 6.92074219 12.19539062 6.91210938 11.39453125 C6.90888672 10.64042969 6.90566406 9.88632813 6.90234375 9.109375 C6.89710693 8.41811523 6.89187012 7.72685547 6.88647461 7.01464844 C7.00562029 4.90026102 7.42381763 3.03358485 8 1 C5.36 1 2.72 1 0 1 C0 0.67 0 0.34 0 0 Z " transform="translate(480,152)" style="fill: #657FEC;"/><path d="M0 0 C-4.455 0.495 -4.455 0.495 -9 1 C-9 1.66 -9 2.32 -9 3 C-17.03571429 5.27678571 -17.03571429 5.27678571 -21 4 C-6.3769339 -1.59423347 -6.3769339 -1.59423347 0 0 Z " transform="translate(355,482)" style="fill: #9BB6F9;"/><path d="M0 0 C-1.9570868 0.67031719 -3.91571113 1.33614683 -5.875 2 C-6.96554687 2.37125 -8.05609375 2.7425 -9.1796875 3.125 C-12 4 -12 4 -14 4 C-14 3.34 -14 2.68 -14 2 C-12.68 2 -11.36 2 -10 2 C-10 1.34 -10 0.68 -10 0 C-6.26432828 -0.76411467 -3.65188082 -1.07174763 0 0 Z " transform="translate(344,436)" style="fill: #7CA0F7;"/><path d="M0 0 C2.64 0 5.28 0 8 0 C8 0.66 8 1.32 8 2 C8.99 2.33 9.98 2.66 11 3 C6.94393835 2.53199289 3.53411321 2.12046792 0 0 Z " transform="translate(272,439)" style="fill: #738AE7;"/></svg>