<svg id="svg" version="1.1" xmlns="http://www.w3.org/2000/svg" viewBox="0 0 266 190" style="display: block;"><path d="M0 0 C87.78 0 175.56 0 266 0 C266 62.7 266 125.4 266 190 C178.22 190 90.44 190 0 190 C0 127.3 0 64.6 0 0 Z " transform="translate(0,0)" style="fill: #FEFEFE;"/><path d="M0 0 C31.02 0 62.04 0 94 0 C93.38216005 14.82815889 92.65080909 29.35504515 91.0625 44.0625 C90.7899696 46.66636525 90.52021317 49.27050764 90.2507782 51.87469482 C90.07503733 53.57305679 89.89855012 55.27134171 89.7212677 56.96954346 C88.84033077 65.43714496 88.10015974 73.91464481 87.39453125 82.3984375 C86.98791294 87.27155308 86.50030075 92.13571521 86 97 C77.27025461 100.07308794 68.4620308 102.83633741 59.5625 105.375 C58.17877197 105.78709717 58.17877197 105.78709717 56.76708984 106.20751953 C55.87586426 106.45614746 54.98463867 106.70477539 54.06640625 106.9609375 C53.28209229 107.18571777 52.49777832 107.41049805 51.68969727 107.64208984 C45.40243005 108.47871812 39.26099847 106.69670322 33.25390625 104.96875 C32.55732407 104.77277222 31.86074188 104.57679443 31.14305115 104.37487793 C29.6877633 103.96411359 28.23326231 103.55055185 26.77954102 103.13427734 C24.54572481 102.49520076 22.30926442 101.86611645 20.07226562 101.23828125 C18.65348172 100.8365166 17.23485585 100.43419334 15.81640625 100.03125 C15.14670303 99.84268433 14.47699982 99.65411865 13.78700256 99.45983887 C9.11582711 98.11582711 9.11582711 98.11582711 8 97 C7.65691145 94.20270569 7.3776887 91.41992032 7.1328125 88.61328125 C7.00762741 87.23901726 7.00762741 87.23901726 6.87991333 85.83699036 C6.68973698 83.7408166 6.50177958 81.64444083 6.31555176 79.5479126 C5.97389379 75.70647433 5.62548755 71.86566734 5.27636719 68.02490234 C4.67357549 61.38171702 4.07888671 54.73783542 3.48904037 48.09348869 C3.14601106 44.2296947 2.80156356 40.36603981 2.45361328 36.50268555 C2.11101394 32.69862677 1.77188243 28.89427365 1.435215 25.08968544 C1.30803262 23.65878001 1.17967141 22.2279788 1.05004501 20.79729271 C0.86972034 18.80420597 0.69429388 16.81067795 0.51904297 14.81713867 C0.36820755 13.12677742 0.36820755 13.12677742 0.21432495 11.40226746 C-0.02467122 7.60836056 0 3.80142719 0 0 Z " transform="translate(86,54)" style="fill: #264EE4;"/><path d="M0 0 C19.8 0 39.6 0 60 0 C59.54625 5.424375 59.0925 10.84875 58.625 16.4375 C57.38504897 31.28920778 56.1721642 46.14276617 55 61 C51.4832974 62.01492658 47.96107048 63.00920501 44.4375 64 C43.44685547 64.28617187 42.45621094 64.57234375 41.43554688 64.8671875 C31.58071925 67.61737195 24.75852256 66.94260698 15.0625 64 C13.6074707 63.57074219 13.6074707 63.57074219 12.12304688 63.1328125 C9.74619326 62.43029419 7.37273728 61.71629805 5 61 C4.67 54.73 4.34 48.46 4 42 C7.96 42 11.92 42 16 42 C16.33 45.3 16.66 48.6 17 52 C24.92863676 53.44764435 31.287919 54.57069367 39 52 C40.32 52 41.64 52 43 52 C43.33 46.72 43.66 41.44 44 36 C30.47 36 16.94 36 3 36 C2.67 32.04 2.34 28.08 2 24 C16.52 24 31.04 24 46 24 C46 20.04 46 16.08 46 12 C31.15 12 16.3 12 1 12 C0.67 8.04 0.34 4.08 0 0 Z " transform="translate(103,74)" style="fill: #FBFCFE;"/><path d="M0 0 C12.87 0 25.74 0 39 0 C38.09468422 11.36171298 37.17961593 22.72213834 36.24078369 34.08105469 C35.9917916 37.09950784 35.74469209 40.11811291 35.49755859 43.13671875 C35.07266056 48.31019389 34.6370449 53.48268208 34.19470215 58.6546936 C34.02313943 60.67768024 33.85476688 62.70093994 33.6895752 64.72445679 C33.45652573 67.57101038 33.21208983 70.41636801 32.96484375 73.26171875 C32.89718307 74.11838135 32.8295224 74.97504395 32.7598114 75.85766602 C32.22819155 81.77180845 32.22819155 81.77180845 30 84 C27.76908389 84.71952069 25.51055913 85.35439216 23.2421875 85.9453125 C22.57913605 86.12005096 21.91608459 86.29478943 21.23294067 86.474823 C19.11525453 87.031331 16.99522738 87.57826262 14.875 88.125 C13.43863765 88.50067395 12.00243747 88.87696852 10.56640625 89.25390625 C7.04612393 90.1764791 3.5236801 91.0904797 0 92 C-0.495 85.565 -0.495 85.565 -1 79 C0.50240234 78.60167969 0.50240234 78.60167969 2.03515625 78.1953125 C3.37761321 77.83857569 4.72006061 77.48180293 6.0625 77.125 C7.04766602 76.86396484 7.04766602 76.86396484 8.05273438 76.59765625 C9.0340332 76.33662109 9.0340332 76.33662109 10.03515625 76.0703125 C10.69402832 75.89532227 11.35290039 75.72033203 12.03173828 75.54003906 C13.94572948 75.0148904 15.84632815 74.44167345 17.74609375 73.8671875 C21 73 21 73 25 73 C24.97752197 72.17459717 24.95504395 71.34919434 24.93188477 70.4987793 C24.77531596 59.82396155 25.61621565 49.3356729 26.65405273 38.71655273 C26.94068847 35.77983262 27.21624243 32.84222116 27.49023438 29.90429688 C27.66863563 28.02598123 27.84764914 26.14772361 28.02734375 24.26953125 C28.10967758 23.3966597 28.19201141 22.52378815 28.27684021 21.62446594 C28.35684769 20.81229111 28.43685516 20.00011627 28.51928711 19.16333008 C28.58812607 18.45356522 28.65696503 17.74380035 28.72789001 17.01252747 C29 15 29 15 30 11 C20.1 11 10.2 11 0 11 C0 7.37 0 3.74 0 0 Z " transform="translate(133,62)" style="fill: #2965F0;"/><path d="M0 0 C3.96 0 7.92 0 12 0 C12.33 3.3 12.66 6.6 13 10 C13.85464844 10.13277344 14.70929688 10.26554687 15.58984375 10.40234375 C17.24693359 10.66724609 17.24693359 10.66724609 18.9375 10.9375 C20.59072266 11.19853516 20.59072266 11.19853516 22.27734375 11.46484375 C25 12 25 12 26 13 C26.07244053 15.01964199 26.08377188 17.04167124 26.0625 19.0625 C26.05347656 20.16722656 26.04445312 21.27195313 26.03515625 22.41015625 C26.02355469 23.26480469 26.01195312 24.11945313 26 25 C20.07186868 24.41392338 14.68212186 23.19461976 9 21.4375 C6.36 20.633125 3.72 19.82875 1 19 C0.67 12.73 0.34 6.46 0 0 Z " transform="translate(107,116)" style="fill: #E6E7EA;"/><path d="M0 0 C9.9 0 19.8 0 30 0 C30 3.96 30 7.92 30 12 C20.43 12 10.86 12 1 12 C0.67 8.04 0.34 4.08 0 0 Z " transform="translate(103,74)" style="fill: #E9E9EA;"/><path d="M0 0 C9.24 0 18.48 0 28 0 C28 3.96 28 7.92 28 12 C19.09 12 10.18 12 1 12 C0.67 8.04 0.34 4.08 0 0 Z " transform="translate(105,98)" style="fill: #E7E8EA;"/><path d="M0 0 C4.62 0 9.24 0 14 0 C14 1.65 14 3.3 14 5 C14.33 5.33 14.66 5.66 15 6 C15.14355117 10.00220653 15.04216403 13.99441683 15 18 C10.05 18 5.1 18 0 18 C0 12.06 0 6.12 0 0 Z " transform="translate(125,28)" style="fill: #0E0E0E;"/><path d="M0 0 C4.95 0 9.9 0 15 0 C15 5.94 15 11.88 15 18 C10.38 18 5.76 18 1 18 C1 16.35 1 14.7 1 13 C0.67 12.67 0.34 12.34 0 12 C-0.14355117 7.99779347 -0.04216403 4.00558317 0 0 Z " transform="translate(142,28)" style="fill: #0E0E0E;"/><path d="M0 0 C4.62 0 9.24 0 14 0 C14.08441199 5.48677955 13.92037377 10.59280411 13 16 C6.565 17.485 6.565 17.485 0 19 C0 12.73 0 6.46 0 0 Z " transform="translate(133,110)" style="fill: #2965F1;"/><path d="M0 0 C4.62 0 9.24 0 14 0 C14 1.98 14 3.96 14 6 C11.36 6 8.72 6 6 6 C6 7.98 6 9.96 6 12 C8.64 12 11.28 12 14 12 C14 13.98 14 15.96 14 18 C9.38 18 4.76 18 0 18 C0 12.06 0 6.12 0 0 Z " transform="translate(108,28)" style="fill: #010101;"/><path d="M0 0 C5.28 0 10.56 0 16 0 C16 3.96 16 7.92 16 12 C10.72 11.67 5.44 11.34 0 11 C0 7.37 0 3.74 0 0 Z " transform="translate(133,86)" style="fill: #2664F0;"/></svg>