<svg id="svg" version="1.1" xmlns="http://www.w3.org/2000/svg" viewBox="0 0 320 320" style="display: block;"><path d="M0 0 C105.6 0 211.2 0 320 0 C320 105.6 320 211.2 320 320 C214.4 320 108.8 320 0 320 C0 214.4 0 108.8 0 0 Z " transform="translate(0,0)" style="fill: #FEFEFE;"/><path d="M0 0 C1.22847656 -0.02900391 2.45695312 -0.05800781 3.72265625 -0.08789062 C15.06195162 -0.16774482 15.06195162 -0.16774482 19.75 4.3125 C21.79876888 8.41003777 20.97907799 13.68403757 21 18.1875 C21.020625 19.28964844 21.04125 20.39179688 21.0625 21.52734375 C21.07023437 23.11869141 21.07023437 23.11869141 21.078125 24.7421875 C21.09214355 26.19987549 21.09214355 26.19987549 21.10644531 27.68701172 C20.69642983 30.70708463 19.75958574 32.0687942 17.75 34.3125 C19.12154504 37.26659701 20.73863724 39.75258376 22.75 42.3125 C21.35696395 42.44907216 19.95993879 42.54521149 18.5625 42.625 C17.78519531 42.68300781 17.00789063 42.74101562 16.20703125 42.80078125 C13.75 42.3125 13.75 42.3125 11.6328125 39.82421875 C6.77748469 35.59389926 1.03543405 36.75718892 -5.14648438 36.86328125 C-14.72711574 36.79832782 -14.72711574 36.79832782 -18.2590332 33.22509766 C-20.62987066 28.64930543 -20.01189128 23.26295871 -19.875 18.25 C-19.88144531 17.06599609 -19.88789063 15.88199219 -19.89453125 14.66210938 C-19.78604958 5.95892078 -19.78604958 5.95892078 -17.33740234 3.00610352 C-12.30237707 -1.07903921 -6.22500483 0.04838087 0 0 Z " transform="translate(205.25,174.6875)" style="fill: #E8951D;"/><path d="M0 0 C0.76183594 -0.01933594 1.52367187 -0.03867188 2.30859375 -0.05859375 C5.43126732 0.62871915 6.4723572 2.03776217 8.5625 4.4375 C10.02636719 7.18652344 10.02636719 7.18652344 11.359375 10.296875 C11.84277344 11.41191406 12.32617188 12.52695313 12.82421875 13.67578125 C13.31535156 14.83464844 13.80648437 15.99351562 14.3125 17.1875 C14.81910156 18.36183594 15.32570313 19.53617188 15.84765625 20.74609375 C17.09448869 23.63968602 18.33238727 26.53676977 19.5625 29.4375 C21.8389847 27.1610153 22.57917678 25.31970099 23.8046875 22.3515625 C24.23136719 21.33835938 24.65804687 20.32515625 25.09765625 19.28125 C25.98696133 17.14484362 26.87241542 15.00682992 27.75390625 12.8671875 C28.18316406 11.85140625 28.61242187 10.835625 29.0546875 9.7890625 C29.43995605 8.85916504 29.82522461 7.92926758 30.22216797 6.97119141 C31.67478821 4.22523642 33.21231493 2.4557298 35.5625 0.4375 C39.32232637 -0.34910475 42.93546974 0.22848991 46.5625 1.4375 C48.09547297 4.50344594 47.68381455 7.70861853 47.66015625 11.0703125 C47.6587413 11.82214813 47.65732635 12.57398376 47.65586853 13.34860229 C47.65026465 15.7532751 47.63771157 18.15785527 47.625 20.5625 C47.6199855 22.19140491 47.6154225 23.82031127 47.61132812 25.44921875 C47.60029397 29.44534827 47.58302679 33.44140842 47.5625 37.4375 C44.9225 37.4375 42.2825 37.4375 39.5625 37.4375 C39.2325 28.5275 38.9025 19.6175 38.5625 10.4375 C37.31533203 13.21800781 37.31533203 13.21800781 36.04296875 16.0546875 C35.22938133 17.84875206 34.41573254 19.64278948 33.6003418 21.43603516 C33.03570678 22.68202562 32.47415481 23.92941803 31.91577148 25.17822266 C31.11215136 26.97404577 30.29646017 28.76445177 29.48046875 30.5546875 C28.74993286 32.17286377 28.74993286 32.17286377 28.00463867 33.82373047 C26.5625 36.4375 26.5625 36.4375 23.5625 38.4375 C20.125 38.875 20.125 38.875 16.5625 38.4375 C12.46183931 34.33683931 10.3257808 29.13599122 7.9375 23.9375 C7.54304688 23.09574219 7.14859375 22.25398438 6.7421875 21.38671875 C4.89895263 17.43248179 3.1847232 13.49305799 1.5625 9.4375 C1.2325 18.6775 0.9025 27.9175 0.5625 37.4375 C-2.0775 37.4375 -4.7175 37.4375 -7.4375 37.4375 C-7.51165168 32.65034377 -7.56610204 27.86352173 -7.60229492 23.07592773 C-7.61738243 21.44728777 -7.63785506 19.81868844 -7.66381836 18.19018555 C-7.70020449 15.84934465 -7.7172262 13.50904081 -7.73046875 11.16796875 C-7.74595261 10.43974411 -7.76143646 9.71151947 -7.77738953 8.96122742 C-7.77906833 3.91964331 -7.77906833 3.91964331 -6.05175781 1.48144531 C-3.94100709 0.11641656 -2.50438555 0.00422325 0 0 Z " transform="translate(47.4375,173.5625)" style="fill: #066C93;"/><path d="M0 0 C4.63040378 0.44810359 9.47631622 1.97631622 12.875 5.375 C14.49824086 5.59662329 16.123721 5.80189803 17.75 6 C24.57304689 7.18738738 29.36640727 10.31694579 34.875 14.375 C35.83019531 15.03628906 35.83019531 15.03628906 36.8046875 15.7109375 C46.57178554 23.13753278 51.94290724 34.88870726 56.46484375 45.94140625 C56.93019531 47.07449219 57.39554688 48.20757812 57.875 49.375 C58.15472656 50.13296875 58.43445313 50.8909375 58.72265625 51.671875 C60.44409467 54.21610263 62.57968012 54.86296196 65.375 56.0625 C71.94336051 59.14836019 76.76221649 63.28483943 81.875 68.375 C81.545 69.035 81.215 69.695 80.875 70.375 C78.58984375 71.0078125 78.58984375 71.0078125 75.8125 71.5 C74.89339844 71.66757813 73.97429687 71.83515625 73.02734375 72.0078125 C71.96193359 72.18957031 71.96193359 72.18957031 70.875 72.375 C70.875 73.035 70.875 73.695 70.875 74.375 C72.49601788 75.78761529 72.49601788 75.78761529 74.5625 77.1875 C78.01785025 79.6854175 80.95673261 82.2743409 83.875 85.375 C83.545 86.035 83.215 86.695 82.875 87.375 C65.57080731 77.37544603 65.57080731 77.37544603 63.875 72.5 C63.875 71.79875 63.875 71.0975 63.875 70.375 C67.18871 68.16586 68.2196021 68.15018447 72.0625 68.25 C72.96355469 68.26804687 73.86460937 68.28609375 74.79296875 68.3046875 C75.48003906 68.32789063 76.16710937 68.35109375 76.875 68.375 C76.875 67.715 76.875 67.055 76.875 66.375 C76.194375 66.1275 75.51375 65.88 74.8125 65.625 C71.99200689 64.42479016 69.41148592 63.0034468 66.77734375 61.44140625 C64.15959614 59.97396252 61.42765552 58.78264187 58.671875 57.59765625 C54.4467776 54.72275302 52.81364653 49.15434023 50.76782227 44.63623047 C44.40316202 30.65056602 36.06160138 16.93637338 21.03515625 11 C18.88919937 10.37910832 16.90882939 10.07732222 14.6875 9.875 C10.35503688 9.30680812 8.41080467 7.83469021 4.875 5.375 C1.64461158 4.58429452 1.64461158 4.58429452 -1.125 4.375 C0.18807177 7.91840898 1.77319732 10.94929201 3.8125 14.125 C6.29295996 18.1587577 7.8944328 21.95776942 9.21484375 26.48828125 C9.80834926 28.54649141 9.80834926 28.54649141 11.625 30.4375 C13.31330874 33.05437855 12.71270672 34.8621114 12.2109375 37.828125 C11.78414154 41.06383394 11.72192185 44.23680829 11.6875 47.5 C11.66623047 49.23636719 11.66623047 49.23636719 11.64453125 51.0078125 C11.88000709 54.44815437 12.64204494 57.16834218 13.875 60.375 C14.535 60.375 15.195 60.375 15.875 60.375 C15.7925 59.34375 15.71 58.3125 15.625 57.25 C15.91307561 52.78482801 17.16144717 50.85173956 19.875 47.375 C22.09022027 50.14878584 23.6194612 52.82738413 25.0625 56.0625 C27.78362687 61.68004106 31.54664852 65.92850493 35.875 70.375 C32.875 70.375 32.875 70.375 30.46484375 68.328125 C29.15193359 66.99007812 29.15193359 66.99007812 27.8125 65.625 C26.93464844 64.74328125 26.05679688 63.8615625 25.15234375 62.953125 C23.22211868 60.76796455 21.97754982 59.04105267 20.875 56.375 C19.885 58.685 18.895 60.995 17.875 63.375 C15.625 63.75 15.625 63.75 12.875 63.375 C8.45786773 57.97628279 7.73401987 53.86204722 7.75 47.0625 C7.75128906 45.90492188 7.75257813 44.74734375 7.75390625 43.5546875 C7.875 40.375 7.875 40.375 8.6875 36.6875 C8.93762531 32.2686196 7.37210252 29.74284589 5.26953125 25.92578125 C3.9717766 23.55201713 2.90876869 21.1847108 1.875 18.6875 C0.58001094 15.67824264 -0.87908086 13.22081618 -2.875 10.625 C-5.125 7.375 -5.125 7.375 -5.5625 4.5625 C-4.83202917 0.91014587 -3.60845827 0.43301499 0 0 Z " transform="translate(195.125,97.625)" style="fill: #12759B;"/><path d="M0 0 C2.64 0 5.28 0 8 0 C8.33 6.6 8.66 13.2 9 20 C15.6 20.33 22.2 20.66 29 21 C28.96041741 14.4629715 28.96041741 14.4629715 28.90991211 7.92602539 C28.90741455 7.11641357 28.90491699 6.30680176 28.90234375 5.47265625 C28.89448853 4.22367554 28.89448853 4.22367554 28.88647461 2.94946289 C29 1 29 1 30 0 C32.67058851 -0.14115161 35.32432238 -0.04247107 38 0 C38.12400035 4.32322461 38.21452256 8.64549602 38.2746582 12.9699707 C38.29973644 14.43955525 38.33380856 15.90901587 38.37719727 17.37817383 C38.43815499 19.49591681 38.46627316 21.61200576 38.48828125 23.73046875 C38.51446533 25.00301514 38.54064941 26.27556152 38.56762695 27.58666992 C37.85312722 31.883195 36.32885212 33.29513145 33 36 C30.02640551 37.48679725 27.33700821 37.11112605 24.0234375 37.09765625 C23.33819 37.0962413 22.6529425 37.09482635 21.94692993 37.09336853 C19.75624239 37.08776675 17.5656567 37.07521406 15.375 37.0625 C13.89062648 37.05748522 12.40625135 37.05292228 10.921875 37.04882812 C7.28121685 37.03779677 3.64061836 37.02053099 0 37 C0 35.35 0 33.7 0 32 C9.57 31.67 19.14 31.34 29 31 C29 29.35 29 27.7 29 26 C28.03960815 26.02356567 28.03960815 26.02356567 27.05981445 26.04760742 C24.14413369 26.11017115 21.22859445 26.14905808 18.3125 26.1875 C17.30509766 26.21263672 16.29769531 26.23777344 15.25976562 26.26367188 C5.98917868 26.35545986 5.98917868 26.35545986 2 23 C0 21 0 21 -0.22705078 18.84521484 C-0.21657715 17.97590332 -0.20610352 17.1065918 -0.1953125 16.2109375 C-0.18886719 15.26992187 -0.18242188 14.32890625 -0.17578125 13.359375 C-0.15902344 12.37453125 -0.14226562 11.3896875 -0.125 10.375 C-0.11597656 9.38242188 -0.10695313 8.38984375 -0.09765625 7.3671875 C-0.07404116 4.91121866 -0.04110799 2.45572832 0 0 Z " transform="translate(102,185)" style="fill: #107298;"/><path d="M0 0 C1.20849609 0.00322266 2.41699219 0.00644531 3.66210938 0.00976562 C4.92474609 0.01814453 6.18738281 0.02652344 7.48828125 0.03515625 C9.39963867 0.04192383 9.39963867 0.04192383 11.34960938 0.04882812 C14.50004689 0.06062752 17.65039074 0.07709028 20.80078125 0.09765625 C20.80078125 2.07765625 20.80078125 4.05765625 20.80078125 6.09765625 C12.22078125 6.42765625 3.64078125 6.75765625 -5.19921875 7.09765625 C-5.19921875 9.73765625 -5.19921875 12.37765625 -5.19921875 15.09765625 C-3.48025391 15.15373047 -3.48025391 15.15373047 -1.7265625 15.2109375 C-0.19658429 15.27664209 1.33336222 15.34308784 2.86328125 15.41015625 C3.9915332 15.44399414 3.9915332 15.44399414 5.14257812 15.47851562 C11.12353702 15.76332319 16.39859559 16.69547059 20.80078125 21.09765625 C21.36033984 24.8084132 21.35520294 28.38687343 20.80078125 32.09765625 C18.51530107 34.62371329 16.77940835 35.6083427 13.80078125 37.09765625 C11.69549192 37.1830952 9.58746968 37.2048035 7.48046875 37.1953125 C6.22363281 37.19208984 4.96679688 37.18886719 3.671875 37.18554688 C2.35316406 37.17716797 1.03445312 37.16878906 -0.32421875 37.16015625 C-1.66406086 37.15514114 -3.00390475 37.15057826 -4.34375 37.14648438 C-7.62895081 37.13466711 -10.91406272 37.11819242 -14.19921875 37.09765625 C-14.19921875 35.44765625 -14.19921875 33.79765625 -14.19921875 32.09765625 C-13.44713135 32.0726001 -12.69504395 32.04754395 -11.92016602 32.02172852 C-8.53382679 31.90615111 -5.14779262 31.7832528 -1.76171875 31.66015625 C-0.57771484 31.62083984 0.60628906 31.58152344 1.82617188 31.54101562 C2.95087891 31.49912109 4.07558594 31.45722656 5.234375 31.4140625 C6.27650146 31.37740479 7.31862793 31.34074707 8.39233398 31.30297852 C10.75076385 31.36250284 10.75076385 31.36250284 11.80078125 30.09765625 C11.84171062 27.76468192 11.84319848 25.430604 11.80078125 23.09765625 C7.92984082 21.16218603 2.84670586 21.76418529 -1.45898438 21.66796875 C-6.1473527 21.48365943 -9.39189915 21.13453593 -13.19921875 18.09765625 C-15.17289374 14.15030627 -14.7770463 9.39008947 -14.19921875 5.09765625 C-10.07477394 0.41585403 -5.98737717 -0.02810975 0 0 Z " transform="translate(160.19921875,173.90234375)" style="fill: #E89319;"/><path d="M0 0 C1.18819336 -0.00386719 1.18819336 -0.00386719 2.40039062 -0.0078125 C3.22861328 -0.00007812 4.05683594 0.00765625 4.91015625 0.015625 C5.73451172 0.00789062 6.55886719 0.00015625 7.40820312 -0.0078125 C8.20162109 -0.00523437 8.99503906 -0.00265625 9.8125 0 C10.90099243 0.00338379 10.90099243 0.00338379 12.01147461 0.00683594 C13.97265625 0.265625 13.97265625 0.265625 16.97265625 2.265625 C17.31323242 4.51220703 17.31323242 4.51220703 17.265625 7.2734375 C17.25595703 8.25957031 17.24628906 9.24570313 17.23632812 10.26171875 C17.21119141 11.29425781 17.18605469 12.32679688 17.16015625 13.390625 C17.13985352 14.95103516 17.13985352 14.95103516 17.11914062 16.54296875 C17.08370853 19.11770127 17.03430846 21.6914083 16.97265625 24.265625 C15.65265625 24.265625 14.33265625 24.265625 12.97265625 24.265625 C12.49183594 23.77449219 12.01101562 23.28335938 11.515625 22.77734375 C10.0581822 21.04586349 10.0581822 21.04586349 7.7109375 20.97265625 C6.51017578 21.02486328 6.51017578 21.02486328 5.28515625 21.078125 C4.47691406 21.10519531 3.66867188 21.13226563 2.8359375 21.16015625 C1.91361328 21.21236328 1.91361328 21.21236328 0.97265625 21.265625 C2.62265625 22.915625 4.27265625 24.565625 5.97265625 26.265625 C4.34801783 26.31957978 2.72287084 26.35839695 1.09765625 26.390625 C0.19273437 26.41382813 -0.7121875 26.43703125 -1.64453125 26.4609375 C-4.02734375 26.265625 -4.02734375 26.265625 -6.02734375 24.265625 C-6.28613281 22.05078125 -6.28613281 22.05078125 -6.29296875 19.328125 C-6.29554688 18.35101563 -6.298125 17.37390625 -6.30078125 16.3671875 C-6.29304687 15.34367188 -6.2853125 14.32015625 -6.27734375 13.265625 C-6.28507813 12.24210938 -6.2928125 11.21859375 -6.30078125 10.1640625 C-6.29820312 9.18695313 -6.295625 8.20984375 -6.29296875 7.203125 C-6.29071289 6.30464844 -6.28845703 5.40617188 -6.28613281 4.48046875 C-5.80431535 0.35683853 -3.65918622 0.011393 0 0 Z " transform="translate(201.02734375,179.734375)" style="fill: #FEFCFA;"/><path d="M0 0 C2.97 0 5.94 0 9 0 C9.33 10.23 9.66 20.46 10 31 C22.87 31.495 22.87 31.495 36 32 C36 33.65 36 35.3 36 37 C31.9615943 37.0744389 27.92345707 37.12873729 23.88452148 37.16479492 C22.51205483 37.17983432 21.13963586 37.20027133 19.76733398 37.22631836 C17.78911344 37.26291221 15.81053486 37.27816698 13.83203125 37.29296875 C12.64327393 37.3086792 11.4545166 37.32438965 10.22973633 37.34057617 C6.65619131 36.96374532 4.84323932 36.15919441 2 34 C-0.48360441 30.27459338 -0.2315867 28.36937027 -0.1953125 23.92578125 C-0.1924826 23.2419487 -0.18965271 22.55811615 -0.18673706 21.8535614 C-0.17555684 19.67302835 -0.15045691 17.49290855 -0.125 15.3125 C-0.11496738 13.83268823 -0.10584202 12.35287001 -0.09765625 10.87304688 C-0.07562481 7.248564 -0.04111002 3.62432234 0 0 Z " transform="translate(230,174)" style="fill: #E89825;"/><path d="M0 0 C1.20849609 0.00322266 2.41699219 0.00644531 3.66210938 0.00976562 C4.92474609 0.01814453 6.18738281 0.02652344 7.48828125 0.03515625 C9.39963867 0.04192383 9.39963867 0.04192383 11.34960938 0.04882812 C14.50004689 0.06062752 17.65039074 0.07709028 20.80078125 0.09765625 C20.80078125 0.42765625 20.80078125 0.75765625 20.80078125 1.09765625 C19.65863159 1.13524048 19.65863159 1.13524048 18.4934082 1.17358398 C15.03320749 1.28984673 11.57325871 1.41243603 8.11328125 1.53515625 C6.91509766 1.57447266 5.71691406 1.61378906 4.48242188 1.65429688 C3.32548828 1.69619141 2.16855469 1.73808594 0.9765625 1.78125 C-0.08651123 1.81790771 -1.14958496 1.85456543 -2.24487305 1.89233398 C-5.00131347 2.08390215 -7.5313459 2.37939421 -10.19921875 3.09765625 C-12.18131852 5.84584367 -12.53073619 8.52152052 -12.82421875 11.84765625 C-12.89898437 12.646875 -12.97375 13.44609375 -13.05078125 14.26953125 C-13.09976563 14.8728125 -13.14875 15.47609375 -13.19921875 16.09765625 C-13.52921875 16.09765625 -13.85921875 16.09765625 -14.19921875 16.09765625 C-14.48703361 12.38804249 -14.63654047 8.79889128 -14.19921875 5.09765625 C-10.07477394 0.41585403 -5.98737717 -0.02810975 0 0 Z " transform="translate(160.19921875,173.90234375)" style="fill: #EEAE55;"/><path d="M0 0 C4.87362847 0.45336079 7.39042389 1.7089159 11 5 C10.01 5.66 9.02 6.32 8 7 C5.73828125 6.3203125 5.73828125 6.3203125 3.3125 5.125 C2.10013672 4.54105469 2.10013672 4.54105469 0.86328125 3.9453125 C0.24839844 3.63335937 -0.36648437 3.32140625 -1 3 C-0.67 2.01 -0.34 1.02 0 0 Z " transform="translate(256,153)" style="fill: #1C7B9F;"/><path d="M0 0 C0.515625 0.66 1.03125 1.32 1.5625 2 C4.61208585 5.75333644 7.7986681 9.37602035 11 13 C6.95197541 13 6.08620154 11.55007158 3.25 8.75 C2.43015625 7.96109375 1.6103125 7.1721875 0.765625 6.359375 C-1 4 -1 4 -0.765625 1.703125 C-0.38664063 0.86007813 -0.38664063 0.86007813 0 0 Z " transform="translate(220,155)" style="fill: #378CAC;"/><path d="M0 0 C0.66 0.33 1.32 0.66 2 1 C2.59355614 3.64860427 2.74209269 6.29197322 3 9 C1.68 9 0.36 9 -1 9 C-1.625 5.625 -1.625 5.625 -2 2 C-1.34 1.34 -0.68 0.68 0 0 Z " transform="translate(192,98)" style="fill: #217FA2;"/><path d="M0 0 C2.02054804 1.64169528 4.02043058 3.30911778 6 5 C6 5.33 6 5.66 6 6 C4.54257537 6.08096803 3.08387193 6.13917774 1.625 6.1875 C0.81289062 6.22230469 0.00078125 6.25710937 -0.8359375 6.29296875 C-1.55007812 6.19628906 -2.26421875 6.09960938 -3 6 C-3.66 5.01 -4.32 4.02 -5 3 C-3.02 3 -1.04 3 1 3 C0.67 2.01 0.34 1.02 0 0 Z " transform="translate(222,211)" style="fill: #EC9B29;"/><path d="M0 0 C0 2.31 0 4.62 0 7 C-0.66 7 -1.32 7 -2 7 C-2.38133299 5.0085944 -2.71325582 3.00720923 -3 1 C-2 0 -2 0 0 0 Z " transform="translate(280,205)" style="fill: #F2C380;"/></svg>