<svg id="svg" version="1.1" xmlns="http://www.w3.org/2000/svg" viewBox="0 0 532 286" style="display: block;"><path d="M0 0 C175.56 0 351.12 0 532 0 C532 94.38 532 188.76 532 286 C356.44 286 180.88 286 0 286 C0 191.62 0 97.24 0 0 Z " transform="translate(0,0)" style="fill: #FEFEFE;"/><path d="M0 0 C2.79346251 0.01611613 5.58548707 0.00007661 8.37890625 -0.01904297 C10.1757844 -0.01706101 11.97266167 -0.01321831 13.76953125 -0.00732422 C14.59369537 -0.01339691 15.4178595 -0.0194696 16.26699829 -0.02572632 C23.32218567 0.0589435 29.74941961 1.52604807 35.10546875 6.45361328 C35.67136719 6.96021484 36.23726563 7.46681641 36.8203125 7.98876953 C39.25411701 10.52133712 39.30383593 12.44267864 39.3449707 15.83740234 C39.36422356 17.21958954 39.36422356 17.21958954 39.38386536 18.62969971 C39.39125229 19.62862244 39.39863922 20.62754517 39.40625 21.65673828 C39.41432175 22.68289246 39.42239349 23.70904663 39.43070984 24.76629639 C39.44455764 26.94183662 39.45527667 29.11739864 39.46313477 31.29296875 C39.48032768 34.6138657 39.52420597 37.93376213 39.56835938 41.25439453 C39.57848794 43.36766846 39.58700353 45.48095085 39.59375 47.59423828 C39.61125809 48.58506409 39.62876617 49.57588989 39.64680481 50.59674072 C39.62827408 56.51317872 39.11601342 59.88818117 35.16796875 64.39111328 C32.91796875 65.76611328 32.91796875 65.76611328 31.16796875 66.39111328 C35.21249203 71.2134295 39.26699942 75.44643065 44.16796875 79.39111328 C44.16796875 79.72111328 44.16796875 80.05111328 44.16796875 80.39111328 C41.53714125 80.63832561 38.93001034 80.81377017 36.29296875 80.95361328 C35.5659375 81.02902344 34.83890625 81.10443359 34.08984375 81.18212891 C31.51767623 81.28366183 29.63432248 81.16923196 27.16796875 80.39111328 C25.03417969 78.37402344 25.03417969 78.37402344 22.78515625 75.90283203 C17.38427076 70.59859616 12.96935604 70.48903439 5.77218628 70.45896912 C3.23577319 70.48917151 0.70324124 70.56034439 -1.83203125 70.64111328 C-23.27547611 71.14426927 -23.27547611 71.14426927 -30.83203125 65.39111328 C-34.36084236 61.69016505 -35.94868725 59.1889349 -35.99316406 54.12841797 C-36.00277161 53.24700134 -36.01237915 52.36558472 -36.02227783 51.4574585 C-36.02865265 50.02469574 -36.02865265 50.02469574 -36.03515625 48.56298828 C-36.04085632 47.5812262 -36.0465564 46.59946411 -36.0524292 45.58795166 C-36.06188762 43.50656209 -36.06841651 41.4251575 -36.07226562 39.34375 C-36.08194968 36.16786299 -36.11295645 32.99262897 -36.14453125 29.81689453 C-36.15106343 27.79476296 -36.15631306 25.77262675 -36.16015625 23.75048828 C-36.17250305 22.80341003 -36.18484985 21.85633179 -36.1975708 20.8805542 C-36.17605699 14.47160314 -35.32349813 10.03357815 -30.76953125 5.20361328 C-21.27596444 -0.65411943 -10.78305723 -0.07414302 0 0 Z " transform="translate(352.83203125,169.60888671875)" style="fill: #E48E02;"/><path d="M0 0 C1.29808594 -0.02835938 2.59617187 -0.05671875 3.93359375 -0.0859375 C8.16267856 0.45123366 9.64406126 1.31807646 12.5625 4.375 C14.1953125 6.9140625 14.1953125 6.9140625 15.6875 10 C15.96972412 10.58265625 16.25194824 11.1653125 16.54272461 11.765625 C21.14844415 21.47765949 25.17411397 31.46852428 29.31152344 41.38574219 C30.93567194 45.26670907 32.58680947 49.1356346 34.25 53 C34.93642578 54.59714844 34.93642578 54.59714844 35.63671875 56.2265625 C35.94222656 56.93554688 36.24773437 57.64453125 36.5625 58.375 C39.12297416 55.29362708 40.42554563 52.39276188 41.75 48.625 C43.91887875 42.80463584 46.48422688 37.34978255 49.33422852 31.83569336 C51.31502279 27.96957034 53.15392243 24.0787529 54.8671875 20.0859375 C55.44774902 18.7412439 55.44774902 18.7412439 56.04003906 17.36938477 C56.78724999 15.62297795 57.52167674 13.87102786 58.24121094 12.11303711 C60.541509 6.76264672 62.53084472 3.45058391 67.5625 0.375 C71.21875 -0.25390625 71.21875 -0.25390625 75.0625 -0.1875 C76.3309375 -0.18878906 77.599375 -0.19007813 78.90625 -0.19140625 C83.08323306 0.45566912 85.29426703 1.74170988 88.5625 4.375 C89.9576713 7.16534261 89.68205162 9.44725972 89.67602539 12.56884766 C89.67591209 14.52064438 89.67591209 14.52064438 89.67579651 16.51187134 C89.67068947 17.93760211 89.66547347 19.3633325 89.66015625 20.7890625 C89.65829147 22.24351961 89.65686785 23.69797734 89.65586853 25.1524353 C89.65204805 28.98292776 89.64222176 32.81338237 89.63116455 36.64385986 C89.62094035 40.55163053 89.61636874 44.45940731 89.61132812 48.3671875 C89.60059908 56.03647759 89.58300607 63.70572868 89.5625 71.375 C84.6125 71.375 79.6625 71.375 74.5625 71.375 C74.2325 52.565 73.9025 33.755 73.5625 14.375 C72.5725 16.685 71.5825 18.995 70.5625 21.375 C69.57037102 23.54528213 68.57048331 25.71203581 67.5625 27.875 C66.02312745 31.1952153 64.50418742 34.51106269 63.0625 37.875 C61.12660159 42.39209628 59.04522643 46.83719748 56.97265625 51.29296875 C55.92712532 53.57807652 54.93722578 55.85782448 54 58.1875 C51.78020941 63.10964435 49.39890537 67.64661848 45.4375 71.375 C40.26004645 73.17585341 34.61669193 73.74851705 29.50390625 71.44921875 C20.30519125 64.50408649 16.5447017 50.05511645 12 39.8125 C11.1650618 37.93748687 10.32935003 36.06282036 9.49342346 34.18824768 C8.73712351 32.49120766 7.98262857 30.79336353 7.22827148 29.09545898 C5.02713635 24.17927868 2.79142814 19.27864191 0.5625 14.375 C0.2325 33.185 -0.0975 51.995 -0.4375 71.375 C-5.3875 71.375 -10.3375 71.375 -15.4375 71.375 C-15.4375 49.925 -15.4375 28.475 -15.4375 6.375 C-14.7775 6.375 -14.1175 6.375 -13.4375 6.375 C-13.19 5.75625 -12.9425 5.1375 -12.6875 4.5 C-9.83759548 -0.34483769 -5.18546055 0.05139208 0 0 Z " transform="translate(52.4375,168.625)" style="fill: #04628B;"/><path d="M0 0 C11.98060345 5.16810345 11.98060345 5.16810345 16.1875 9.375 C18.31403014 9.61466461 18.31403014 9.61466461 20.8125 9.625 C30.79751442 10.33727316 40.38664898 14.81766009 49.1875 19.375 C49.1875 20.035 49.1875 20.695 49.1875 21.375 C49.88230469 21.59929688 50.57710938 21.82359375 51.29296875 22.0546875 C54.85327865 23.67868851 57.57857928 25.95123363 60.5 28.5 C61.07468018 28.99717529 61.64936035 29.49435059 62.24145508 30.0065918 C63.89959679 31.45242044 65.54563718 32.91073498 67.1875 34.375 C67.93773437 35.03886719 68.68796875 35.70273437 69.4609375 36.38671875 C83.47814358 49.57433508 90.88816391 67.21498301 98.54882812 84.47265625 C99.7333295 87.12104059 100.95088013 89.75058729 102.1875 92.375 C102.5688208 93.21023193 102.9501416 94.04546387 103.34301758 94.90600586 C106.16460076 100.60210235 108.77904064 102.96648464 114.625 105.3125 C125.49806794 110.21233202 142.36398847 118.91729569 147.421875 130.10546875 C147.67453125 130.85441406 147.9271875 131.60335937 148.1875 132.375 C143.93606837 134.29231231 139.6260976 135.18536873 135.0625 136 C133.98935547 136.20109375 133.98935547 136.20109375 132.89453125 136.40625 C129.94854209 136.94588914 127.18887837 137.375 124.1875 137.375 C127.10062861 141.49356114 129.82393358 143.88943202 134.1875 146.4375 C139.17272109 149.46666704 143.20131124 152.96897295 147.3125 157.0625 C147.88097656 157.62138916 148.44945312 158.18027832 149.03515625 158.75610352 C151.7755862 161.5530674 153.46513862 163.5263788 154.1875 167.375 C153.65640625 166.96507812 153.1253125 166.55515625 152.578125 166.1328125 C151.87171875 165.59398437 151.1653125 165.05515625 150.4375 164.5 C149.74140625 163.96632812 149.0453125 163.43265625 148.328125 162.8828125 C146.34027397 161.48261086 144.38906614 160.39644735 142.1875 159.375 C142.1875 158.715 142.1875 158.055 142.1875 157.375 C141.424375 157.16875 140.66125 156.9625 139.875 156.75 C130.22661939 153.15229876 121.45275029 147.93275038 115.125 139.6875 C114.1875 137.375 114.1875 137.375 114.265625 135.3671875 C115.1875 133.375 115.1875 133.375 117.70703125 132.14453125 C125.23326453 129.9571918 132.34912962 128.6574638 140.1875 128.375 C130.67471095 120.64732692 121.47890659 114.34733855 109.75756836 110.59155273 C100.82585598 107.58846799 97.57999657 101.09410827 93.49609375 93.15625 C90.15365819 86.39225063 87.21486517 79.4319519 84.30810547 72.47167969 C80.12582305 62.65024238 74.82272016 53.75678049 67.8125 45.6875 C67.34046143 45.14061523 66.86842285 44.59373047 66.38208008 44.03027344 C53.1935781 28.99453647 37.59699357 19.1671754 17.640625 16.9453125 C13.30438141 16.22914557 10.69956276 14.94480202 7.1875 12.375 C7.1875 11.715 7.1875 11.055 7.1875 10.375 C6.300625 10.08625 5.41375 9.7975 4.5 9.5 C1.1875 8.375 1.1875 8.375 -1.3125 7.25 C-4.26021374 6.21830019 -6.71172808 6.23077805 -9.8125 6.375 C-10.80448269 8.96124059 -10.96801503 10.01756625 -9.84375 12.6015625 C-9.3384375 13.39304687 -8.833125 14.18453125 -8.3125 15 C-7.75304687 15.89460938 -7.19359375 16.78921875 -6.6171875 17.7109375 C-4.89585375 20.3273005 -4.89585375 20.3273005 -3.1328125 22.4765625 C2.12914186 29.14493784 4.49569028 36.3756258 7.18676758 44.32788086 C8.99436602 49.5346321 10.78794743 53.81691673 14.25 58.1875 C16.67134129 61.25968018 17.64542014 62.92751839 17.3125 66.875 C16.84042921 69.19500601 16.19309303 71.35867983 15.42578125 73.59765625 C11.27626381 85.72234378 12.08600912 97.68253185 17.1875 109.375 C17.65542969 110.49648437 17.65542969 110.49648437 18.1328125 111.640625 C19.14039044 113.71833544 19.14039044 113.71833544 22.1875 114.375 C22.20167969 113.62476563 22.21585937 112.87453125 22.23046875 112.1015625 C22.65243898 103.04630948 25.20700148 96.84574778 30.1875 89.375 C30.8475 89.375 31.5075 89.375 32.1875 89.375 C32.6 90.36757812 33.0125 91.36015625 33.4375 92.3828125 C38.92027221 105.36739422 45.04304038 117.52150303 54.1875 128.375 C54.69796875 128.99503906 55.2084375 129.61507812 55.734375 130.25390625 C56.87570433 131.63568418 58.02984915 133.00686718 59.1875 134.375 C56.15041295 133.02518353 54.15008753 131.53583261 51.875 129.125 C49.58370481 126.74576597 47.27944438 124.60693254 44.6875 122.5625 C39.23796295 117.99866649 35.20784332 111.7692878 32.1875 105.375 C31.94966797 106.47908203 31.94966797 106.47908203 31.70703125 107.60546875 C29.2163109 118.0224594 29.2163109 118.0224594 24.1875 121.375 C20.58344854 121.55520257 19.36178432 120.5237793 16.625 118.1875 C8.38165854 108.67595216 6.59905613 98.68405858 6.81640625 86.26953125 C7.3364302 80.8120167 8.69429874 75.84262908 10.3125 70.6171875 C11.10618926 67.67628532 11.36977617 65.39394905 11.1875 62.375 C10.5275 62.375 9.8675 62.375 9.1875 62.375 C5.01684953 54.41477372 1.12155289 46.56776047 -1.8125 38.0625 C-4.33491995 30.85246653 -8.07956967 25.37675846 -12.8125 19.375 C-15.75465567 15.13435105 -17.71278203 11.66415694 -16.8125 6.375 C-12.57373379 -1.11348697 -8.10192896 -1.80042866 0 0 Z " transform="translate(341.8125,23.625)" style="fill: #09658D;"/><path d="M0 0 C4.95 0 9.9 0 15 0 C15.01458252 1.08007324 15.02916504 2.16014648 15.04418945 3.27294922 C15.10207546 7.27263838 15.17930773 11.27175876 15.26245117 15.27099609 C15.29574643 17.00332421 15.32376397 18.735762 15.34643555 20.46826172 C15.37989807 22.95588007 15.43220658 25.44248904 15.48828125 27.9296875 C15.49467117 28.70682098 15.5010611 29.48395447 15.50764465 30.28463745 C15.53966898 32.69967927 15.53966898 32.69967927 16 36 C19.85563886 38.57042591 23.12703456 38.35087551 27.60546875 38.4140625 C28.34945923 38.43170654 29.09344971 38.44935059 29.85998535 38.4675293 C32.63560488 38.5305313 35.41158462 38.57676297 38.1875 38.625 C44.395625 38.74875 50.60375 38.8725 57 39 C57 26.13 57 13.26 57 0 C62.28 0 67.56 0 73 0 C73.04947742 7.86538783 73.08575667 15.73068482 73.10986328 23.59619141 C73.11878335 26.27139966 73.13355637 28.94639389 73.15087891 31.62158203 C73.17516701 35.46910308 73.18649245 39.31647872 73.1953125 43.1640625 C73.20563507 44.35802643 73.21595764 45.55199036 73.22659302 46.78213501 C73.22674408 47.90284393 73.22689514 49.02355286 73.22705078 50.17822266 C73.231492 51.15973297 73.23593323 52.14124329 73.24050903 53.15249634 C72.88548977 57.35574245 72.18150616 60.89411024 69.046875 63.828125 C68.28890625 64.29734375 67.5309375 64.7665625 66.75 65.25 C66.00234375 65.72953125 65.2546875 66.2090625 64.484375 66.703125 C57.46925427 70.36510626 51.1426196 70.26365294 43.3828125 70.1953125 C42.17051971 70.1924826 40.95822693 70.18965271 39.709198 70.18673706 C35.84769711 70.17556667 31.98643047 70.15046737 28.125 70.125 C25.50260752 70.11496616 22.8802114 70.10584102 20.2578125 70.09765625 C13.83845178 70.07563754 7.41926558 70.04112886 1 70 C1 66.7 1 63.4 1 60 C2.48846436 59.98018066 3.97692871 59.96036133 5.51049805 59.93994141 C11.03638539 59.86383138 16.56201127 59.77512182 22.08764648 59.68261719 C24.47854447 59.64434985 26.86949959 59.60949307 29.26049805 59.578125 C32.69861256 59.53242628 36.13633452 59.47443878 39.57421875 59.4140625 C40.64210129 59.40251129 41.70998383 59.39096008 42.81022644 59.37905884 C43.81088638 59.35918915 44.81154633 59.33931946 45.8425293 59.31884766 C47.15824165 59.29886215 47.15824165 59.29886215 48.50053406 59.2784729 C51.2797768 58.96882924 53.45947468 58.14338326 56 57 C56.33 54.36 56.66 51.72 57 49 C55.53361084 49.01571045 55.53361084 49.01571045 54.03759766 49.03173828 C50.36608631 49.06828974 46.69459061 49.09102662 43.02294922 49.10986328 C41.44219242 49.11984159 39.86145369 49.13342907 38.28076172 49.15087891 C12.59562017 49.42706322 12.59562017 49.42706322 2.5625 40.9375 C-0.64027714 36.96605635 -0.13001542 32.67198424 -0.09765625 27.83203125 C-0.0962413 27.03721848 -0.09482635 26.2424057 -0.09336853 25.42350769 C-0.08777378 22.88646675 -0.07522228 20.34951425 -0.0625 17.8125 C-0.05748432 16.09179815 -0.05292153 14.37109492 -0.04882812 12.65039062 C-0.03780607 8.4335597 -0.02054506 4.21679484 0 0 Z " transform="translate(155,191)" style="fill: #09658D;"/><path d="M0 0 C1.04077698 0.00007553 2.08155396 0.00015106 3.15386963 0.00022888 C4.27066101 0.00539017 5.38745239 0.01055145 6.53808594 0.01586914 C7.68662048 0.01728409 8.83515503 0.01869904 10.01849365 0.02015686 C13.68650925 0.02575396 17.35446379 0.03830596 21.02246094 0.05102539 C23.50943922 0.05604076 25.99641846 0.06060361 28.48339844 0.06469727 C34.57977613 0.07572244 40.67610818 0.09298512 46.77246094 0.11352539 C46.77246094 3.41352539 46.77246094 6.71352539 46.77246094 10.11352539 C45.30381592 10.13858154 43.8351709 10.1636377 42.32202148 10.18945312 C36.88198869 10.28350401 31.44208428 10.38373046 26.00219727 10.48583984 C23.64610798 10.52919747 21.28998711 10.57087193 18.93383789 10.61083984 C15.55052155 10.66852215 12.16736437 10.73222271 8.78417969 10.79711914 C7.72784836 10.81383163 6.67151703 10.83054413 5.58317566 10.84776306 C4.11199028 10.87768089 4.11199028 10.87768089 2.61108398 10.90820312 C1.74726608 10.92374741 0.88344818 10.93929169 -0.00654602 10.95530701 C-2.40119331 11.03362278 -2.40119331 11.03362278 -5.22753906 12.11352539 C-5.1405178 14.38508037 -5.03234385 16.65583282 -4.91503906 18.92602539 C-4.85703125 20.1905957 -4.79902344 21.45516602 -4.73925781 22.75805664 C-4.48814842 25.97403474 -4.48814842 25.97403474 -3.11572266 27.80004883 C-0.28284122 29.77068525 2.07486688 29.4825853 5.49511719 29.48461914 C6.85254128 29.50202507 8.2099631 29.51960914 9.56738281 29.53735352 C11.6910471 29.54734895 13.81454579 29.55104198 15.93823242 29.54931641 C27.62918702 29.56987735 37.12592631 30.68869678 45.77246094 39.11352539 C46.92072944 41.41006239 46.88807269 42.69665706 46.87011719 45.24633789 C46.8652832 46.45483398 46.8652832 46.45483398 46.86035156 47.68774414 C46.8477832 48.95038086 46.8477832 48.95038086 46.83496094 50.23852539 C46.83044922 51.08801758 46.8259375 51.93750977 46.82128906 52.81274414 C46.80948968 54.91303448 46.791554 57.01328869 46.77246094 59.11352539 C46.11246094 59.11352539 45.45246094 59.11352539 44.77246094 59.11352539 C44.67964844 59.71938477 44.58683594 60.32524414 44.49121094 60.94946289 C43.59279754 63.65446846 42.67506029 64.26073611 40.27246094 65.73852539 C39.64339844 66.14329102 39.01433594 66.54805664 38.36621094 66.96508789 C31.04085703 70.20854278 23.5067873 70.39185544 15.61230469 70.30883789 C14.06658531 70.30459305 14.06658531 70.30459305 12.48963928 70.30026245 C9.22962351 70.28915402 5.96989232 70.26406702 2.70996094 70.23852539 C0.48665764 70.22848352 -1.73665 70.21935979 -3.95996094 70.21118164 C-9.38259502 70.18924531 -14.80501895 70.15478059 -20.22753906 70.11352539 C-20.22753906 66.81352539 -20.22753906 63.51352539 -20.22753906 60.11352539 C-18.22203979 60.08379639 -18.22203979 60.08379639 -16.17602539 60.0534668 C-11.20920173 59.97731722 -6.24266744 59.88861391 -1.27612305 59.79614258 C0.87225628 59.75789154 3.0206988 59.72303192 5.16918945 59.69165039 C8.2598324 59.64591602 11.35004175 59.58793483 14.44042969 59.52758789 C15.39894333 59.51603668 16.35745697 59.50448547 17.34501648 59.49258423 C23.80302169 59.39970591 23.80302169 59.39970591 29.77246094 57.11352539 C31.12016071 54.41812585 31.05268285 52.18340708 31.14746094 49.17602539 C31.19644531 48.11512695 31.24542969 47.05422852 31.29589844 45.96118164 C31.07067661 42.97295025 31.07067661 42.97295025 28.66772461 41.4543457 C25.18539257 39.84164922 22.75423083 39.77431318 18.92480469 39.81274414 C17.58300294 39.80509244 16.24120576 39.79660091 14.89941406 39.78735352 C12.81513723 39.78954518 10.73180176 39.80073321 8.64770508 39.82861328 C-1.06272671 39.92946174 -9.10209759 38.89986286 -17.22753906 33.11352539 C-20.99782822 29.03749559 -20.71217294 25.54322913 -20.66503906 20.23852539 C-20.68501953 19.44833008 -20.705 18.65813477 -20.72558594 17.84399414 C-20.7211136 12.46824031 -19.8273182 9.34214295 -16.22753906 5.11352539 C-11.29651988 1.16654732 -6.16554832 -0.01496492 0 0 Z " transform="translate(260.2275390625,169.886474609375)" style="fill: #E48E03;"/><path d="M0 0 C0.71212143 -0.00004028 1.42424286 -0.00008057 2.15794373 -0.00012207 C3.654784 0.00521144 5.15162563 0.02270138 6.64819336 0.05175781 C8.9310511 0.09370328 11.21096137 0.09281381 13.49414062 0.0859375 C25.88471214 0.17495669 25.88471214 0.17495669 30.37109375 3.59375 C32.05004327 6.95164905 31.53425711 10.74059746 31.5390625 14.43359375 C31.5440551 15.75043907 31.5440551 15.75043907 31.54914856 17.09388733 C31.55421593 18.95247879 31.55655694 20.81107937 31.55639648 22.66967773 C31.55858224 25.51626547 31.57673783 28.36246529 31.59570312 31.20898438 C31.5986372 33.0130195 31.6006219 34.81705648 31.6015625 36.62109375 C31.60874802 37.47428696 31.61593353 38.32748016 31.62333679 39.20652771 C31.59992165 45.25050815 31.59992165 45.25050815 29.37109375 48.59375 C27.30859375 48.53125 27.30859375 48.53125 24.37109375 47.59375 C23.41364079 46.42227814 22.47872254 45.23226021 21.55859375 44.03125 C18.97243616 41.18995579 17.10539429 40.36808991 13.36328125 40.1328125 C9.35110849 40.07973317 5.37086574 40.29124624 1.37109375 40.59375 C2.45390625 41.55087891 2.45390625 41.55087891 3.55859375 42.52734375 C4.48671875 43.35363281 5.41484375 44.17992187 6.37109375 45.03125 C7.29921875 45.85496094 8.22734375 46.67867187 9.18359375 47.52734375 C9.90546875 48.20925781 10.62734375 48.89117187 11.37109375 49.59375 C11.37109375 49.92375 11.37109375 50.25375 11.37109375 50.59375 C8.30764231 50.70197792 5.24803365 50.78116479 2.18359375 50.84375 C1.31927734 50.87726563 0.45496094 50.91078125 -0.43554688 50.9453125 C-4.69008565 51.01051616 -6.98618341 50.99205711 -10.6796875 48.703125 C-15.54999548 43.43265143 -13.97377371 34.88481938 -14.03393555 28.05493164 C-14.05552203 26.2109912 -14.08963296 24.36715341 -14.13647461 22.52368164 C-14.20346299 19.86297945 -14.23092983 17.20439511 -14.25 14.54296875 C-14.27783066 13.72197189 -14.30566132 12.90097504 -14.33433533 12.05509949 C-14.31845769 7.6258725 -14.03324485 6.07071851 -11.06689453 2.5715332 C-7.03051228 0.24950987 -4.63430554 -0.02490497 0 0 Z " transform="translate(346.62890625,179.40625)" style="fill: #FEFCFB;"/><path d="M0 0 C4.95 0 9.9 0 15 0 C15.01981934 1.65040283 15.03963867 3.30080566 15.06005859 5.0012207 C15.13601013 11.11221836 15.22474368 17.22297463 15.31738281 23.33374023 C15.35571579 25.98082725 15.39056094 28.62796713 15.421875 31.27514648 C15.46743145 35.07555056 15.52544197 38.87558932 15.5859375 42.67578125 C15.59748871 43.86335526 15.60903992 45.05092926 15.62094116 46.27449036 C15.64081085 47.37540512 15.66068054 48.47631989 15.68115234 49.6105957 C15.69447601 50.58100296 15.70779968 51.55141022 15.7215271 52.55122375 C15.84005053 55.25530402 15.84005053 55.25530402 18 58 C20.81369094 58.93789698 22.643105 59.14931982 25.56323242 59.20532227 C26.48396042 59.22526749 27.40468842 59.24521271 28.35331726 59.26576233 C29.34402725 59.28247482 30.33473724 59.29918732 31.35546875 59.31640625 C32.37224197 59.33718735 33.3890152 59.35796844 34.43659973 59.37937927 C37.68683063 59.44480048 40.93714277 59.50372537 44.1875 59.5625 C46.38998238 59.60569227 48.59245653 59.64930679 50.79492188 59.69335938 C56.19653117 59.80047432 61.59822225 59.90176289 67 60 C67 63.3 67 66.6 67 70 C60.32888189 70.07449282 53.6580092 70.12876426 46.98657227 70.16479492 C44.71992776 70.17982508 42.45331206 70.20025482 40.18676758 70.22631836 C36.91740787 70.26295588 33.64843473 70.2797846 30.37890625 70.29296875 C29.37541641 70.30845261 28.37192657 70.32393646 27.33802795 70.33988953 C17.4329334 70.3422267 9.79316408 67.99410696 2.1875 61.4375 C-0.33652636 58.38209966 -0.1218477 55.19700913 -0.11352539 51.42700195 C-0.11344986 50.28604568 -0.11337433 49.14508942 -0.11329651 47.96955872 C-0.10813522 46.73823715 -0.10297394 45.50691559 -0.09765625 44.23828125 C-0.0962413 42.97735153 -0.09482635 41.71642181 -0.09336853 40.4172821 C-0.08871575 37.06848291 -0.07973342 33.71975189 -0.06866455 30.37097168 C-0.05842687 26.95239857 -0.05386586 23.53381841 -0.04882812 20.11523438 C-0.03779099 13.41013496 -0.0205222 6.70507683 0 0 Z " transform="translate(402,170)" style="fill: #E48E02;"/><path d="M0 0 C3.07469523 1.70251719 5.40613254 3.81226508 7 7 C7.69902913 14.10679612 7.69902913 14.10679612 4.75 17.875 C-0.65168539 22.04902962 -0.65168539 22.04902962 -5.4375 21.875 C-9.29943186 20.92645533 -11.17092464 19.74586726 -14 17 C-15.60540839 13.78918322 -15.48463309 10.48289645 -15 7 C-11.23083736 0.0898685 -7.608151 -1.17441257 0 0 Z " transform="translate(492,219)" style="fill: #FDF6EF;"/><path d="M0 0 C3.07469523 1.70251719 5.40613254 3.81226508 7 7 C7.69902913 14.10679612 7.69902913 14.10679612 4.75 17.875 C-0.65168539 22.04902962 -0.65168539 22.04902962 -5.4375 21.875 C-9.29943186 20.92645533 -11.17092464 19.74586726 -14 17 C-15.60540839 13.78918322 -15.48463309 10.48289645 -15 7 C-11.23083736 0.0898685 -7.608151 -1.17441257 0 0 Z M-13 7 C-13.60739243 10.64435459 -13.24725914 12.47015899 -11.6875 15.8125 C-10.11490816 18.27169594 -10.11490816 18.27169594 -7 19 C-3.22144167 19.3435053 -0.86950494 19.51278496 2.4375 17.5625 C4.75830672 13.75637699 4.76474799 10.34153806 4 6 C2.68620182 3.26938424 2.68620182 3.26938424 0 2 C-6.19885712 1.11444898 -9.2217441 1.56875714 -13 7 Z " transform="translate(492,219)" style="fill: #E6981E;"/><path d="M0 0 C3.5625 0.1875 3.5625 0.1875 5.5625 2.1875 C5.1875 4.8125 5.1875 4.8125 4.5625 7.1875 C3.9025 7.1875 3.2425 7.1875 2.5625 7.1875 C3.5525 9.1675 4.5425 11.1475 5.5625 13.1875 C3.625 12.4375 3.625 12.4375 1.5625 11.1875 C0.8125 9.0625 0.8125 9.0625 0.5625 7.1875 C-0.4275 7.1875 -1.4175 7.1875 -2.4375 7.1875 C-2.4375 9.1675 -2.4375 11.1475 -2.4375 13.1875 C-3.0975 13.1875 -3.7575 13.1875 -4.4375 13.1875 C-4.46436553 11.20840602 -4.48383375 9.22921029 -4.5 7.25 C-4.51160156 6.14785156 -4.52320313 5.04570312 -4.53515625 3.91015625 C-4.38987618 -0.14025222 -4.16005118 0.22691188 0 0 Z " transform="translate(487.4375,222.8125)" style="fill: #E9A341;"/><path d="M0 0 C2.72705554 -0.22111261 4.46420662 -0.30361625 6.875 1.0625 C8.64782183 4.11569315 7.69235306 6.66411708 7 10 C6.34 10 5.68 10 5 10 C3.7109375 8.3203125 3.7109375 8.3203125 2.375 6.125 C1.92898438 5.40570313 1.48296875 4.68640625 1.0234375 3.9453125 C0 2 0 2 0 0 Z " transform="translate(360,52)" style="fill: #0B668E;"/><path d="M0 0 C0.99 0 1.98 0 3 0 C4.5625 2.375 4.5625 2.375 6 5 C6.66 5.66 7.32 6.32 8 7 C7 8 7 8 3.5625 8.1875 C0 8 0 8 -2 6 C-1.34 6 -0.68 6 0 6 C0 4.02 0 2.04 0 0 Z " transform="translate(485,230)" style="fill: #FBEEDF;"/><path d="M0 0 C0.66 0.33 1.32 0.66 2 1 C1.67 2.65 1.34 4.3 1 6 C0.34 6 -0.32 6 -1 6 C-0.01 7.98 0.98 9.96 2 12 C0.0625 11.25 0.0625 11.25 -2 10 C-2.75 7.875 -2.75 7.875 -3 6 C-3.99 6 -4.98 6 -6 6 C-6 7.98 -6 9.96 -6 12 C-6.33 12 -6.66 12 -7 12 C-7 8.7 -7 5.4 -7 2 C-6.67 2.99 -6.34 3.98 -6 5 C-4.02 4.67 -2.04 4.34 0 4 C0 2.68 0 1.36 0 0 Z " transform="translate(491,224)" style="fill: #E59210;"/><path d="M0 0 C0.33 1.32 0.66 2.64 1 4 C0.34 3.67 -0.32 3.34 -1 3 C-5.23971058 2.76446052 -8.36178302 2.67154114 -12 5 C-9.28085049 -1.02097391 -6.0998139 -0.0983841 0 0 Z " transform="translate(492,221)" style="fill: #FBEEDF;"/><path d="M0 0 C0.8125 1.6875 0.8125 1.6875 1 4 C-1.0625 6.75 -1.0625 6.75 -4 9 C-7.3125 9.3125 -7.3125 9.3125 -10 9 C-7 7 -7 7 -4.4375 6.1875 C-1.76236228 5.18995984 -1.76236228 5.18995984 -0.6875 2.375 C-0.460625 1.59125 -0.23375 0.8075 0 0 Z " transform="translate(497,231)" style="fill: #E4910A;"/><path d="M0 0 C-2.69504819 2.69504819 -6.08360477 5 -10 5 C-7.62417533 -0.26075462 -5.61350876 -0.1220328 0 0 Z " transform="translate(489,219)" style="fill: #E59310;"/><path d="M0 0 C1.65 0 3.3 0 5 0 C5.33 0.99 5.66 1.98 6 3 C4.02 3.33 2.04 3.66 0 4 C0 2.68 0 1.36 0 0 Z " transform="translate(485,225)" style="fill: #FAE9D5;"/></svg>