<?xml version="1.0" standalone="no"?>
<!DOCTYPE svg PUBLIC "-//W3C//DTD SVG 20010904//EN"
 "http://www.w3.org/TR/2001/REC-SVG-20010904/DTD/svg10.dtd">
<svg version="1.0" xmlns="http://www.w3.org/2000/svg"
 width="830.000000pt" height="828.000000pt" viewBox="0 0 830.000000 828.000000"
 preserveAspectRatio="xMidYMid meet">
<metadata>
Created by potrace 1.16, written by Peter Selinger 2001-2019
</metadata>
<g transform="translate(0.000000,828.000000) scale(0.100000,-0.100000)"
fill="#000000" stroke="none">
<path d="M3900 8184 c-409 -36 -675 -87 -995 -191 -1415 -458 -2462 -1653
-2729 -3113 -48 -264 -60 -414 -60 -725 0 -312 13 -467 60 -725 264 -1441
1294 -2632 2679 -3098 686 -231 1425 -273 2134 -123 527 112 1041 336 1476
644 369 261 719 611 983 983 615 866 860 1988 666 3044 -154 835 -552 1579
-1160 2170 -305 296 -691 566 -1063 743 -411 195 -846 320 -1296 372 -132 15
-593 28 -695 19z m-265 -2691 c-5 -16 -10 -500 -12 -1078 -4 -967 -3 -1052 13
-1087 20 -45 60 -66 132 -69 l52 -3 0 -70 0 -71 -360 0 -360 0 0 71 0 71 57 2
c69 3 117 21 135 53 10 19 13 196 15 923 2 510 -1 917 -6 939 -14 57 -27 65
-111 68 l-75 3 -3 63 c-2 34 1 61 5 60 15 -3 88 14 148 35 61 21 140 63 184
98 19 15 41 19 109 19 l84 0 -7 -27z m-1444 -166 c19 -4 57 -9 84 -13 184 -23
363 -135 438 -273 55 -100 73 -258 43 -374 -37 -140 -137 -268 -258 -326 -37
-18 -57 -32 -48 -35 8 -2 47 -14 85 -26 211 -65 373 -233 421 -436 11 -49 15
-94 11 -154 -17 -266 -195 -448 -525 -538 l-97 -26 -531 -4 -531 -3 -2 65 -2
64 78 6 c112 9 153 24 178 66 20 35 20 46 20 906 0 746 -2 875 -15 898 -22 42
-80 66 -175 73 l-83 6 0 66 0 66 438 -1 c240 -1 452 -4 471 -7z m2639 -747
c105 -17 263 -74 281 -102 3 -5 9 -9 13 -9 33 6 203 -168 248 -254 86 -167
115 -385 73 -555 -3 -14 -8 -36 -11 -49 -8 -37 -76 -181 -85 -181 -5 0 -9 -6
-9 -13 0 -22 -104 -140 -163 -184 -79 -60 -170 -108 -257 -135 -63 -19 -96
-23 -210 -22 -96 0 -154 5 -200 18 -73 19 -220 85 -220 98 0 4 -5 8 -10 8 -16
0 -36 17 -122 102 -133 133 -208 321 -208 523 0 78 22 225 38 250 4 5 8 19 9
29 2 11 22 56 46 100 31 60 65 105 132 172 76 77 104 98 185 138 52 26 124 53
160 60 78 17 221 20 310 6z m1610 -10 c47 -11 96 -23 109 -26 14 -3 28 -7 32
-9 4 -3 40 -12 80 -20 79 -17 197 -20 309 -9 l68 6 0 -102 0 -102 -134 4
c-119 4 -134 3 -129 -11 22 -54 36 -163 31 -235 -3 -43 -9 -82 -12 -87 -3 -5
-7 -18 -9 -30 -18 -94 -128 -220 -240 -274 -106 -52 -172 -66 -343 -72 l-153
-6 -29 -36 c-52 -62 -37 -150 30 -183 30 -15 81 -18 334 -23 242 -6 314 -10
370 -25 128 -33 206 -93 258 -199 19 -38 22 -63 23 -146 0 -91 -3 -106 -31
-165 -34 -71 -118 -169 -194 -225 -110 -80 -290 -150 -452 -176 -99 -15 -322
-7 -403 15 -156 43 -292 142 -345 251 -35 70 -36 208 -2 276 31 64 114 142
195 185 l69 36 -38 18 c-84 37 -142 126 -151 230 -9 94 -4 101 107 171 55 35
100 66 100 69 0 3 -19 16 -41 30 -88 53 -165 162 -189 262 -21 91 -2 305 28
328 4 3 8 11 10 19 5 26 60 97 104 135 57 50 186 112 273 130 103 21 263 20
365 -4z"/>
<path d="M1885 4771 l0 -411 84 0 c199 0 329 50 400 153 53 79 73 150 74 272
3 280 -103 378 -423 392 l-135 6 0 -412z"/>
<path d="M1889 4123 c-3 -388 2 -750 11 -779 7 -20 23 -40 38 -48 63 -31 322
-26 427 9 28 9 77 35 111 57 103 69 154 191 148 360 -6 205 -88 341 -253 420
-35 17 -81 33 -100 35 -20 2 -47 8 -61 12 -14 4 -91 9 -172 10 l-148 3 -1 -79z"/>
<path d="M4615 4441 c-201 -53 -330 -317 -312 -640 12 -211 75 -371 194 -490
40 -41 76 -71 80 -67 3 3 13 1 20 -6 21 -17 173 -23 219 -8 124 40 238 197
278 385 22 104 16 335 -13 440 -64 239 -200 383 -371 391 -36 2 -78 0 -95 -5z"/>
<path d="M6125 4425 c-49 -34 -64 -50 -93 -98 -40 -69 -55 -142 -49 -246 7
-153 56 -256 142 -306 53 -32 158 -34 220 -6 44 20 95 67 95 87 0 7 6 19 13
26 43 43 48 275 8 380 -23 59 -102 158 -127 158 -8 0 -14 4 -14 8 0 10 -1 10
-90 18 -59 5 -69 3 -105 -21z"/>
<path d="M6229 3109 c-234 -19 -359 -111 -359 -265 0 -68 29 -132 82 -179 84
-77 193 -101 378 -84 251 24 410 141 410 304 0 31 -6 70 -14 88 -16 41 -85 97
-136 112 -86 25 -224 35 -361 24z"/>
</g>
</svg>
