<?xml version="1.0" standalone="no"?>
<!DOCTYPE svg PUBLIC "-//W3C//DTD SVG 20010904//EN"
 "http://www.w3.org/TR/2001/REC-SVG-20010904/DTD/svg10.dtd">
<svg version="1.0" xmlns="http://www.w3.org/2000/svg"
 width="762.000000pt" height="684.000000pt" viewBox="0 0 762.000000 684.000000"
 preserveAspectRatio="xMidYMid meet">
<metadata>
Created by potrace 1.16, written by Peter Selinger 2001-2019
</metadata>
<g transform="translate(0.000000,684.000000) scale(0.100000,-0.100000)"
fill="#000000" stroke="none">
<path d="M3720 6134 c-663 -36 -1241 -272 -1693 -693 -475 -442 -759 -984
-844 -1613 -23 -170 -23 -528 0 -698 56 -400 192 -766 415 -1110 181 -278 490
-584 784 -773 803 -518 1850 -560 2696 -106 404 216 785 580 1020 973 185 309
301 636 354 996 32 219 32 531 -1 745 -116 767 -518 1403 -1166 1842 -319 216
-759 378 -1134 418 -137 14 -344 23 -431 19z m-981 -1295 c84 -13 174 -57 244
-120 43 -38 67 -71 99 -136 l43 -87 0 -115 c-1 -114 -1 -117 -38 -192 -78
-156 -215 -254 -374 -266 -155 -11 -277 33 -379 139 -220 226 -154 599 129
734 106 50 172 60 276 43z m1151 1 c196 -28 362 -198 388 -398 28 -212 -97
-421 -296 -496 -71 -26 -203 -32 -281 -12 -116 30 -222 111 -284 217 -40 68
-70 192 -62 259 20 181 115 318 272 392 92 43 159 53 263 38z m1210 -12 c224
-68 361 -282 330 -511 -26 -191 -182 -357 -363 -387 -225 -38 -421 60 -516
259 -35 74 -36 80 -36 191 0 112 1 117 37 193 67 141 196 242 338 266 61 10
156 5 210 -11z m-1138 -1158 c122 -37 240 -148 288 -268 35 -86 39 -226 10
-312 -49 -147 -139 -240 -287 -297 -195 -75 -439 12 -550 199 -45 75 -76 197
-68 270 11 109 50 198 119 275 122 135 312 187 488 133z m41 -1167 c127 -60
209 -149 253 -274 57 -163 20 -337 -99 -465 -182 -197 -496 -196 -676 2 -57
62 -74 91 -102 171 -30 89 -33 158 -10 247 36 136 112 237 223 296 96 52 132
60 243 57 88 -2 108 -6 168 -34z"/>
</g>
</svg>
